ISO-10303-21;
HEADER;
FILE_DESCRIPTION (( 'STEP AP203' ),
    '1' );
FILE_NAME ('IR Bracket testprint.STEP',
    '2026-08-29T11:55:22',
    ( '' ),
    ( '' ),
    'SwSTEP 2.0',
    'SolidWorks 2026',
    '' );
FILE_SCHEMA (( 'CONFIG_CONTROL_DESIGN' ));
ENDSEC;

DATA;
#1 = ORIENTED_EDGE ( 'NONE', *, *, #592, .T. ) ;
#2 = CARTESIAN_POINT ( 'NONE',  ( -0.0007225484280981583169, 6.942767982928656600, 0.5999999999999999778 ) ) ;
#3 = FACE_OUTER_BOUND ( 'NONE', #970, .T. ) ;
#4 = VERTEX_POINT ( 'NONE', #907 ) ;
#5 = VECTOR ( 'NONE', #474, 100.0000000000000000 ) ;
#6 = DIRECTION ( 'NONE',  ( 1.000000000000000000, 0.000000000000000000, 0.000000000000000000 ) ) ;
#7 = LINE ( 'NONE', #407, #104 ) ;
#8 = ORIENTED_EDGE ( 'NONE', *, *, #404, .T. ) ;
#9 = LINE ( 'NONE', #505, #823 ) ;
#10 = EDGE_LOOP ( 'NONE', ( #32, #307, #661, #751 ) ) ;
#11 = EDGE_CURVE ( 'NONE', #881, #143, #414, .T. ) ;
#12 = AXIS2_PLACEMENT_3D ( 'NONE', #451, #1148, #656 ) ;
#13 = CIRCLE ( 'NONE', #83, 0.1700000000000000122 ) ;
#14 = DIRECTION ( 'NONE',  ( -3.944660595570344343E-16, 1.000000000000000000, 0.000000000000000000 ) ) ;
#15 = CARTESIAN_POINT ( 'NONE',  ( -2.258879505620177586, 5.873086714612457016, 0.2999999999999999889 ) ) ;
#16 = ORIENTED_EDGE ( 'NONE', *, *, #535, .F. ) ;
#17 = PLANE ( 'NONE',  #660 ) ;
#18 = VERTEX_POINT ( 'NONE', #204 ) ;
#19 = SECURITY_CLASSIFICATION ( '', '', #1191 ) ;
#20 = ORIENTED_EDGE ( 'NONE', *, *, #443, .T. ) ;
#21 = CIRCLE ( 'NONE', #1255, 0.1700000000000000122 ) ;
#22 = ADVANCED_FACE ( 'NONE', ( #1188, #488, #1107, #799, #589, #696, #1012 ), #17, .F. ) ;
#23 = LINE ( 'NONE', #1109, #37 ) ;
#24 = CARTESIAN_POINT ( 'NONE',  ( 6.167727688116652729, 8.421986695411733947, 0.2999999999999999889 ) ) ;
#25 = ORIENTED_EDGE ( 'NONE', *, *, #576, .T. ) ;
#26 = DIRECTION ( 'NONE',  ( 1.000000000000000000, 0.000000000000000000, 0.000000000000000000 ) ) ;
#27 = ORIENTED_EDGE ( 'NONE', *, *, #340, .T. ) ;
#28 = ORIENTED_EDGE ( 'NONE', *, *, #1162, .T. ) ;
#29 = CARTESIAN_POINT ( 'NONE',  ( 1.601473350801780215, 6.998570559987092210, 0.2999999999999999889 ) ) ;
#30 = CARTESIAN_POINT ( 'NONE',  ( 5.617727688116653795, 10.93171190698623896, 0.2999999999999999889 ) ) ;
#31 = ADVANCED_FACE ( 'NONE', ( #100 ), #196, .F. ) ;
#32 = ORIENTED_EDGE ( 'NONE', *, *, #115, .F. ) ;
#33 = CARTESIAN_POINT ( 'NONE',  ( -6.182272311883345139, 8.421071038315055546, 0.2999999999999999889 ) ) ;
#34 = ORIENTED_EDGE ( 'NONE', *, *, #544, .T. ) ;
#35 = ORIENTED_EDGE ( 'NONE', *, *, #200, .F. ) ;
#36 = AXIS2_PLACEMENT_3D ( 'NONE', #399, #294, #300 ) ;
#37 = VECTOR ( 'NONE', #903, 100.0000000000000000 ) ;
#38 = DIRECTION ( 'NONE',  ( 0.000000000000000000, 0.000000000000000000, 1.000000000000000000 ) ) ;
#39 = CARTESIAN_POINT ( 'NONE',  ( 5.517727688116654150, 8.971230929720350744, 0.2999999999999999889 ) ) ;
#40 = DIRECTION ( 'NONE',  ( -1.000000000000000000, 0.000000000000000000, 0.000000000000000000 ) ) ;
#41 = FACE_OUTER_BOUND ( 'NONE', #66, .T. ) ;
#42 = EDGE_LOOP ( 'NONE', ( #875, #669, #1284, #1111 ) ) ;
#43 = ORIENTED_EDGE ( 'NONE', *, *, #277, .F. ) ;
#44 = CC_DESIGN_APPROVAL ( #965, ( #514 ) ) ;
#45 = DIRECTION ( 'NONE',  ( 1.000000000000000000, 0.000000000000000000, 0.000000000000000000 ) ) ;
#46 = FACE_BOUND ( 'NONE', #848, .T. ) ;
#47 = ORIENTED_EDGE ( 'NONE', *, *, #782, .T. ) ;
#48 = AXIS2_PLACEMENT_3D ( 'NONE', #511, #898, #419 ) ;
#49 = VERTEX_POINT ( 'NONE', #1006 ) ;
#50 = EDGE_CURVE ( 'NONE', #75, #914, #805, .T. ) ;
#51 = LINE ( 'NONE', #231, #614 ) ;
#52 = LINE ( 'NONE', #558, #367 ) ;
#53 = ORIENTED_EDGE ( 'NONE', *, *, #893, .T. ) ;
#54 = VERTEX_POINT ( 'NONE', #291 ) ;
#55 = DIRECTION ( 'NONE',  ( -3.944660595570343850E-16, 1.000000000000000000, 0.000000000000000000 ) ) ;
#56 = CIRCLE ( 'NONE', #264, 0.1700000000000000122 ) ;
#57 = LINE ( 'NONE', #851, #453 ) ;
#58 = DIRECTION ( 'NONE',  ( 0.000000000000000000, -0.000000000000000000, -1.000000000000000000 ) ) ;
#59 = EDGE_LOOP ( 'NONE', ( #130, #772, #1155, #559 ) ) ;
#60 = EDGE_LOOP ( 'NONE', ( #481, #184, #625, #1208 ) ) ;
#61 = PLANE ( 'NONE',  #826 ) ;
#62 = DIRECTION ( 'NONE',  ( 1.443675383471039126E-15, -1.000000000000000000, 0.000000000000000000 ) ) ;
#63 = DIRECTION ( 'NONE',  ( 1.000000000000000000, 0.000000000000000000, 0.000000000000000000 ) ) ;
#64 = CARTESIAN_POINT ( 'NONE',  ( 5.617727688116653795, 8.971230929720350744, 0.2999999999999999889 ) ) ;
#65 = VERTEX_POINT ( 'NONE', #498 ) ;
#66 = EDGE_LOOP ( 'NONE', ( #268, #874, #572, #420 ) ) ;
#67 = EDGE_LOOP ( 'NONE', ( #520, #177, #53, #780 ) ) ;
#68 = AXIS2_PLACEMENT_3D ( 'NONE', #941, #452, #949 ) ;
#69 = CARTESIAN_POINT ( 'NONE',  ( 1.978872763268170409, 5.310493624339570395, 0.2999999999999999889 ) ) ;
#70 = DIRECTION ( 'NONE',  ( 1.000000000000000000, 0.000000000000000000, 0.000000000000000000 ) ) ;
#71 = DIRECTION ( 'NONE',  ( 0.000000000000000000, 0.000000000000000000, 1.000000000000000000 ) ) ;
#72 = EDGE_CURVE ( 'NONE', #432, #65, #601, .T. ) ;
#73 = EDGE_LOOP ( 'NONE', ( #89, #955 ) ) ;
#74 = VECTOR ( 'NONE', #162, 100.0000000000000000 ) ;
#75 = VERTEX_POINT ( 'NONE', #994 ) ;
#76 = PERSON_AND_ORGANIZATION ( #1204, #905 ) ;
#77 = CYLINDRICAL_SURFACE ( 'NONE', #508, 0.1000000000000000888 ) ;
#78 = DIRECTION ( 'NONE',  ( 0.9333456062030595080, 0.3589790793088694087, 0.000000000000000000 ) ) ;
#79 = CARTESIAN_POINT ( 'NONE',  ( -5.732272311883346738, 11.04262037481126058, 0.2999999999999999889 ) ) ;
#80 = AXIS2_PLACEMENT_3D ( 'NONE', #729, #931, #937 ) ;
#81 = ORIENTED_EDGE ( 'NONE', *, *, #292, .T. ) ;
#82 = AXIS2_PLACEMENT_3D ( 'NONE', #635, #808, #1009 ) ;
#83 = AXIS2_PLACEMENT_3D ( 'NONE', #87, #777, #872 ) ;
#84 = ORIENTED_EDGE ( 'NONE', *, *, #497, .T. ) ;
#85 = PLANE ( 'NONE',  #1241 ) ;
#86 = ADVANCED_BREP_SHAPE_REPRESENTATION ( 'IR Bracket testprint', ( #1194, #12 ), #1039 ) ;
#87 = CARTESIAN_POINT ( 'NONE',  ( 5.900000000000000355, 10.76034806292791224, 0.5999999999999999778 ) ) ;
#88 = CARTESIAN_POINT ( 'NONE',  ( -5.632272311883342653, -2.221740265220810884E-15, 0.2999999999999999889 ) ) ;
#89 = ORIENTED_EDGE ( 'NONE', *, *, #242, .F. ) ;
#90 = CARTESIAN_POINT ( 'NONE',  ( -0.9093266739736218796, 7.225000000000020073, 0.5999999999999999778 ) ) ;
#91 = ORIENTED_EDGE ( 'NONE', *, *, #562, .F. ) ;
#92 = AXIS2_PLACEMENT_3D ( 'NONE', #466, #58, #1267 ) ;
#93 = ADVANCED_FACE ( 'NONE', ( #693 ), #512, .F. ) ;
#94 = APPROVAL_DATE_TIME ( #679, #542 ) ;
#95 = CARTESIAN_POINT ( 'NONE',  ( 6.167727688116652729, 8.421986695411733947, 0.2999999999999999889 ) ) ;
#96 = DIRECTION ( 'NONE',  ( 0.000000000000000000, 0.000000000000000000, -1.000000000000000000 ) ) ;
#97 = VECTOR ( 'NONE', #426, 100.0000000000000000 ) ;
#98 = DIRECTION ( 'NONE',  ( 0.000000000000000000, 0.000000000000000000, 1.000000000000000000 ) ) ;
#99 = EDGE_CURVE ( 'NONE', #254, #444, #403, .T. ) ;
#100 = FACE_OUTER_BOUND ( 'NONE', #561, .T. ) ;
#101 = ORIENTED_EDGE ( 'NONE', *, *, #99, .F. ) ;
#102 = DIRECTION ( 'NONE',  ( -0.000000000000000000, 0.000000000000000000, 1.000000000000000000 ) ) ;
#103 = CARTESIAN_POINT ( 'NONE',  ( -5.900000000000000355, 8.630348062927911457, 0.2999999999999999889 ) ) ;
#104 = VECTOR ( 'NONE', #620, 100.0000000000000000 ) ;
#105 = EDGE_LOOP ( 'NONE', ( #527, #552, #1072, #1154 ) ) ;
#106 = CARTESIAN_POINT ( 'NONE',  ( -5.730000000000000426, 8.630348062927911457, 0.2999999999999999889 ) ) ;
#107 = ADVANCED_FACE ( 'NONE', ( #3 ), #1209, .F. ) ;
#108 = ORIENTED_EDGE ( 'NONE', *, *, #11, .T. ) ;
#109 = CARTESIAN_POINT ( 'NONE',  ( -5.900000000000000355, 10.76034806292791224, 0.2999999999999999889 ) ) ;
#110 = CIRCLE ( 'NONE', #92, 0.1000000000000007827 ) ;
#111 = LINE ( 'NONE', #532, #768 ) ;
#112 = DIRECTION ( 'NONE',  ( 0.000000000000000000, -0.000000000000000000, -1.000000000000000000 ) ) ;
#113 = ORIENTED_EDGE ( 'NONE', *, *, #331, .T. ) ;
#114 = VERTEX_POINT ( 'NONE', #1193 ) ;
#115 = EDGE_CURVE ( 'NONE', #49, #1174, #9, .T. ) ;
#116 = ORIENTED_EDGE ( 'NONE', *, *, #611, .T. ) ;
#117 = CIRCLE ( 'NONE', #1203, 0.1700000000000000122 ) ;
#118 = AXIS2_PLACEMENT_3D ( 'NONE', #657, #564, #380 ) ;
#119 = LINE ( 'NONE', #406, #889 ) ;
#120 = DIRECTION ( 'NONE',  ( 0.000000000000000000, 0.000000000000000000, 1.000000000000000000 ) ) ;
#121 = CARTESIAN_POINT ( 'NONE',  ( -5.732272311883346738, 11.04262037481126058, 0.2999999999999999889 ) ) ;
#122 = ORIENTED_EDGE ( 'NONE', *, *, #592, .F. ) ;
#123 = ADVANCED_FACE ( 'NONE', ( #409 ), #308, .F. ) ;
#124 = FACE_OUTER_BOUND ( 'NONE', #206, .T. ) ;
#125 = DIRECTION ( 'NONE',  ( 0.000000000000000000, -0.000000000000000000, -1.000000000000000000 ) ) ;
#126 = EDGE_CURVE ( 'NONE', #75, #449, #801, .T. ) ;
#127 = FACE_OUTER_BOUND ( 'NONE', #1060, .T. ) ;
#128 = EDGE_LOOP ( 'NONE', ( #1264, #938, #688, #577 ) ) ;
#129 = DIRECTION ( 'NONE',  ( -0.000000000000000000, 0.000000000000000000, 1.000000000000000000 ) ) ;
#130 = ORIENTED_EDGE ( 'NONE', *, *, #507, .F. ) ;
#131 = EDGE_CURVE ( 'NONE', #899, #287, #605, .T. ) ;
#132 = LINE ( 'NONE', #540, #538 ) ;
#133 = CARTESIAN_POINT ( 'NONE',  ( 6.070000000000000284, 10.76034806292791224, 0.2999999999999999889 ) ) ;
#134 = FACE_OUTER_BOUND ( 'NONE', #999, .T. ) ;
#135 = VECTOR ( 'NONE', #763, 100.0000000000000000 ) ;
#136 = DIRECTION ( 'NONE',  ( 0.000000000000000000, 0.000000000000000000, 1.000000000000000000 ) ) ;
#137 = ORIENTED_EDGE ( 'NONE', *, *, #1234, .F. ) ;
#138 = EDGE_LOOP ( 'NONE', ( #1133, #370 ) ) ;
#139 = CARTESIAN_POINT ( 'NONE',  ( -0.7393266739736223947, 7.225000000000020073, 0.2999999999999999889 ) ) ;
#140 = CARTESIAN_POINT ( 'NONE',  ( -5.632272311883342653, -2.221740265220810884E-15, 0.2999999999999999889 ) ) ;
#141 = DIRECTION ( 'NONE',  ( 1.000000000000000000, 0.000000000000000000, 0.000000000000000000 ) ) ;
#142 = ORIENTED_EDGE ( 'NONE', *, *, #1162, .F. ) ;
#143 = VERTEX_POINT ( 'NONE', #637 ) ;
#144 = DESIGN_CONTEXT ( 'detailed design', #1069, 'design' ) ;
#145 = CARTESIAN_POINT ( 'NONE',  ( 5.900000000000000355, 10.76034806292791224, 0.5999999999999999778 ) ) ;
#146 = DIRECTION ( 'NONE',  ( 0.000000000000000000, 0.000000000000000000, 1.000000000000000000 ) ) ;
#147 = PLANE ( 'NONE',  #953 ) ;
#148 = PLANE ( 'NONE',  #682 ) ;
#149 = ORIENTED_EDGE ( 'NONE', *, *, #185, .T. ) ;
#150 = EDGE_CURVE ( 'NONE', #1175, #1054, #217, .T. ) ;
#151 = AXIS2_PLACEMENT_3D ( 'NONE', #1178, #284, #188 ) ;
#152 = VERTEX_POINT ( 'NONE', #224 ) ;
#153 = CARTESIAN_POINT ( 'NONE',  ( -3.988704546339663537, 8.380348062927911457, 0.2999999999999999889 ) ) ;
#154 = DIRECTION ( 'NONE',  ( 0.000000000000000000, 0.000000000000000000, 1.000000000000000000 ) ) ;
#155 = CARTESIAN_POINT ( 'NONE',  ( -6.117190242076239848, 8.327365445360076279, 0.5999999999999999778 ) ) ;
#156 = DIRECTION ( 'NONE',  ( -1.000000000000000000, 0.000000000000000000, 0.000000000000000000 ) ) ;
#157 = AXIS2_PLACEMENT_3D ( 'NONE', #1084, #297, #6 ) ;
#158 = VERTEX_POINT ( 'NONE', #429 ) ;
#159 = VECTOR ( 'NONE', #810, 100.0000000000000000 ) ;
#160 = AXIS2_PLACEMENT_3D ( 'NONE', #927, #1210, #212 ) ;
#161 = LINE ( 'NONE', #1276, #350 ) ;
#162 = DIRECTION ( 'NONE',  ( 0.000000000000000000, 0.000000000000000000, 1.000000000000000000 ) ) ;
#163 = VERTEX_POINT ( 'NONE', #319 ) ;
#164 = VECTOR ( 'NONE', #830, 100.0000000000000000 ) ;
#165 = ORIENTED_EDGE ( 'NONE', *, *, #292, .F. ) ;
#166 = ADVANCED_FACE ( 'NONE', ( #41 ), #1225, .F. ) ;
#167 = CARTESIAN_POINT ( 'NONE',  ( -5.900000000000000355, 10.76034806292791224, 0.5999999999999999778 ) ) ;
#168 = LINE ( 'NONE', #278, #410 ) ;
#169 = CARTESIAN_POINT ( 'NONE',  ( 4.017330142387205427, 8.287013502307607027, 0.5999999999999999778 ) ) ;
#170 = VERTEX_POINT ( 'NONE', #421 ) ;
#171 = ORIENTED_EDGE ( 'NONE', *, *, #723, .T. ) ;
#172 = ORIENTED_EDGE ( 'NONE', *, *, #918, .T. ) ;
#173 = DIRECTION ( 'NONE',  ( 1.000000000000000000, 0.000000000000000000, 0.000000000000000000 ) ) ;
#174 = EDGE_CURVE ( 'NONE', #158, #1066, #51, .T. ) ;
#175 = CARTESIAN_POINT ( 'NONE',  ( -5.732272311883346738, 10.94262037481125915, 0.2999999999999999889 ) ) ;
#176 = DIRECTION ( 'NONE',  ( 0.9366091053111260667, 0.3503760606095854269, 0.000000000000000000 ) ) ;
#177 = ORIENTED_EDGE ( 'NONE', *, *, #1180, .F. ) ;
#178 = AXIS2_PLACEMENT_3D ( 'NONE', #778, #285, #1100 ) ;
#179 = EDGE_LOOP ( 'NONE', ( #468, #745 ) ) ;
#180 = ORIENTED_EDGE ( 'NONE', *, *, #411, .F. ) ;
#181 = DATE_AND_TIME ( #1082, #1229 ) ;
#182 = CARTESIAN_POINT ( 'NONE',  ( 1.601473350801780215, 6.998570559987092210, 0.2999999999999999889 ) ) ;
#183 = CARTESIAN_POINT ( 'NONE',  ( -0.7393266739736225057, 7.225000000000020073, 0.8500000000000000888 ) ) ;
#184 = ORIENTED_EDGE ( 'NONE', *, *, #646, .T. ) ;
#185 = EDGE_CURVE ( 'NONE', #143, #827, #1182, .T. ) ;
#186 = EDGE_CURVE ( 'NONE', #432, #163, #56, .T. ) ;
#187 = DATE_TIME_ROLE ( 'creation_date' ) ;
#188 = DIRECTION ( 'NONE',  ( 1.000000000000000000, 0.000000000000000000, 0.000000000000000000 ) ) ;
#189 = DIRECTION ( 'NONE',  ( 1.000000000000000000, -0.000000000000000000, -0.000000000000000000 ) ) ;
#190 = ORIENTED_EDGE ( 'NONE', *, *, #1032, .F. ) ;
#191 = EDGE_CURVE ( 'NONE', #881, #1212, #831, .T. ) ;
#192 = DIRECTION ( 'NONE',  ( 1.000000000000000000, 0.000000000000000000, 0.000000000000000000 ) ) ;
#193 = DIRECTION ( 'NONE',  ( 0.000000000000000000, 0.000000000000000000, 1.000000000000000000 ) ) ;
#194 = APPROVAL_ROLE ( '' ) ;
#195 = DIRECTION ( 'NONE',  ( 0.000000000000000000, 0.000000000000000000, 1.000000000000000000 ) ) ;
#196 = PLANE ( 'NONE',  #491 ) ;
#197 = VECTOR ( 'NONE', #998, 100.0000000000000000 ) ;
#198 = CIRCLE ( 'NONE', #160, 0.1000000000000007827 ) ;
#199 = COORDINATED_UNIVERSAL_TIME_OFFSET ( 5, 30, .AHEAD. ) ;
#200 = EDGE_CURVE ( 'NONE', #114, #840, #446, .T. ) ;
#201 = LINE ( 'NONE', #290, #405 ) ;
#202 = DIRECTION ( 'NONE',  ( 0.000000000000000000, 0.000000000000000000, -1.000000000000000000 ) ) ;
#203 = VERTEX_POINT ( 'NONE', #735 ) ;
#204 = CARTESIAN_POINT ( 'NONE',  ( -2.400820698071053805, 6.942518199679442503, 0.5999999999999999778 ) ) ;
#205 = CC_DESIGN_SECURITY_CLASSIFICATION ( #19, ( #773 ) ) ;
#206 = EDGE_LOOP ( 'NONE', ( #545, #91, #280, #269 ) ) ;
#207 = CARTESIAN_POINT ( 'NONE',  ( -5.730000000000000426, 10.76034806292791224, 0.2999999999999999889 ) ) ;
#208 = CARTESIAN_POINT ( 'NONE',  ( -5.732272311883346738, 10.94262037481125915, 0.2999999999999999889 ) ) ;
#209 = ORIENTED_EDGE ( 'NONE', *, *, #807, .F. ) ;
#210 = CARTESIAN_POINT ( 'NONE',  ( 6.070000000000000284, 8.630348062927913233, 0.2999999999999999889 ) ) ;
#211 = ADVANCED_FACE ( 'NONE', ( #1245 ), #1044, .F. ) ;
#212 = DIRECTION ( 'NONE',  ( 1.000000000000000000, 0.000000000000000000, 0.000000000000000000 ) ) ;
#213 = DIRECTION ( 'NONE',  ( 0.000000000000000000, 0.000000000000000000, 1.000000000000000000 ) ) ;
#214 = VERTEX_POINT ( 'NONE', #336 ) ;
#215 = DIRECTION ( 'NONE',  ( 0.000000000000000000, 0.000000000000000000, -1.000000000000000000 ) ) ;
#216 = ADVANCED_FACE ( 'NONE', ( #541, #943, #352, #236, #46, #838, #435 ), #147, .F. ) ;
#217 = CIRCLE ( 'NONE', #930, 0.1699999999999994849 ) ;
#218 = VERTEX_POINT ( 'NONE', #1239 ) ;
#219 = DIRECTION ( 'NONE',  ( 0.000000000000000000, 0.000000000000000000, -1.000000000000000000 ) ) ;
#220 = CARTESIAN_POINT ( 'NONE',  ( 5.717727688116654328, 10.93171190698623896, 0.2999999999999999889 ) ) ;
#221 = LINE ( 'NONE', #929, #385 ) ;
#222 = VECTOR ( 'NONE', #556, 100.0000000000000000 ) ;
#223 = VERTEX_POINT ( 'NONE', #343 ) ;
#224 = CARTESIAN_POINT ( 'NONE',  ( -5.632272311883346205, 8.733560568322646489, 0.5999999999999999778 ) ) ;
#225 = VERTEX_POINT ( 'NONE', #121 ) ;
#226 = ORIENTED_EDGE ( 'NONE', *, *, #1164, .T. ) ;
#227 = AXIS2_PLACEMENT_3D ( 'NONE', #103, #503, #822 ) ;
#228 = CARTESIAN_POINT ( 'NONE',  ( 5.517727688116654150, 8.971230929720350744, 0.5999999999999999778 ) ) ;
#229 = CYLINDRICAL_SURFACE ( 'NONE', #963, 0.1000000000000000888 ) ;
#230 = DIRECTION ( 'NONE',  ( 0.000000000000000000, 0.000000000000000000, 1.000000000000000000 ) ) ;
#231 = CARTESIAN_POINT ( 'NONE',  ( 6.067727688116653972, 11.03171190698623860, 0.2999999999999999889 ) ) ;
#232 = EDGE_LOOP ( 'NONE', ( #718, #978, #1181, #171 ) ) ;
#233 = DIRECTION ( 'NONE',  ( 1.000000000000000000, 0.000000000000000000, 0.000000000000000000 ) ) ;
#234 = CARTESIAN_POINT ( 'NONE',  ( 5.730000000000000426, 8.630348062927913233, 0.2999999999999999889 ) ) ;
#235 = CIRCLE ( 'NONE', #281, 0.1700000000000003730 ) ;
#236 = FACE_BOUND ( 'NONE', #390, .T. ) ;
#237 = EDGE_CURVE ( 'NONE', #158, #954, #560, .T. ) ;
#238 = ORIENTED_EDGE ( 'NONE', *, *, #333, .F. ) ;
#239 = AXIS2_PLACEMENT_3D ( 'NONE', #153, #348, #948 ) ;
#240 = DIRECTION ( 'NONE',  ( 1.000000000000000000, 0.000000000000000000, 0.000000000000000000 ) ) ;
#241 = DIRECTION ( 'NONE',  ( 1.000000000000000000, 0.000000000000000000, 0.000000000000000000 ) ) ;
#242 = EDGE_CURVE ( 'NONE', #530, #1174, #766, .T. ) ;
#243 = CIRCLE ( 'NONE', #806, 0.1700000000000000122 ) ;
#244 = DIRECTION ( 'NONE',  ( -1.000000000000000000, 0.000000000000000000, 0.000000000000000000 ) ) ;
#245 = FACE_OUTER_BOUND ( 'NONE', #332, .T. ) ;
#246 = DIRECTION ( 'NONE',  ( -0.000000000000000000, 0.000000000000000000, 1.000000000000000000 ) ) ;
#247 = ORIENTED_EDGE ( 'NONE', *, *, #150, .F. ) ;
#248 = VERTEX_POINT ( 'NONE', #1217 ) ;
#249 = CC_DESIGN_APPROVAL ( #542, ( #19 ) ) ;
#250 = FACE_OUTER_BOUND ( 'NONE', #631, .T. ) ;
#251 = CARTESIAN_POINT ( 'NONE',  ( 6.167727688116666052, 8.904196635286774235E-15, 0.5999999999999999778 ) ) ;
#252 = DIRECTION ( 'NONE',  ( 0.9366091053111260667, 0.3503760606095853714, 0.000000000000000000 ) ) ;
#253 = EDGE_CURVE ( 'NONE', #621, #223, #888, .T. ) ;
#254 = VERTEX_POINT ( 'NONE', #1024 ) ;
#255 = EDGE_CURVE ( 'NONE', #504, #214, #528, .T. ) ;
#256 = ORIENTED_EDGE ( 'NONE', *, *, #1234, .T. ) ;
#257 =( NAMED_UNIT ( * ) SI_UNIT ( $, .STERADIAN. ) SOLID_ANGLE_UNIT ( ) );
#258 = DIRECTION ( 'NONE',  ( 0.9333456062030595080, 0.3589790793088694087, 0.000000000000000000 ) ) ;
#259 = DIRECTION ( 'NONE',  ( -0.000000000000000000, -0.000000000000000000, -1.000000000000000000 ) ) ;
#260 = VECTOR ( 'NONE', #674, 100.0000000000000000 ) ;
#261 = EDGE_LOOP ( 'NONE', ( #382, #1096, #1121, #1261 ) ) ;
#262 = EDGE_CURVE ( 'NONE', #566, #1151, #988, .T. ) ;
#263 = EDGE_LOOP ( 'NONE', ( #926, #906 ) ) ;
#264 = AXIS2_PLACEMENT_3D ( 'NONE', #549, #129, #141 ) ;
#265 = AXIS2_PLACEMENT_3D ( 'NONE', #69, #1156, #270 ) ;
#266 = CARTESIAN_POINT ( 'NONE',  ( -6.082272311883345495, 8.421071038315055546, 0.2999999999999999889 ) ) ;
#267 = DIRECTION ( 'NONE',  ( 1.000000000000000000, 0.000000000000000000, 0.000000000000000000 ) ) ;
#268 = ORIENTED_EDGE ( 'NONE', *, *, #11, .F. ) ;
#269 = ORIENTED_EDGE ( 'NONE', *, *, #1202, .T. ) ;
#270 = DIRECTION ( 'NONE',  ( 0.9370559295497862262, -0.3491793019289459732, 0.000000000000000000 ) ) ;
#271 = DIRECTION ( 'NONE',  ( 1.000000000000000000, 0.000000000000000000, 0.000000000000000000 ) ) ;
#272 = CARTESIAN_POINT ( 'NONE',  ( -5.632272311883347093, 10.94262037481125915, 0.5999999999999999778 ) ) ;
#273 = ORIENTED_EDGE ( 'NONE', *, *, #776, .F. ) ;
#274 = EDGE_LOOP ( 'NONE', ( #659, #408, #8, #1131, #362, #456, #779, #715, #384, #529, #1242, #108, #149, #442, #16, #116, #448, #1027, #1279, #81, #1161, #860 ) ) ;
#275 = AXIS2_PLACEMENT_3D ( 'NONE', #1101, #202, #40 ) ;
#276 = PERSON_AND_ORGANIZATION ( #1204, #905 ) ;
#277 = EDGE_CURVE ( 'NONE', #338, #254, #243, .T. ) ;
#278 = CARTESIAN_POINT ( 'NONE',  ( -2.258879505620177586, 5.873086714612457016, 0.2999999999999999889 ) ) ;
#279 = DIRECTION ( 'NONE',  ( 0.0001040720971753409372, -0.9999999945844992855, 0.000000000000000000 ) ) ;
#280 = ORIENTED_EDGE ( 'NONE', *, *, #99, .T. ) ;
#281 = AXIS2_PLACEMENT_3D ( 'NONE', #944, #1136, #156 ) ;
#282 = EDGE_LOOP ( 'NONE', ( #28, #172, #896, #960, #882, #1041, #1213, #785, #1176, #924, #853, #500, #1236, #256, #1102, #1058, #226, #866, #1228, #1035, #737, #1269 ) ) ;
#283 = PERSON_AND_ORGANIZATION ( #1204, #905 ) ;
#284 = DIRECTION ( 'NONE',  ( -0.000000000000000000, 0.000000000000000000, 1.000000000000000000 ) ) ;
#285 = DIRECTION ( 'NONE',  ( 0.000000000000000000, -1.000000000000000000, 0.000000000000000000 ) ) ;
#286 = APPROVAL ( #387, 'UNSPECIFIED' ) ;
#287 = VERTEX_POINT ( 'NONE', #460 ) ;
#288 = AXIS2_PLACEMENT_3D ( 'NONE', #266, #958, #1259 ) ;
#289 = ORIENTED_EDGE ( 'NONE', *, *, #50, .F. ) ;
#290 = CARTESIAN_POINT ( 'NONE',  ( -4.011010853568447665, 8.282867661524271341, 0.2999999999999999889 ) ) ;
#291 = CARTESIAN_POINT ( 'NONE',  ( 6.167727688116652729, 8.421986695411733947, 0.5999999999999999778 ) ) ;
#292 = EDGE_CURVE ( 'NONE', #954, #462, #1049, .T. ) ;
#293 = DIRECTION ( 'NONE',  ( -0.000000000000000000, 0.000000000000000000, 1.000000000000000000 ) ) ;
#294 = DIRECTION ( 'NONE',  ( 0.000000000000000000, -0.000000000000000000, -1.000000000000000000 ) ) ;
#295 = VECTOR ( 'NONE', #259, 100.0000000000000000 ) ;
#296 = CALENDAR_DATE ( 2026, 29, 8 ) ;
#297 = DIRECTION ( 'NONE',  ( 0.000000000000000000, -0.000000000000000000, -1.000000000000000000 ) ) ;
#298 = CARTESIAN_POINT ( 'NONE',  ( 3.981432234456317776, 8.380348062927913233, 0.2999999999999999889 ) ) ;
#299 = ORIENTED_EDGE ( 'NONE', *, *, #1061, .F. ) ;
#300 = DIRECTION ( 'NONE',  ( 1.000000000000000000, 0.000000000000000000, 0.000000000000000000 ) ) ;
#301 = CLOSED_SHELL ( 'NONE', ( #789, #722, #996, #123, #586, #211, #22, #216, #957, #93, #166, #689, #670, #701, #1288, #990, #705, #107, #590, #490, #509, #379, #748, #555, #1189, #910, #1190, #1294, #626, #450, #31, #739, #1262, #484, #1286, #985 ) ) ;
#302 = CIRCLE ( 'NONE', #847, 0.1000000000000000888 ) ;
#303 = ORIENTED_EDGE ( 'NONE', *, *, #417, .F. ) ;
#304 = EDGE_CURVE ( 'NONE', #438, #617, #1149, .T. ) ;
#305 = CYLINDRICAL_SURFACE ( 'NONE', #493, 0.1700000000000000122 ) ;
#306 = CYLINDRICAL_SURFACE ( 'NONE', #986, 0.1700000000000000122 ) ;
#307 = ORIENTED_EDGE ( 'NONE', *, *, #939, .F. ) ;
#308 = CYLINDRICAL_SURFACE ( 'NONE', #393, 0.1700000000000000122 ) ;
#309 = CARTESIAN_POINT ( 'NONE',  ( -5.632272311883342653, -2.221740265220810884E-15, 0.5999999999999999778 ) ) ;
#310 = LINE ( 'NONE', #1017, #551 ) ;
#311 = EDGE_CURVE ( 'NONE', #827, #566, #168, .T. ) ;
#312 = CIRCLE ( 'NONE', #151, 0.1700000000000000122 ) ;
#313 = CARTESIAN_POINT ( 'NONE',  ( 5.900000000000000355, 8.630348062927913233, 0.2999999999999999889 ) ) ;
#314 = ORIENTED_EDGE ( 'NONE', *, *, #800, .T. ) ;
#315 = AXIS2_PLACEMENT_3D ( 'NONE', #593, #700, #1173 ) ;
#316 = CARTESIAN_POINT ( 'NONE',  ( 1.978872763268170409, 5.310493624339570395, 0.5999999999999999778 ) ) ;
#317 = PLANE ( 'NONE',  #1171 ) ;
#318 = EDGE_LOOP ( 'NONE', ( #815, #1283, #273, #1226 ) ) ;
#319 = CARTESIAN_POINT ( 'NONE',  ( 5.730000000000000426, 8.630348062927913233, 0.2999999999999999889 ) ) ;
#320 = EDGE_CURVE ( 'NONE', #819, #1151, #569, .T. ) ;
#321 = AXIS2_PLACEMENT_3D ( 'NONE', #923, #719, #1120 ) ;
#322 = AXIS2_PLACEMENT_3D ( 'NONE', #228, #1230, #433 ) ;
#323 = ORIENTED_EDGE ( 'NONE', *, *, #934, .T. ) ;
#324 = DIRECTION ( 'NONE',  ( -0.2230630722878367556, -0.9748040140364171435, 0.000000000000000000 ) ) ;
#325 = LINE ( 'NONE', #234, #892 ) ;
#326 = DIRECTION ( 'NONE',  ( 0.9333456062030595080, 0.3589790793088694087, 0.000000000000000000 ) ) ;
#327 = CIRCLE ( 'NONE', #791, 0.1700000000000000122 ) ;
#328 = PRODUCT_DEFINITION_SHAPE ( 'NONE', 'NONE',  #514 ) ;
#329 = DIRECTION ( 'NONE',  ( -0.000000000000000000, 0.000000000000000000, 1.000000000000000000 ) ) ;
#330 = EDGE_LOOP ( 'NONE', ( #940, #571 ) ) ;
#331 = EDGE_CURVE ( 'NONE', #654, #54, #388, .T. ) ;
#332 = EDGE_LOOP ( 'NONE', ( #43, #483, #832, #101 ) ) ;
#333 = EDGE_CURVE ( 'NONE', #225, #114, #980, .T. ) ;
#334 = CARTESIAN_POINT ( 'NONE',  ( 5.717727688116654328, 11.03171190698623860, 0.2999999999999999889 ) ) ;
#335 = CARTESIAN_POINT ( 'NONE',  ( 5.617727688116653795, 0.000000000000000000, 0.2999999999999999889 ) ) ;
#336 = CARTESIAN_POINT ( 'NONE',  ( -6.182272311883345139, 8.421071038315055546, 0.5999999999999999778 ) ) ;
#337 = AXIS2_PLACEMENT_3D ( 'NONE', #220, #125, #525 ) ;
#338 = VERTEX_POINT ( 'NONE', #473 ) ;
#339 = ORIENTED_EDGE ( 'NONE', *, *, #150, .T. ) ;
#340 = EDGE_CURVE ( 'NONE', #914, #203, #1056, .T. ) ;
#341 = DIRECTION ( 'NONE',  ( 1.000000000000000000, -0.000000000000000000, 0.000000000000000000 ) ) ;
#342 = DIRECTION ( 'NONE',  ( -0.000000000000000000, 0.000000000000000000, 1.000000000000000000 ) ) ;
#343 = CARTESIAN_POINT ( 'NONE',  ( 5.730000000000000426, 10.76034806292791224, 0.2999999999999999889 ) ) ;
#344 = FACE_OUTER_BOUND ( 'NONE', #767, .T. ) ;
#345 = EDGE_LOOP ( 'NONE', ( #27, #1040, #180, #368 ) ) ;
#346 = VERTEX_POINT ( 'NONE', #966 ) ;
#347 = CIRCLE ( 'NONE', #322, 0.1000000000000000888 ) ;
#348 = DIRECTION ( 'NONE',  ( 0.000000000000000000, -0.000000000000000000, -1.000000000000000000 ) ) ;
#349 = CARTESIAN_POINT ( 'NONE',  ( -5.732272311883346738, 11.04262037481126058, 0.5999999999999999778 ) ) ;
#350 = VECTOR ( 'NONE', #365, 100.0000000000000000 ) ;
#351 = EDGE_CURVE ( 'NONE', #677, #1066, #161, .T. ) ;
#352 = FACE_BOUND ( 'NONE', #330, .T. ) ;
#353 = LINE ( 'NONE', #1057, #489 ) ;
#354 = ORIENTED_EDGE ( 'NONE', *, *, #878, .F. ) ;
#355 = ORIENTED_EDGE ( 'NONE', *, *, #1243, .T. ) ;
#356 = FACE_OUTER_BOUND ( 'NONE', #764, .T. ) ;
#357 = CARTESIAN_POINT ( 'NONE',  ( 6.167727688116653617, 10.93171190698623896, 0.5999999999999999778 ) ) ;
#358 = AXIS2_PLACEMENT_3D ( 'NONE', #649, #1231, #533 ) ;
#359 = DIRECTION ( 'NONE',  ( 1.443675383471039521E-15, -1.000000000000000000, 0.000000000000000000 ) ) ;
#360 = LINE ( 'NONE', #858, #260 ) ;
#361 = EDGE_CURVE ( 'NONE', #422, #1078, #13, .T. ) ;
#362 = ORIENTED_EDGE ( 'NONE', *, *, #775, .T. ) ;
#363 = EDGE_LOOP ( 'NONE', ( #947, #1085, #1011, #47 ) ) ;
#364 = FACE_OUTER_BOUND ( 'NONE', #1127, .T. ) ;
#365 = DIRECTION ( 'NONE',  ( 1.000000000000000000, 0.000000000000000000, 0.000000000000000000 ) ) ;
#366 = FACE_OUTER_BOUND ( 'NONE', #1079, .T. ) ;
#367 = VECTOR ( 'NONE', #951, 100.0000000000000142 ) ;
#368 = ORIENTED_EDGE ( 'NONE', *, *, #50, .T. ) ;
#369 = CC_DESIGN_PERSON_AND_ORGANIZATION_ASSIGNMENT ( #981, #470, ( #514 ) ) ;
#370 = ORIENTED_EDGE ( 'NONE', *, *, #277, .T. ) ;
#371 = CARTESIAN_POINT ( 'NONE',  ( -5.900000000000000355, 10.76034806292791224, 0.2999999999999999889 ) ) ;
#372 = AXIS2_PLACEMENT_3D ( 'NONE', #643, #1031, #749 ) ;
#373 = CIRCLE ( 'NONE', #513, 0.1700000000000000122 ) ;
#374 = CARTESIAN_POINT ( 'NONE',  ( 5.730000000000000426, 10.76034806292791224, 0.5999999999999999778 ) ) ;
#375 = DIRECTION ( 'NONE',  ( 1.000000000000000000, 0.000000000000000000, 0.000000000000000000 ) ) ;
#376 = VERTEX_POINT ( 'NONE', #857 ) ;
#377 = ORIENTED_EDGE ( 'NONE', *, *, #1077, .T. ) ;
#378 = APPROVAL_ROLE ( '' ) ;
#379 = ADVANCED_FACE ( 'NONE', ( #673 ), #770, .T. ) ;
#380 = DIRECTION ( 'NONE',  ( 1.000000000000000000, 0.000000000000000000, 0.000000000000000000 ) ) ;
#381 = LINE ( 'NONE', #846, #818 ) ;
#382 = ORIENTED_EDGE ( 'NONE', *, *, #699, .T. ) ;
#383 = ORIENTED_EDGE ( 'NONE', *, *, #499, .F. ) ;
#384 = ORIENTED_EDGE ( 'NONE', *, *, #126, .F. ) ;
#385 = VECTOR ( 'NONE', #728, 100.0000000000000000 ) ;
#386 = EDGE_CURVE ( 'NONE', #170, #438, #1157, .T. ) ;
#387 = APPROVAL_STATUS ( 'not_yet_approved' ) ;
#388 = LINE ( 'NONE', #251, #746 ) ;
#389 = DIRECTION ( 'NONE',  ( -0.000000000000000000, -0.000000000000000000, -1.000000000000000000 ) ) ;
#390 = EDGE_LOOP ( 'NONE', ( #122, #583 ) ) ;
#391 = VERTEX_POINT ( 'NONE', #155 ) ;
#392 = SHAPE_DEFINITION_REPRESENTATION ( #328, #86 ) ;
#393 = AXIS2_PLACEMENT_3D ( 'NONE', #313, #193, #610 ) ;
#394 = CARTESIAN_POINT ( 'NONE',  ( 6.102765294177611821, 8.328325784880620475, 0.2999999999999999889 ) ) ;
#395 = DIRECTION ( 'NONE',  ( 0.000000000000000000, 0.000000000000000000, 1.000000000000000000 ) ) ;
#396 = AXIS2_PLACEMENT_3D ( 'NONE', #445, #1117, #727 ) ;
#397 = APPROVAL_DATE_TIME ( #1196, #965 ) ;
#398 = DIRECTION ( 'NONE',  ( 0.9999999945844991744, 0.0001040720971753409237, 0.000000000000000000 ) ) ;
#399 = CARTESIAN_POINT ( 'NONE',  ( -5.532272311883346561, 8.733560568322646489, 0.2999999999999999889 ) ) ;
#400 = EDGE_CURVE ( 'NONE', #287, #677, #1248, .T. ) ;
#401 = COORDINATED_UNIVERSAL_TIME_OFFSET ( 5, 30, .AHEAD. ) ;
#402 = LINE ( 'NONE', #2, #1263 ) ;
#403 = LINE ( 'NONE', #106, #197 ) ;
#404 = EDGE_CURVE ( 'NONE', #683, #504, #849, .T. ) ;
#405 = VECTOR ( 'NONE', #886, 100.0000000000000000 ) ;
#406 = CARTESIAN_POINT ( 'NONE',  ( -5.730000000000000426, 10.76034806292791224, 0.2999999999999999889 ) ) ;
#407 = CARTESIAN_POINT ( 'NONE',  ( 2.399623939390415295, 6.943017792022942558, 0.2999999999999999889 ) ) ;
#408 = ORIENTED_EDGE ( 'NONE', *, *, #867, .F. ) ;
#409 = FACE_OUTER_BOUND ( 'NONE', #60, .T. ) ;
#410 = VECTOR ( 'NONE', #78, 99.99999999999998579 ) ;
#411 = EDGE_CURVE ( 'NONE', #75, #811, #864, .T. ) ;
#412 = CARTESIAN_POINT ( 'NONE',  ( -5.900000000000000355, 8.630348062927911457, 0.5999999999999999778 ) ) ;
#413 = CYLINDRICAL_SURFACE ( 'NONE', #48, 0.1000000000000000888 ) ;
#414 = LINE ( 'NONE', #900, #159 ) ;
#415 = CIRCLE ( 'NONE', #227, 0.1700000000000000122 ) ;
#416 = ORIENTED_EDGE ( 'NONE', *, *, #131, .T. ) ;
#417 = EDGE_CURVE ( 'NONE', #753, #899, #57, .T. ) ;
#418 = CARTESIAN_POINT ( 'NONE',  ( 0.7393266739737027748, 7.224999999999980105, 0.5999999999999999778 ) ) ;
#419 = DIRECTION ( 'NONE',  ( 1.000000000000000000, 0.000000000000000000, 0.000000000000000000 ) ) ;
#420 = ORIENTED_EDGE ( 'NONE', *, *, #782, .F. ) ;
#421 = CARTESIAN_POINT ( 'NONE',  ( -6.082272311883346383, 11.04262037481126058, 0.2999999999999999889 ) ) ;
#422 = VERTEX_POINT ( 'NONE', #374 ) ;
#423 = DIRECTION ( 'NONE',  ( 1.000000000000000000, 0.000000000000000000, 0.000000000000000000 ) ) ;
#424 = EDGE_LOOP ( 'NONE', ( #137, #1114, #355, #477 ) ) ;
#425 = VECTOR ( 'NONE', #189, 100.0000000000000000 ) ;
#426 = DIRECTION ( 'NONE',  ( -0.000000000000000000, -0.000000000000000000, 1.000000000000000000 ) ) ;
#427 = CARTESIAN_POINT ( 'NONE',  ( -6.182272311883346916, 0.000000000000000000, 0.5999999999999999778 ) ) ;
#428 = FACE_OUTER_BOUND ( 'NONE', #10, .T. ) ;
#429 = CARTESIAN_POINT ( 'NONE',  ( 6.067727688116653972, 11.03171190698623860, 0.2999999999999999889 ) ) ;
#430 = EDGE_CURVE ( 'NONE', #376, #819, #1185, .T. ) ;
#431 = VERTEX_POINT ( 'NONE', #1070 ) ;
#432 = VERTEX_POINT ( 'NONE', #574 ) ;
#433 = DIRECTION ( 'NONE',  ( 1.000000000000000000, 0.000000000000000000, 0.000000000000000000 ) ) ;
#434 = DIRECTION ( 'NONE',  ( 1.000000000000000000, 3.944660595570343850E-16, -0.000000000000000000 ) ) ;
#435 = FACE_BOUND ( 'NONE', #1199, .T. ) ;
#436 = ORIENTED_EDGE ( 'NONE', *, *, #304, .T. ) ;
#437 = EDGE_CURVE ( 'NONE', #223, #621, #312, .T. ) ;
#438 = VERTEX_POINT ( 'NONE', #685 ) ;
#439 = LINE ( 'NONE', #1163, #1270 ) ;
#440 = CARTESIAN_POINT ( 'NONE',  ( -3.988704546339663537, 8.280348062927911812, 0.2999999999999999889 ) ) ;
#441 = AXIS2_PLACEMENT_3D ( 'NONE', #298, #120, #609 ) ;
#442 = ORIENTED_EDGE ( 'NONE', *, *, #311, .T. ) ;
#443 = EDGE_CURVE ( 'NONE', #827, #819, #1083, .T. ) ;
#444 = VERTEX_POINT ( 'NONE', #1118 ) ;
#445 = CARTESIAN_POINT ( 'NONE',  ( -0.9093266739736218796, 7.225000000000020073, 0.5999999999999999778 ) ) ;
#446 = LINE ( 'NONE', #1232, #1200 ) ;
#447 = CARTESIAN_POINT ( 'NONE',  ( -6.070000000000000284, 8.630348062927911457, 0.2999999999999999889 ) ) ;
#448 = ORIENTED_EDGE ( 'NONE', *, *, #690, .T. ) ;
#449 = VERTEX_POINT ( 'NONE', #1030 ) ;
#450 = ADVANCED_FACE ( 'NONE', ( #134 ), #1023, .T. ) ;
#451 = CARTESIAN_POINT ( 'NONE',  ( 0.000000000000000000, 0.000000000000000000, 0.000000000000000000 ) ) ;
#452 = DIRECTION ( 'NONE',  ( 0.000000000000000000, 0.000000000000000000, 1.000000000000000000 ) ) ;
#453 = VECTOR ( 'NONE', #1266, 100.0000000000000000 ) ;
#454 = DIRECTION ( 'NONE',  ( 0.000000000000000000, 0.000000000000000000, 1.000000000000000000 ) ) ;
#455 = DIRECTION ( 'NONE',  ( 1.000000000000000000, 0.000000000000000000, 0.000000000000000000 ) ) ;
#456 = ORIENTED_EDGE ( 'NONE', *, *, #807, .T. ) ;
#457 = ORIENTED_EDGE ( 'NONE', *, *, #800, .F. ) ;
#458 = DIRECTION ( 'NONE',  ( 1.000000000000000000, 0.000000000000000000, 0.000000000000000000 ) ) ;
#459 = CC_DESIGN_PERSON_AND_ORGANIZATION_ASSIGNMENT ( #276, #870, ( #773 ) ) ;
#460 = CARTESIAN_POINT ( 'NONE',  ( 5.617727688116653795, 10.93171190698623896, 0.5999999999999999778 ) ) ;
#461 = CARTESIAN_POINT ( 'NONE',  ( 6.070000000000000284, 10.76034806292791224, 0.2999999999999999889 ) ) ;
#462 = VERTEX_POINT ( 'NONE', #24 ) ;
#463 = EDGE_LOOP ( 'NONE', ( #760, #828, #1183, #377 ) ) ;
#464 = DIRECTION ( 'NONE',  ( 0.000000000000000000, 0.000000000000000000, -1.000000000000000000 ) ) ;
#465 = CARTESIAN_POINT ( 'NONE',  ( -2.258879505620177586, 5.873086714612457016, 0.5999999999999999778 ) ) ;
#466 = CARTESIAN_POINT ( 'NONE',  ( -6.082272311883346383, 10.94262037481125915, 0.2999999999999999889 ) ) ;
#467 = AXIS2_PLACEMENT_3D ( 'NONE', #959, #644, #1150 ) ;
#468 = ORIENTED_EDGE ( 'NONE', *, *, #186, .T. ) ;
#469 = ORIENTED_EDGE ( 'NONE', *, *, #665, .F. ) ;
#470 = PERSON_AND_ORGANIZATION_ROLE ( 'creator' ) ;
#471 = VECTOR ( 'NONE', #1112, 100.0000000000000000 ) ;
#472 = AXIS2_PLACEMENT_3D ( 'NONE', #1116, #219, #1029 ) ;
#473 = CARTESIAN_POINT ( 'NONE',  ( -6.070000000000000284, 8.630348062927911457, 0.2999999999999999889 ) ) ;
#474 = DIRECTION ( 'NONE',  ( 0.000000000000000000, 0.000000000000000000, 1.000000000000000000 ) ) ;
#475 = ORIENTED_EDGE ( 'NONE', *, *, #1202, .F. ) ;
#476 = EDGE_CURVE ( 'NONE', #504, #523, #310, .T. ) ;
#477 = ORIENTED_EDGE ( 'NONE', *, *, #993, .T. ) ;
#478 = CYLINDRICAL_SURFACE ( 'NONE', #655, 0.1700000000000000122 ) ;
#479 = DIRECTION ( 'NONE',  ( 1.443675383471039521E-15, -1.000000000000000000, 0.000000000000000000 ) ) ;
#480 = CARTESIAN_POINT ( 'NONE',  ( 5.617727688116653795, 8.971230929720350744, 0.5999999999999999778 ) ) ;
#481 = ORIENTED_EDGE ( 'NONE', *, *, #584, .F. ) ;
#482 = ORIENTED_EDGE ( 'NONE', *, *, #1180, .T. ) ;
#483 = ORIENTED_EDGE ( 'NONE', *, *, #765, .T. ) ;
#484 = ADVANCED_FACE ( 'NONE', ( #1216 ), #413, .T. ) ;
#485 = COORDINATED_UNIVERSAL_TIME_OFFSET ( 5, 30, .AHEAD. ) ;
#486 = DIRECTION ( 'NONE',  ( 0.000000000000000000, 1.000000000000000000, -0.000000000000000000 ) ) ;
#487 = CYLINDRICAL_SURFACE ( 'NONE', #633, 0.1700000000000003730 ) ;
#488 = FACE_BOUND ( 'NONE', #1256, .T. ) ;
#489 = VECTOR ( 'NONE', #375, 100.0000000000000000 ) ;
#490 = ADVANCED_FACE ( 'NONE', ( #127 ), #317, .F. ) ;
#491 = AXIS2_PLACEMENT_3D ( 'NONE', #891, #887, #1103 ) ;
#492 = CARTESIAN_POINT ( 'NONE',  ( -5.900000000000000355, 10.76034806292791224, 0.2999999999999999889 ) ) ;
#493 = AXIS2_PLACEMENT_3D ( 'NONE', #707, #1222, #524 ) ;
#494 = EDGE_LOOP ( 'NONE', ( #917, #922, #516, #1 ) ) ;
#495 = APPROVAL_PERSON_ORGANIZATION ( #698, #286, #194 ) ;
#496 = DIRECTION ( 'NONE',  ( -3.944660595570344343E-16, 1.000000000000000000, 0.000000000000000000 ) ) ;
#497 = EDGE_CURVE ( 'NONE', #1218, #462, #1108, .T. ) ;
#498 = CARTESIAN_POINT ( 'NONE',  ( 6.070000000000000284, 8.630348062927913233, 0.5999999999999999778 ) ) ;
#499 = EDGE_CURVE ( 'NONE', #431, #1054, #221, .T. ) ;
#500 = ORIENTED_EDGE ( 'NONE', *, *, #430, .F. ) ;
#501 = CIRCLE ( 'NONE', #1235, 0.1000000000000000888 ) ;
#502 = DIRECTION ( 'NONE',  ( 1.000000000000000000, 0.000000000000000000, 0.000000000000000000 ) ) ;
#503 = DIRECTION ( 'NONE',  ( -0.000000000000000000, 0.000000000000000000, 1.000000000000000000 ) ) ;
#504 = VERTEX_POINT ( 'NONE', #803 ) ;
#505 = CARTESIAN_POINT ( 'NONE',  ( -6.070000000000000284, 10.76034806292791224, 0.2999999999999999889 ) ) ;
#506 = ORIENTED_EDGE ( 'NONE', *, *, #1052, .F. ) ;
#507 = EDGE_CURVE ( 'NONE', #1233, #1046, #1008, .T. ) ;
#508 = AXIS2_PLACEMENT_3D ( 'NONE', #1258, #664, #871 ) ;
#509 = ADVANCED_FACE ( 'NONE', ( #629 ), #712, .F. ) ;
#510 = LINE ( 'NONE', #1129, #97 ) ;
#511 = CARTESIAN_POINT ( 'NONE',  ( -6.082272311883345495, 8.421071038315055546, 0.2999999999999999889 ) ) ;
#512 = CYLINDRICAL_SURFACE ( 'NONE', #1268, 0.1699999999999994849 ) ;
#513 = AXIS2_PLACEMENT_3D ( 'NONE', #167, #1257, #835 ) ;
#514 = PRODUCT_DEFINITION ( 'UNKNOWN', '', #773, #144 ) ;
#515 = AXIS2_PLACEMENT_3D ( 'NONE', #1142, #650, #757 ) ;
#516 = ORIENTED_EDGE ( 'NONE', *, *, #72, .T. ) ;
#517 = PRODUCT ( 'IR Bracket testprint', 'IR Bracket testprint', '', ( #563 ) ) ;
#518 = DIRECTION ( 'NONE',  ( -0.000000000000000000, 0.000000000000000000, 1.000000000000000000 ) ) ;
#519 = DIRECTION ( 'NONE',  ( 1.000000000000000000, 0.000000000000000000, 0.000000000000000000 ) ) ;
#520 = ORIENTED_EDGE ( 'NONE', *, *, #1164, .F. ) ;
#521 = DIRECTION ( 'NONE',  ( 1.000000000000000000, 0.000000000000000000, 0.000000000000000000 ) ) ;
#522 = CIRCLE ( 'NONE', #1146, 0.1000000000000000888 ) ;
#523 = VERTEX_POINT ( 'NONE', #904 ) ;
#524 = DIRECTION ( 'NONE',  ( 1.000000000000000000, 0.000000000000000000, 0.000000000000000000 ) ) ;
#525 = DIRECTION ( 'NONE',  ( 1.000000000000000000, 0.000000000000000000, 0.000000000000000000 ) ) ;
#526 = CARTESIAN_POINT ( 'NONE',  ( -5.730000000000000426, 10.76034806292791224, 0.5999999999999999778 ) ) ;
#527 = ORIENTED_EDGE ( 'NONE', *, *, #841, .T. ) ;
#528 = LINE ( 'NONE', #33, #1220 ) ;
#529 = ORIENTED_EDGE ( 'NONE', *, *, #411, .T. ) ;
#530 = VERTEX_POINT ( 'NONE', #526 ) ;
#531 = AXIS2_PLACEMENT_3D ( 'NONE', #890, #195, #1179 ) ;
#532 = CARTESIAN_POINT ( 'NONE',  ( -1.983872316220359977, 5.303195863078978611, 0.2999999999999999889 ) ) ;
#533 = DIRECTION ( 'NONE',  ( 1.000000000000000000, 0.000000000000000000, 0.000000000000000000 ) ) ;
#534 = CARTESIAN_POINT ( 'NONE',  ( 5.517727688116654150, 8.971230929720350744, 0.2999999999999999889 ) ) ;
#535 = EDGE_CURVE ( 'NONE', #753, #566, #501, .T. ) ;
#536 = DIRECTION ( 'NONE',  ( 0.000000000000000000, 1.000000000000000000, -0.000000000000000000 ) ) ;
#537 = ORIENTED_EDGE ( 'NONE', *, *, #1144, .F. ) ;
#538 = VECTOR ( 'NONE', #1021, 100.0000000000000000 ) ;
#539 = VERTEX_POINT ( 'NONE', #30 ) ;
#540 = CARTESIAN_POINT ( 'NONE',  ( -5.632272311883346205, 8.733560568322646489, 0.2999999999999999889 ) ) ;
#541 = FACE_OUTER_BOUND ( 'NONE', #282, .T. ) ;
#542 = APPROVAL ( #792, 'UNSPECIFIED' ) ;
#543 = ORIENTED_EDGE ( 'NONE', *, *, #1280, .F. ) ;
#544 = EDGE_CURVE ( 'NONE', #1046, #346, #798, .T. ) ;
#545 = ORIENTED_EDGE ( 'NONE', *, *, #765, .F. ) ;
#546 = DIRECTION ( 'NONE',  ( -0.000000000000000000, 0.000000000000000000, 1.000000000000000000 ) ) ;
#547 =( LENGTH_UNIT ( ) NAMED_UNIT ( * ) SI_UNIT ( .CENTI., .METRE. ) );
#548 = FACE_OUTER_BOUND ( 'NONE', #232, .T. ) ;
#549 = CARTESIAN_POINT ( 'NONE',  ( 5.900000000000000355, 8.630348062927913233, 0.2999999999999999889 ) ) ;
#550 = CARTESIAN_POINT ( 'NONE',  ( -1.983872316220359977, 5.303195863078978611, 0.2999999999999999889 ) ) ;
#551 = VECTOR ( 'NONE', #813, 100.0000000000000000 ) ;
#552 = ORIENTED_EDGE ( 'NONE', *, *, #553, .F. ) ;
#553 = EDGE_CURVE ( 'NONE', #1254, #1073, #7, .T. ) ;
#554 = ORIENTED_EDGE ( 'NONE', *, *, #237, .F. ) ;
#555 = ADVANCED_FACE ( 'NONE', ( #428 ), #306, .F. ) ;
#556 = DIRECTION ( 'NONE',  ( 0.000000000000000000, 1.000000000000000000, -0.000000000000000000 ) ) ;
#557 = DIRECTION ( 'NONE',  ( 0.9748040140364172546, -0.2230630722878367278, 0.000000000000000000 ) ) ;
#558 = CARTESIAN_POINT ( 'NONE',  ( 1.750141231019527011, 6.942950198995038846, 0.2999999999999999889 ) ) ;
#559 = ORIENTED_EDGE ( 'NONE', *, *, #544, .F. ) ;
#560 = CIRCLE ( 'NONE', #717, 0.1000000000000000888 ) ;
#561 = EDGE_LOOP ( 'NONE', ( #436, #457, #209, #1140 ) ) ;
#562 = EDGE_CURVE ( 'NONE', #254, #338, #415, .T. ) ;
#563 = MECHANICAL_CONTEXT ( 'NONE', #1001, 'mechanical' ) ;
#564 = DIRECTION ( 'NONE',  ( 0.000000000000000000, -0.000000000000000000, -1.000000000000000000 ) ) ;
#565 = CYLINDRICAL_SURFACE ( 'NONE', #467, 0.1000000000000007827 ) ;
#566 = VERTEX_POINT ( 'NONE', #708 ) ;
#567 = ORIENTED_EDGE ( 'NONE', *, *, #499, .T. ) ;
#568 = ORIENTED_EDGE ( 'NONE', *, *, #1128, .T. ) ;
#569 = LINE ( 'NONE', #465, #1139 ) ;
#570 = CARTESIAN_POINT ( 'NONE',  ( -4.011010853568447665, 8.282867661524271341, 0.2999999999999999889 ) ) ;
#571 = ORIENTED_EDGE ( 'NONE', *, *, #665, .T. ) ;
#572 = ORIENTED_EDGE ( 'NONE', *, *, #977, .T. ) ;
#573 = CARTESIAN_POINT ( 'NONE',  ( -5.532272311883346561, 8.733560568322646489, 0.2999999999999999889 ) ) ;
#574 = CARTESIAN_POINT ( 'NONE',  ( 6.070000000000000284, 8.630348062927913233, 0.2999999999999999889 ) ) ;
#575 = CARTESIAN_POINT ( 'NONE',  ( -3.988704546339663537, 8.280348062927911812, 0.2999999999999999889 ) ) ;
#576 = EDGE_CURVE ( 'NONE', #1066, #654, #522, .T. ) ;
#577 = ORIENTED_EDGE ( 'NONE', *, *, #859, .T. ) ;
#578 = ORIENTED_EDGE ( 'NONE', *, *, #939, .T. ) ;
#579 = PERSON_AND_ORGANIZATION_ROLE ( 'classification_officer' ) ;
#580 = DIRECTION ( 'NONE',  ( 0.000000000000000000, -0.000000000000000000, -1.000000000000000000 ) ) ;
#581 = DIRECTION ( 'NONE',  ( -0.000000000000000000, -0.000000000000000000, -1.000000000000000000 ) ) ;
#582 = VECTOR ( 'NONE', #974, 99.99999999999998579 ) ;
#583 = ORIENTED_EDGE ( 'NONE', *, *, #1014, .F. ) ;
#584 = EDGE_CURVE ( 'NONE', #163, #432, #21, .T. ) ;
#585 = ORIENTED_EDGE ( 'NONE', *, *, #946, .T. ) ;
#586 = ADVANCED_FACE ( 'NONE', ( #344 ), #743, .F. ) ;
#587 = CALENDAR_DATE ( 2026, 29, 8 ) ;
#588 = CARTESIAN_POINT ( 'NONE',  ( -0.0007225484280981583169, 6.942767982928656600, -0.4000000000000000222 ) ) ;
#589 = FACE_BOUND ( 'NONE', #263, .T. ) ;
#590 = ADVANCED_FACE ( 'NONE', ( #250 ), #229, .F. ) ;
#591 = PERSON_AND_ORGANIZATION ( #1204, #905 ) ;
#592 = EDGE_CURVE ( 'NONE', #65, #1138, #916, .T. ) ;
#593 = CARTESIAN_POINT ( 'NONE',  ( -6.082272311883345495, 8.421071038315055546, 0.5999999999999999778 ) ) ;
#594 = DIRECTION ( 'NONE',  ( 0.000000000000000000, -0.000000000000000000, 1.000000000000000000 ) ) ;
#595 = AXIS2_PLACEMENT_3D ( 'NONE', #492, #102, #1287 ) ;
#596 = VERTEX_POINT ( 'NONE', #619 ) ;
#597 = CC_DESIGN_PERSON_AND_ORGANIZATION_ASSIGNMENT ( #796, #781, ( #517 ) ) ;
#598 = VECTOR ( 'NONE', #486, 100.0000000000000000 ) ;
#599 = DIRECTION ( 'NONE',  ( -1.000000000000000000, 0.000000000000000000, 0.000000000000000000 ) ) ;
#600 = AXIS2_PLACEMENT_3D ( 'NONE', #1192, #293, #502 ) ;
#601 = LINE ( 'NONE', #210, #471 ) ;
#602 = LOCAL_TIME ( 17, 25, 22.00000000000000000, #199 ) ;
#603 = DIRECTION ( 'NONE',  ( 0.9999999945844991744, 0.0001040720971753409237, 0.000000000000000000 ) ) ;
#604 = DIRECTION ( 'NONE',  ( 0.3589790793088694087, -0.9333456062030595080, 0.000000000000000000 ) ) ;
#605 = LINE ( 'NONE', #824, #1159 ) ;
#606 = EDGE_CURVE ( 'NONE', #914, #152, #1087, .T. ) ;
#607 = AXIS2_PLACEMENT_3D ( 'NONE', #1172, #1165, #271 ) ;
#608 = DIRECTION ( 'NONE',  ( 0.000000000000000000, 0.000000000000000000, -1.000000000000000000 ) ) ;
#609 = DIRECTION ( 'NONE',  ( 1.000000000000000000, 0.000000000000000000, 0.000000000000000000 ) ) ;
#610 = DIRECTION ( 'NONE',  ( 1.000000000000000000, 0.000000000000000000, 0.000000000000000000 ) ) ;
#611 = EDGE_CURVE ( 'NONE', #753, #539, #1244, .T. ) ;
#612 = CARTESIAN_POINT ( 'NONE',  ( 1.079326673973703521, 7.224999999999980105, 0.2999999999999999889 ) ) ;
#613 = DIRECTION ( 'NONE',  ( 0.9366091053111260667, 0.3503760606095854269, 0.000000000000000000 ) ) ;
#614 = VECTOR ( 'NONE', #630, 100.0000000000000000 ) ;
#615 = ORIENTED_EDGE ( 'NONE', *, *, #723, .F. ) ;
#616 = DIRECTION ( 'NONE',  ( 1.000000000000000000, 0.000000000000000000, 0.000000000000000000 ) ) ;
#617 = VERTEX_POINT ( 'NONE', #349 ) ;
#618 = CARTESIAN_POINT ( 'NONE',  ( -6.070000000000000284, 10.76034806292791224, 0.5999999999999999778 ) ) ;
#619 = CARTESIAN_POINT ( 'NONE',  ( -6.070000000000000284, 8.630348062927911457, 0.5999999999999999778 ) ) ;
#620 = DIRECTION ( 'NONE',  ( -0.000000000000000000, -0.000000000000000000, -1.000000000000000000 ) ) ;
#621 = VERTEX_POINT ( 'NONE', #133 ) ;
#622 = DIRECTION ( 'NONE',  ( -0.000000000000000000, 0.000000000000000000, 1.000000000000000000 ) ) ;
#623 = ORIENTED_EDGE ( 'NONE', *, *, #1280, .T. ) ;
#624 = DIRECTION ( 'NONE',  ( 0.000000000000000000, 0.000000000000000000, 1.000000000000000000 ) ) ;
#625 = ORIENTED_EDGE ( 'NONE', *, *, #1014, .T. ) ;
#626 = ADVANCED_FACE ( 'NONE', ( #928 ), #642, .T. ) ;
#627 = LINE ( 'NONE', #316, #1247 ) ;
#628 = FACE_OUTER_BOUND ( 'NONE', #494, .T. ) ;
#629 = FACE_OUTER_BOUND ( 'NONE', #363, .T. ) ;
#630 = DIRECTION ( 'NONE',  ( 0.000000000000000000, 0.000000000000000000, 1.000000000000000000 ) ) ;
#631 = EDGE_LOOP ( 'NONE', ( #537, #303, #1091, #1184 ) ) ;
#632 = EDGE_LOOP ( 'NONE', ( #675, #1067, #1201, #961 ) ) ;
#633 = AXIS2_PLACEMENT_3D ( 'NONE', #1095, #389, #788 ) ;
#634 = CC_DESIGN_DATE_AND_TIME_ASSIGNMENT ( #877, #1274, ( #19 ) ) ;
#635 = CARTESIAN_POINT ( 'NONE',  ( -0.9093266739736218796, 7.225000000000020073, 0.2999999999999999889 ) ) ;
#636 = DIRECTION ( 'NONE',  ( -1.000000000000000000, 0.000000000000000000, 0.000000000000000000 ) ) ;
#637 = CARTESIAN_POINT ( 'NONE',  ( 3.981432234456317776, 8.280348062927913588, 0.2999999999999999889 ) ) ;
#638 = CIRCLE ( 'NONE', #979, 0.1700000000000000122 ) ;
#639 = ORIENTED_EDGE ( 'NONE', *, *, #834, .T. ) ;
#640 = VECTOR ( 'NONE', #359, 100.0000000000000000 ) ;
#641 = CARTESIAN_POINT ( 'NONE',  ( 6.067727688116653972, 10.93171190698623896, 0.2999999999999999889 ) ) ;
#642 = PLANE ( 'NONE',  #725 ) ;
#643 = CARTESIAN_POINT ( 'NONE',  ( -0.3999999999999988565, 8.280348062927913588, -0.4000000000000000222 ) ) ;
#644 = DIRECTION ( 'NONE',  ( 0.000000000000000000, 0.000000000000000000, 1.000000000000000000 ) ) ;
#645 = EDGE_CURVE ( 'NONE', #1147, #677, #1043, .T. ) ;
#646 = EDGE_CURVE ( 'NONE', #163, #1138, #325, .T. ) ;
#647 = ORIENTED_EDGE ( 'NONE', *, *, #946, .F. ) ;
#648 = CARTESIAN_POINT ( 'NONE',  ( 2.399623939390417959, 6.943017792022942558, 0.5999999999999999778 ) ) ;
#649 = CARTESIAN_POINT ( 'NONE',  ( 5.900000000000000355, 8.630348062927913233, 0.5999999999999999778 ) ) ;
#650 = DIRECTION ( 'NONE',  ( 0.000000000000000000, 0.000000000000000000, 1.000000000000000000 ) ) ;
#651 = CARTESIAN_POINT ( 'NONE',  ( 4.017330142387205427, 8.287013502307607027, 0.2999999999999999889 ) ) ;
#652 = ORIENTED_EDGE ( 'NONE', *, *, #417, .T. ) ;
#653 = EDGE_CURVE ( 'NONE', #596, #444, #327, .T. ) ;
#654 = VERTEX_POINT ( 'NONE', #357 ) ;
#655 = AXIS2_PLACEMENT_3D ( 'NONE', #109, #624, #423 ) ;
#656 = DIRECTION ( 'NONE',  ( 1.000000000000000000, 0.000000000000000000, 0.000000000000000000 ) ) ;
#657 = CARTESIAN_POINT ( 'NONE',  ( 5.717727688116654328, 10.93171190698623896, 0.5999999999999999778 ) ) ;
#658 = LINE ( 'NONE', #447, #5 ) ;
#659 = ORIENTED_EDGE ( 'NONE', *, *, #841, .F. ) ;
#660 = AXIS2_PLACEMENT_3D ( 'NONE', #790, #594, #895 ) ;
#661 = ORIENTED_EDGE ( 'NONE', *, *, #1113, .T. ) ;
#662 = AXIS2_PLACEMENT_3D ( 'NONE', #850, #843, #173 ) ;
#663 = CARTESIAN_POINT ( 'NONE',  ( 1.079326673973703521, 7.224999999999980105, 0.5999999999999999778 ) ) ;
#664 = DIRECTION ( 'NONE',  ( 0.000000000000000000, 0.000000000000000000, 1.000000000000000000 ) ) ;
#665 = EDGE_CURVE ( 'NONE', #4, #431, #956, .T. ) ;
#666 = CARTESIAN_POINT ( 'NONE',  ( 5.553625596047541357, 8.877896369100044538, 0.2999999999999999889 ) ) ;
#667 = LINE ( 'NONE', #79, #761 ) ;
#668 = EDGE_LOOP ( 'NONE', ( #1278, #1167, #567, #854 ) ) ;
#669 = ORIENTED_EDGE ( 'NONE', *, *, #1271, .T. ) ;
#670 = ADVANCED_FACE ( 'NONE', ( #548 ), #1123, .F. ) ;
#671 = CYLINDRICAL_SURFACE ( 'NONE', #703, 0.1000000000000000888 ) ;
#672 = CARTESIAN_POINT ( 'NONE',  ( 6.167727688116666052, 8.904196635286774235E-15, 0.2999999999999999889 ) ) ;
#673 = FACE_OUTER_BOUND ( 'NONE', #909, .T. ) ;
#674 = DIRECTION ( 'NONE',  ( 0.000000000000000000, 0.000000000000000000, 1.000000000000000000 ) ) ;
#675 = ORIENTED_EDGE ( 'NONE', *, *, #1007, .T. ) ;
#676 = VECTOR ( 'NONE', #702, 100.0000000000000000 ) ;
#677 = VERTEX_POINT ( 'NONE', #1022 ) ;
#678 = ORIENTED_EDGE ( 'NONE', *, *, #1061, .T. ) ;
#679 = DATE_AND_TIME ( #1186, #602 ) ;
#680 = CARTESIAN_POINT ( 'NONE',  ( 1.601473350801780215, 6.998570559987092210, 0.5999999999999999778 ) ) ;
#681 = LINE ( 'NONE', #183, #1291 ) ;
#682 = AXIS2_PLACEMENT_3D ( 'NONE', #550, #1277, #252 ) ;
#683 = VERTEX_POINT ( 'NONE', #844 ) ;
#684 = CIRCLE ( 'NONE', #472, 0.1700000000000003730 ) ;
#685 = CARTESIAN_POINT ( 'NONE',  ( -6.082272311883346383, 11.04262037481126058, 0.5999999999999999778 ) ) ;
#686 = DIRECTION ( 'NONE',  ( 0.000000000000000000, 0.000000000000000000, 1.000000000000000000 ) ) ;
#687 = AXIS2_PLACEMENT_3D ( 'NONE', #175, #580, #762 ) ;
#688 = ORIENTED_EDGE ( 'NONE', *, *, #775, .F. ) ;
#689 = ADVANCED_FACE ( 'NONE', ( #628 ), #747, .F. ) ;
#690 = EDGE_CURVE ( 'NONE', #539, #1147, #795, .T. ) ;
#691 = COORDINATED_UNIVERSAL_TIME_OFFSET ( 5, 30, .AHEAD. ) ;
#692 = CARTESIAN_POINT ( 'NONE',  ( 5.900000000000000355, 10.76034806292791224, 0.2999999999999999889 ) ) ;
#693 = FACE_OUTER_BOUND ( 'NONE', #668, .T. ) ;
#694 = CC_DESIGN_PERSON_AND_ORGANIZATION_ASSIGNMENT ( #1285, #1088, ( #773 ) ) ;
#695 = LINE ( 'NONE', #95, #1053 ) ;
#696 = FACE_BOUND ( 'NONE', #868, .T. ) ;
#697 = CIRCLE ( 'NONE', #157, 0.1000000000000007827 ) ;
#698 = PERSON_AND_ORGANIZATION ( #1204, #905 ) ;
#699 = EDGE_CURVE ( 'NONE', #214, #248, #920, .T. ) ;
#700 = DIRECTION ( 'NONE',  ( 0.000000000000000000, -0.000000000000000000, -1.000000000000000000 ) ) ;
#701 = ADVANCED_FACE ( 'NONE', ( #756 ), #85, .F. ) ;
#702 = DIRECTION ( 'NONE',  ( -0.000000000000000000, -0.000000000000000000, -1.000000000000000000 ) ) ;
#703 = AXIS2_PLACEMENT_3D ( 'NONE', #641, #1134, #1062 ) ;
#704 = DIRECTION ( 'NONE',  ( -1.000000000000000000, 0.000000000000000000, 0.000000000000000000 ) ) ;
#705 = ADVANCED_FACE ( 'NONE', ( #856 ), #77, .T. ) ;
#706 = LOCAL_TIME ( 17, 25, 22.00000000000000000, #884 ) ;
#707 = CARTESIAN_POINT ( 'NONE',  ( -5.900000000000000355, 8.630348062927911457, 0.2999999999999999889 ) ) ;
#708 = CARTESIAN_POINT ( 'NONE',  ( 5.553625596047541357, 8.877896369100044538, 0.2999999999999999889 ) ) ;
#709 = ORIENTED_EDGE ( 'NONE', *, *, #1227, .T. ) ;
#710 = DIRECTION ( 'NONE',  ( 1.000000000000000000, -0.000000000000000000, 0.000000000000000000 ) ) ;
#711 = DIRECTION ( 'NONE',  ( -1.000000000000000000, 0.000000000000000000, 0.000000000000000000 ) ) ;
#712 = CYLINDRICAL_SURFACE ( 'NONE', #441, 0.1000000000000000888 ) ;
#713 = CARTESIAN_POINT ( 'NONE',  ( -5.554578619112132465, 8.636080166919004597, 0.2999999999999999889 ) ) ;
#714 = AXIS2_PLACEMENT_3D ( 'NONE', #90, #880, #599 ) ;
#715 = ORIENTED_EDGE ( 'NONE', *, *, #893, .F. ) ;
#716 = CARTESIAN_POINT ( 'NONE',  ( -2.400820698071053805, 6.942518199679442503, 0.2999999999999999889 ) ) ;
#717 = AXIS2_PLACEMENT_3D ( 'NONE', #742, #1135, #521 ) ;
#718 = ORIENTED_EDGE ( 'NONE', *, *, #1271, .F. ) ;
#719 = DIRECTION ( 'NONE',  ( -0.000000000000000000, 0.000000000000000000, 1.000000000000000000 ) ) ;
#720 = CIRCLE ( 'NONE', #600, 0.1700000000000000122 ) ;
#721 = EDGE_LOOP ( 'NONE', ( #678, #774 ) ) ;
#722 = ADVANCED_FACE ( 'NONE', ( #1275 ), #478, .F. ) ;
#723 = EDGE_CURVE ( 'NONE', #1078, #422, #1153, .T. ) ;
#724 = ORIENTED_EDGE ( 'NONE', *, *, #1028, .T. ) ;
#725 = AXIS2_PLACEMENT_3D ( 'NONE', #140, #434, #55 ) ;
#726 = PLANE ( 'NONE',  #995 ) ;
#727 = DIRECTION ( 'NONE',  ( -1.000000000000000000, 0.000000000000000000, 0.000000000000000000 ) ) ;
#728 = DIRECTION ( 'NONE',  ( -0.000000000000000000, -0.000000000000000000, -1.000000000000000000 ) ) ;
#729 = CARTESIAN_POINT ( 'NONE',  ( 0.9093266739737031479, 7.224999999999980105, 0.8500000000000000888 ) ) ;
#730 = ORIENTED_EDGE ( 'NONE', *, *, #606, .F. ) ;
#731 = CC_DESIGN_PERSON_AND_ORGANIZATION_ASSIGNMENT ( #591, #579, ( #19 ) ) ;
#732 = VERTEX_POINT ( 'NONE', #612 ) ;
#733 = LINE ( 'NONE', #309, #1059 ) ;
#734 = CARTESIAN_POINT ( 'NONE',  ( 5.717727688116654328, 11.03171190698623860, 0.2999999999999999889 ) ) ;
#735 = CARTESIAN_POINT ( 'NONE',  ( -4.011010853568447665, 8.282867661524271341, 0.5999999999999999778 ) ) ;
#736 = ORIENTED_EDGE ( 'NONE', *, *, #437, .T. ) ;
#737 = ORIENTED_EDGE ( 'NONE', *, *, #699, .F. ) ;
#738 = VECTOR ( 'NONE', #1166, 100.0000000000000142 ) ;
#739 = ADVANCED_FACE ( 'NONE', ( #1143 ), #565, .T. ) ;
#740 = CARTESIAN_POINT ( 'NONE',  ( 6.102765294177611821, 8.328325784880620475, 0.2999999999999999889 ) ) ;
#741 = DIRECTION ( 'NONE',  ( 1.000000000000000000, 0.000000000000000000, 0.000000000000000000 ) ) ;
#742 = CARTESIAN_POINT ( 'NONE',  ( 6.067727688116653972, 10.93171190698623896, 0.2999999999999999889 ) ) ;
#743 = CYLINDRICAL_SURFACE ( 'NONE', #754, 0.1699999999999994849 ) ;
#744 = CIRCLE ( 'NONE', #1080, 0.1700000000000003730 ) ;
#745 = ORIENTED_EDGE ( 'NONE', *, *, #584, .T. ) ;
#746 = VECTOR ( 'NONE', #479, 100.0000000000000000 ) ;
#747 = CYLINDRICAL_SURFACE ( 'NONE', #968, 0.1700000000000000122 ) ;
#748 = ADVANCED_FACE ( 'NONE', ( #366 ), #148, .T. ) ;
#749 = DIRECTION ( 'NONE',  ( 0.000000000000000000, 0.000000000000000000, -1.000000000000000000 ) ) ;
#750 = CARTESIAN_POINT ( 'NONE',  ( 1.079326673973703521, 7.224999999999980105, 0.8500000000000000888 ) ) ;
#751 = ORIENTED_EDGE ( 'NONE', *, *, #242, .T. ) ;
#752 = APPROVAL_PERSON_ORGANIZATION ( #283, #542, #1292 ) ;
#753 = VERTEX_POINT ( 'NONE', #64 ) ;
#754 = AXIS2_PLACEMENT_3D ( 'NONE', #839, #1137, #636 ) ;
#755 = CARTESIAN_POINT ( 'NONE',  ( -6.182272311883346916, 0.000000000000000000, 0.2999999999999999889 ) ) ;
#756 = FACE_OUTER_BOUND ( 'NONE', #833, .T. ) ;
#757 = DIRECTION ( 'NONE',  ( 1.000000000000000000, 0.000000000000000000, 0.000000000000000000 ) ) ;
#758 = CYLINDRICAL_SURFACE ( 'NONE', #925, 0.1700000000000000122 ) ;
#759 = ORIENTED_EDGE ( 'NONE', *, *, #126, .T. ) ;
#760 = ORIENTED_EDGE ( 'NONE', *, *, #400, .T. ) ;
#761 = VECTOR ( 'NONE', #1064, 100.0000000000000000 ) ;
#762 = DIRECTION ( 'NONE',  ( 1.000000000000000000, 0.000000000000000000, 0.000000000000000000 ) ) ;
#763 = DIRECTION ( 'NONE',  ( 0.000000000000000000, 0.000000000000000000, 1.000000000000000000 ) ) ;
#764 = EDGE_LOOP ( 'NONE', ( #25, #969, #554, #1145 ) ) ;
#765 = EDGE_CURVE ( 'NONE', #338, #596, #658, .T. ) ;
#766 = CIRCLE ( 'NONE', #1097, 0.1700000000000000122 ) ;
#767 = EDGE_LOOP ( 'NONE', ( #469, #724, #339, #383 ) ) ;
#768 = VECTOR ( 'NONE', #613, 100.0000000000000000 ) ;
#769 = DIRECTION ( 'NONE',  ( -0.000000000000000000, 0.000000000000000000, 1.000000000000000000 ) ) ;
#770 = CYLINDRICAL_SURFACE ( 'NONE', #515, 0.1000000000000000888 ) ;
#771 = LINE ( 'NONE', #1253, #738 ) ;
#772 = ORIENTED_EDGE ( 'NONE', *, *, #825, .T. ) ;
#773 = PRODUCT_DEFINITION_FORMATION_WITH_SPECIFIED_SOURCE ( 'ANY', '', #517, .NOT_KNOWN. ) ;
#774 = ORIENTED_EDGE ( 'NONE', *, *, #507, .T. ) ;
#775 = EDGE_CURVE ( 'NONE', #523, #170, #110, .T. ) ;
#776 = EDGE_CURVE ( 'NONE', #1147, #158, #381, .T. ) ;
#777 = DIRECTION ( 'NONE',  ( -0.000000000000000000, 0.000000000000000000, 1.000000000000000000 ) ) ;
#778 = CARTESIAN_POINT ( 'NONE',  ( 0.000000000000000000, 11.03171190698623860, 0.2999999999999999889 ) ) ;
#779 = ORIENTED_EDGE ( 'NONE', *, *, #333, .T. ) ;
#780 = ORIENTED_EDGE ( 'NONE', *, *, #200, .T. ) ;
#781 = PERSON_AND_ORGANIZATION_ROLE ( 'design_owner' ) ;
#782 = EDGE_CURVE ( 'NONE', #143, #376, #1246, .T. ) ;
#783 = CARTESIAN_POINT ( 'NONE',  ( 4.017330142387205427, 8.287013502307607027, 0.2999999999999999889 ) ) ;
#784 = LINE ( 'NONE', #1076, #425 ) ;
#785 = ORIENTED_EDGE ( 'NONE', *, *, #400, .F. ) ;
#786 = ORIENTED_EDGE ( 'NONE', *, *, #1113, .F. ) ;
#787 = VECTOR ( 'NONE', #845, 100.0000000000000000 ) ;
#788 = DIRECTION ( 'NONE',  ( -1.000000000000000000, 0.000000000000000000, 0.000000000000000000 ) ) ;
#789 = ADVANCED_FACE ( 'NONE', ( #245 ), #758, .F. ) ;
#790 = CARTESIAN_POINT ( 'NONE',  ( 1.750000000000000222, 8.300000000000002487, 0.2999999999999999889 ) ) ;
#791 = AXIS2_PLACEMENT_3D ( 'NONE', #1037, #342, #741 ) ;
#792 = APPROVAL_STATUS ( 'not_yet_approved' ) ;
#793 = DIRECTION ( 'NONE',  ( 0.000000000000000000, 0.000000000000000000, 1.000000000000000000 ) ) ;
#794 = CARTESIAN_POINT ( 'NONE',  ( 5.617727688116653795, 0.000000000000000000, 0.2999999999999999889 ) ) ;
#795 = CIRCLE ( 'NONE', #337, 0.1000000000000000888 ) ;
#796 = PERSON_AND_ORGANIZATION ( #1204, #905 ) ;
#797 = PLANE ( 'NONE',  #178 ) ;
#798 = LINE ( 'NONE', #1198, #676 ) ;
#799 = FACE_BOUND ( 'NONE', #1026, .T. ) ;
#800 = EDGE_CURVE ( 'NONE', #225, #617, #667, .T. ) ;
#801 = CIRCLE ( 'NONE', #36, 0.1000000000000000888 ) ;
#802 = CARTESIAN_POINT ( 'NONE',  ( 2.399623939390417959, 6.943017792022942558, 0.2999999999999999889 ) ) ;
#803 = CARTESIAN_POINT ( 'NONE',  ( -6.182272311883345139, 8.421071038315055546, 0.2999999999999999889 ) ) ;
#804 = CIRCLE ( 'NONE', #239, 0.09999999999999939493 ) ;
#805 = LINE ( 'NONE', #713, #1290 ) ;
#806 = AXIS2_PLACEMENT_3D ( 'NONE', #982, #879, #70 ) ;
#807 = EDGE_CURVE ( 'NONE', #170, #225, #353, .T. ) ;
#808 = DIRECTION ( 'NONE',  ( 0.000000000000000000, 0.000000000000000000, -1.000000000000000000 ) ) ;
#809 = DIRECTION ( 'NONE',  ( 0.000000000000000000, 0.000000000000000000, 1.000000000000000000 ) ) ;
#810 = DIRECTION ( 'NONE',  ( 1.000000000000000000, 0.000000000000000000, 0.000000000000000000 ) ) ;
#811 = VERTEX_POINT ( 'NONE', #570 ) ;
#812 = CARTESIAN_POINT ( 'NONE',  ( 5.553625596047541357, 8.877896369100044538, 0.5999999999999999778 ) ) ;
#813 = DIRECTION ( 'NONE',  ( 0.000000000000000000, 1.000000000000000000, -0.000000000000000000 ) ) ;
#814 = EDGE_CURVE ( 'NONE', #621, #1078, #873, .T. ) ;
#815 = ORIENTED_EDGE ( 'NONE', *, *, #351, .T. ) ;
#816 = CARTESIAN_POINT ( 'NONE',  ( 0.000000000000000000, 0.000000000000000000, 0.5999999999999999778 ) ) ;
#817 = ORIENTED_EDGE ( 'NONE', *, *, #1013, .F. ) ;
#818 = VECTOR ( 'NONE', #455, 100.0000000000000000 ) ;
#819 = VERTEX_POINT ( 'NONE', #169 ) ;
#820 = CARTESIAN_POINT ( 'NONE',  ( 6.067727688116653972, 11.03171190698623860, 0.5999999999999999778 ) ) ;
#821 = DIRECTION ( 'NONE',  ( 0.000000000000000000, 0.000000000000000000, 1.000000000000000000 ) ) ;
#822 = DIRECTION ( 'NONE',  ( 1.000000000000000000, 0.000000000000000000, 0.000000000000000000 ) ) ;
#823 = VECTOR ( 'NONE', #395, 100.0000000000000000 ) ;
#824 = CARTESIAN_POINT ( 'NONE',  ( 5.617727688116653795, 0.000000000000000000, 0.5999999999999999778 ) ) ;
#825 = EDGE_CURVE ( 'NONE', #1233, #732, #967, .T. ) ;
#826 = AXIS2_PLACEMENT_3D ( 'NONE', #755, #341, #464 ) ;
#827 = VERTEX_POINT ( 'NONE', #651 ) ;
#828 = ORIENTED_EDGE ( 'NONE', *, *, #645, .F. ) ;
#829 = CARTESIAN_POINT ( 'NONE',  ( 0.9093266739737031479, 7.224999999999980105, 0.5999999999999999778 ) ) ;
#830 = DIRECTION ( 'NONE',  ( 0.000000000000000000, 0.000000000000000000, 1.000000000000000000 ) ) ;
#831 = LINE ( 'NONE', #440, #787 ) ;
#832 = ORIENTED_EDGE ( 'NONE', *, *, #653, .T. ) ;
#833 = EDGE_LOOP ( 'NONE', ( #113, #817, #165, #1126 ) ) ;
#834 = EDGE_CURVE ( 'NONE', #346, #732, #235, .T. ) ;
#835 = DIRECTION ( 'NONE',  ( 1.000000000000000000, 0.000000000000000000, 0.000000000000000000 ) ) ;
#836 = DIRECTION ( 'NONE',  ( 0.000000000000000000, -0.000000000000000000, -1.000000000000000000 ) ) ;
#837 = VECTOR ( 'NONE', #230, 100.0000000000000000 ) ;
#838 = FACE_BOUND ( 'NONE', #73, .T. ) ;
#839 = CARTESIAN_POINT ( 'NONE',  ( -0.9093266739736218796, 7.225000000000020073, 0.8500000000000000888 ) ) ;
#840 = VERTEX_POINT ( 'NONE', #272 ) ;
#841 = EDGE_CURVE ( 'NONE', #1168, #1073, #52, .T. ) ;
#842 = AXIS2_PLACEMENT_3D ( 'NONE', #145, #546, #952 ) ;
#843 = DIRECTION ( 'NONE',  ( 0.000000000000000000, -0.000000000000000000, -1.000000000000000000 ) ) ;
#844 = CARTESIAN_POINT ( 'NONE',  ( -6.117190242076239848, 8.327365445360076279, 0.2999999999999999889 ) ) ;
#845 = DIRECTION ( 'NONE',  ( 0.000000000000000000, 0.000000000000000000, 1.000000000000000000 ) ) ;
#846 = CARTESIAN_POINT ( 'NONE',  ( -0.000000000000000000, 11.03171190698623860, 0.2999999999999999889 ) ) ;
#847 = AXIS2_PLACEMENT_3D ( 'NONE', #983, #518, #233 ) ;
#848 = EDGE_LOOP ( 'NONE', ( #615, #945 ) ) ;
#849 = CIRCLE ( 'NONE', #288, 0.1000000000000000888 ) ;
#850 = CARTESIAN_POINT ( 'NONE',  ( -3.988704546339663537, 8.380348062927911457, 0.5999999999999999778 ) ) ;
#851 = CARTESIAN_POINT ( 'NONE',  ( 5.617727688116653795, 8.971230929720350744, 0.2999999999999999889 ) ) ;
#852 = LINE ( 'NONE', #865, #1132 ) ;
#853 = ORIENTED_EDGE ( 'NONE', *, *, #320, .F. ) ;
#854 = ORIENTED_EDGE ( 'NONE', *, *, #1052, .T. ) ;
#855 = PLANE ( 'NONE',  #265 ) ;
#856 = FACE_OUTER_BOUND ( 'NONE', #463, .T. ) ;
#857 = CARTESIAN_POINT ( 'NONE',  ( 3.981432234456317776, 8.280348062927913588, 0.5999999999999999778 ) ) ;
#858 = CARTESIAN_POINT ( 'NONE',  ( 6.167727688116653617, 10.93171190698623896, 0.2999999999999999889 ) ) ;
#859 = EDGE_CURVE ( 'NONE', #523, #248, #852, .T. ) ;
#860 = ORIENTED_EDGE ( 'NONE', *, *, #1092, .F. ) ;
#861 = ORIENTED_EDGE ( 'NONE', *, *, #115, .T. ) ;
#862 = CIRCLE ( 'NONE', #595, 0.1700000000000000122 ) ;
#863 = FACE_OUTER_BOUND ( 'NONE', #261, .T. ) ;
#864 = LINE ( 'NONE', #182, #1019 ) ;
#865 = CARTESIAN_POINT ( 'NONE',  ( -6.182272311883346916, 10.94262037481125915, 0.2999999999999999889 ) ) ;
#866 = ORIENTED_EDGE ( 'NONE', *, *, #934, .F. ) ;
#867 = EDGE_CURVE ( 'NONE', #683, #1168, #771, .T. ) ;
#868 = EDGE_LOOP ( 'NONE', ( #506, #247 ) ) ;
#869 = AXIS2_PLACEMENT_3D ( 'NONE', #573, #1042, #45 ) ;
#870 = PERSON_AND_ORGANIZATION_ROLE ( 'design_supplier' ) ;
#871 = DIRECTION ( 'NONE',  ( 1.000000000000000000, 0.000000000000000000, 0.000000000000000000 ) ) ;
#872 = DIRECTION ( 'NONE',  ( 1.000000000000000000, 0.000000000000000000, 0.000000000000000000 ) ) ;
#873 = LINE ( 'NONE', #461, #74 ) ;
#874 = ORIENTED_EDGE ( 'NONE', *, *, #191, .T. ) ;
#875 = ORIENTED_EDGE ( 'NONE', *, *, #437, .F. ) ;
#876 = EDGE_CURVE ( 'NONE', #954, #654, #360, .T. ) ;
#877 = DATE_AND_TIME ( #587, #1086 ) ;
#878 = EDGE_CURVE ( 'NONE', #1254, #218, #1260, .T. ) ;
#879 = DIRECTION ( 'NONE',  ( -0.000000000000000000, 0.000000000000000000, 1.000000000000000000 ) ) ;
#880 = DIRECTION ( 'NONE',  ( 0.000000000000000000, 0.000000000000000000, -1.000000000000000000 ) ) ;
#881 = VERTEX_POINT ( 'NONE', #575 ) ;
#882 = ORIENTED_EDGE ( 'NONE', *, *, #331, .F. ) ;
#883 = PRODUCT_RELATED_PRODUCT_CATEGORY ( 'detail', '', ( #517 ) ) ;
#884 = COORDINATED_UNIVERSAL_TIME_OFFSET ( 5, 30, .AHEAD. ) ;
#885 = CIRCLE ( 'NONE', #315, 0.1000000000000000888 ) ;
#886 = DIRECTION ( 'NONE',  ( 0.000000000000000000, 0.000000000000000000, 1.000000000000000000 ) ) ;
#887 = DIRECTION ( 'NONE',  ( 0.000000000000000000, -1.000000000000000000, 0.000000000000000000 ) ) ;
#888 = CIRCLE ( 'NONE', #321, 0.1700000000000000122 ) ;
#889 = VECTOR ( 'NONE', #38, 100.0000000000000000 ) ;
#890 = CARTESIAN_POINT ( 'NONE',  ( -3.988704546339663537, 8.380348062927911457, 0.2999999999999999889 ) ) ;
#891 = CARTESIAN_POINT ( 'NONE',  ( 0.000000000000000000, 11.04262037481126058, 0.2999999999999999889 ) ) ;
#892 = VECTOR ( 'NONE', #146, 100.0000000000000000 ) ;
#893 = EDGE_CURVE ( 'NONE', #449, #114, #975, .T. ) ;
#894 = FACE_OUTER_BOUND ( 'NONE', #424, .T. ) ;
#895 = DIRECTION ( 'NONE',  ( 1.000000000000000000, 0.000000000000000000, -0.000000000000000000 ) ) ;
#896 = ORIENTED_EDGE ( 'NONE', *, *, #878, .T. ) ;
#897 = CYLINDRICAL_SURFACE ( 'NONE', #1074, 0.1700000000000000122 ) ;
#898 = DIRECTION ( 'NONE',  ( 0.000000000000000000, 0.000000000000000000, 1.000000000000000000 ) ) ;
#899 = VERTEX_POINT ( 'NONE', #480 ) ;
#900 = CARTESIAN_POINT ( 'NONE',  ( 1.750000000000000222, 8.280348062927913588, 0.2999999999999999889 ) ) ;
#901 = CIRCLE ( 'NONE', #714, 0.1699999999999994849 ) ;
#902 = EDGE_CURVE ( 'NONE', #431, #4, #901, .T. ) ;
#903 = DIRECTION ( 'NONE',  ( 0.000000000000000000, 0.000000000000000000, 1.000000000000000000 ) ) ;
#904 = CARTESIAN_POINT ( 'NONE',  ( -6.182272311883346916, 10.94262037481125915, 0.2999999999999999889 ) ) ;
#905 = ORGANIZATION ( 'UNSPECIFIED', 'UNSPECIFIED', '' ) ;
#906 = ORIENTED_EDGE ( 'NONE', *, *, #1169, .F. ) ;
#907 = CARTESIAN_POINT ( 'NONE',  ( -0.7393266739736223947, 7.225000000000020073, 0.5999999999999999778 ) ) ;
#908 = VECTOR ( 'NONE', #63, 100.0000000000000000 ) ;
#909 = EDGE_LOOP ( 'NONE', ( #190, #647, #84, #962 ) ) ;
#910 = ADVANCED_FACE ( 'NONE', ( #894 ), #992, .F. ) ;
#911 = APPROVAL_PERSON_ORGANIZATION ( #76, #965, #378 ) ;
#912 = CARTESIAN_POINT ( 'NONE',  ( 5.730000000000000426, 8.630348062927913233, 0.5999999999999999778 ) ) ;
#913 = CARTESIAN_POINT ( 'NONE',  ( 5.900000000000000355, 8.630348062927913233, 0.2999999999999999889 ) ) ;
#914 = VERTEX_POINT ( 'NONE', #1282 ) ;
#915 = CARTESIAN_POINT ( 'NONE',  ( -5.900000000000000355, 10.76034806292791224, 0.5999999999999999778 ) ) ;
#916 = CIRCLE ( 'NONE', #358, 0.1700000000000000122 ) ;
#917 = ORIENTED_EDGE ( 'NONE', *, *, #646, .F. ) ;
#918 = EDGE_CURVE ( 'NONE', #18, #1254, #402, .T. ) ;
#919 = FACE_OUTER_BOUND ( 'NONE', #345, .T. ) ;
#920 = LINE ( 'NONE', #427, #598 ) ;
#921 = DIRECTION ( 'NONE',  ( 1.000000000000000000, 0.000000000000000000, 0.000000000000000000 ) ) ;
#922 = ORIENTED_EDGE ( 'NONE', *, *, #186, .F. ) ;
#923 = CARTESIAN_POINT ( 'NONE',  ( 5.900000000000000355, 10.76034806292791224, 0.2999999999999999889 ) ) ;
#924 = ORIENTED_EDGE ( 'NONE', *, *, #1144, .T. ) ;
#925 = AXIS2_PLACEMENT_3D ( 'NONE', #1050, #1045, #267 ) ;
#926 = ORIENTED_EDGE ( 'NONE', *, *, #834, .F. ) ;
#927 = CARTESIAN_POINT ( 'NONE',  ( -6.082272311883346383, 10.94262037481125915, 0.5999999999999999778 ) ) ;
#928 = FACE_OUTER_BOUND ( 'NONE', #67, .T. ) ;
#929 = CARTESIAN_POINT ( 'NONE',  ( -1.079326673973621364, 7.225000000000020073, 0.8500000000000000888 ) ) ;
#930 = AXIS2_PLACEMENT_3D ( 'NONE', #1125, #1130, #244 ) ;
#931 = DIRECTION ( 'NONE',  ( -0.000000000000000000, -0.000000000000000000, -1.000000000000000000 ) ) ;
#932 = VECTOR ( 'NONE', #936, 100.0000000000000000 ) ;
#933 = ORIENTED_EDGE ( 'NONE', *, *, #825, .F. ) ;
#934 = EDGE_CURVE ( 'NONE', #617, #840, #697, .T. ) ;
#935 = EDGE_LOOP ( 'NONE', ( #1214, #568, #142, #976 ) ) ;
#936 = DIRECTION ( 'NONE',  ( 0.000000000000000000, 0.000000000000000000, 1.000000000000000000 ) ) ;
#937 = DIRECTION ( 'NONE',  ( -1.000000000000000000, 0.000000000000000000, 0.000000000000000000 ) ) ;
#938 = ORIENTED_EDGE ( 'NONE', *, *, #386, .F. ) ;
#939 = EDGE_CURVE ( 'NONE', #1195, #49, #862, .T. ) ;
#940 = ORIENTED_EDGE ( 'NONE', *, *, #902, .T. ) ;
#941 = CARTESIAN_POINT ( 'NONE',  ( 5.900000000000000355, 10.76034806292791224, 0.2999999999999999889 ) ) ;
#942 = AXIS2_PLACEMENT_3D ( 'NONE', #208, #809, #921 ) ;
#943 = FACE_BOUND ( 'NONE', #721, .T. ) ;
#944 = CARTESIAN_POINT ( 'NONE',  ( 0.9093266739737031479, 7.224999999999980105, 0.2999999999999999889 ) ) ;
#945 = ORIENTED_EDGE ( 'NONE', *, *, #361, .F. ) ;
#946 = EDGE_CURVE ( 'NONE', #1218, #218, #1293, .T. ) ;
#947 = ORIENTED_EDGE ( 'NONE', *, *, #430, .T. ) ;
#948 = DIRECTION ( 'NONE',  ( 1.000000000000000000, 0.000000000000000000, 0.000000000000000000 ) ) ;
#949 = DIRECTION ( 'NONE',  ( 1.000000000000000000, 0.000000000000000000, 0.000000000000000000 ) ) ;
#950 = DIRECTION ( 'NONE',  ( 0.000000000000000000, 0.000000000000000000, 1.000000000000000000 ) ) ;
#951 = DIRECTION ( 'NONE',  ( 0.9999999945844991744, 0.0001040720971753409237, 0.000000000000000000 ) ) ;
#952 = DIRECTION ( 'NONE',  ( 1.000000000000000000, 0.000000000000000000, 0.000000000000000000 ) ) ;
#953 = AXIS2_PLACEMENT_3D ( 'NONE', #816, #215, #1018 ) ;
#954 = VERTEX_POINT ( 'NONE', #987 ) ;
#955 = ORIENTED_EDGE ( 'NONE', *, *, #1227, .F. ) ;
#956 = CIRCLE ( 'NONE', #396, 0.1699999999999994849 ) ;
#957 = ADVANCED_FACE ( 'NONE', ( #1089 ), #487, .F. ) ;
#958 = DIRECTION ( 'NONE',  ( 0.000000000000000000, -0.000000000000000000, -1.000000000000000000 ) ) ;
#959 = CARTESIAN_POINT ( 'NONE',  ( -6.082272311883346383, 10.94262037481125915, 0.2999999999999999889 ) ) ;
#960 = ORIENTED_EDGE ( 'NONE', *, *, #1032, .T. ) ;
#961 = ORIENTED_EDGE ( 'NONE', *, *, #1152, .T. ) ;
#962 = ORIENTED_EDGE ( 'NONE', *, *, #1013, .T. ) ;
#963 = AXIS2_PLACEMENT_3D ( 'NONE', #39, #821, #241 ) ;
#964 = CARTESIAN_POINT ( 'NONE',  ( -3.988704546339663537, 8.280348062927911812, 0.5999999999999999778 ) ) ;
#965 = APPROVAL ( #1177, 'UNSPECIFIED' ) ;
#966 = CARTESIAN_POINT ( 'NONE',  ( 0.7393266739737027748, 7.224999999999980105, 0.2999999999999999889 ) ) ;
#967 = LINE ( 'NONE', #750, #295 ) ;
#968 = AXIS2_PLACEMENT_3D ( 'NONE', #1047, #154, #1251 ) ;
#969 = ORIENTED_EDGE ( 'NONE', *, *, #876, .F. ) ;
#970 = EDGE_LOOP ( 'NONE', ( #416, #1249, #1020, #652 ) ) ;
#971 = ORIENTED_EDGE ( 'NONE', *, *, #253, .T. ) ;
#972 = AXIS2_PLACEMENT_3D ( 'NONE', #588, #279, #398 ) ;
#973 = DIRECTION ( 'NONE',  ( -1.000000000000000000, -1.443675383471039126E-15, 0.000000000000000000 ) ) ;
#974 = DIRECTION ( 'NONE',  ( 0.9748040140364172546, -0.2230630722878367278, 0.000000000000000000 ) ) ;
#975 = LINE ( 'NONE', #88, #991 ) ;
#976 = ORIENTED_EDGE ( 'NONE', *, *, #1152, .F. ) ;
#977 = EDGE_CURVE ( 'NONE', #1212, #376, #784, .T. ) ;
#978 = ORIENTED_EDGE ( 'NONE', *, *, #253, .F. ) ;
#979 = AXIS2_PLACEMENT_3D ( 'NONE', #371, #769, #240 ) ;
#980 = CIRCLE ( 'NONE', #687, 0.1000000000000007827 ) ;
#981 = PERSON_AND_ORGANIZATION ( #1204, #905 ) ;
#982 = CARTESIAN_POINT ( 'NONE',  ( -5.900000000000000355, 8.630348062927911457, 0.2999999999999999889 ) ) ;
#983 = CARTESIAN_POINT ( 'NONE',  ( 6.067727688116653084, 8.421986695411733947, 0.5999999999999999778 ) ) ;
#984 = EDGE_LOOP ( 'NONE', ( #933, #299, #34, #639 ) ) ;
#985 = ADVANCED_FACE ( 'NONE', ( #1002 ), #1187, .T. ) ;
#986 = AXIS2_PLACEMENT_3D ( 'NONE', #1124, #213, #1003 ) ;
#987 = CARTESIAN_POINT ( 'NONE',  ( 6.167727688116653617, 10.93171190698623896, 0.2999999999999999889 ) ) ;
#988 = LINE ( 'NONE', #666, #1205 ) ;
#989 = APPLICATION_PROTOCOL_DEFINITION ( 'international standard', 'config_control_design', 1994, #1069 ) ;
#990 = ADVANCED_FACE ( 'NONE', ( #997 ), #797, .F. ) ;
#991 = VECTOR ( 'NONE', #496, 100.0000000000000000 ) ;
#992 = CYLINDRICAL_SURFACE ( 'NONE', #531, 0.09999999999999939493 ) ;
#993 = EDGE_CURVE ( 'NONE', #811, #203, #201, .T. ) ;
#994 = CARTESIAN_POINT ( 'NONE',  ( -5.554578619112132465, 8.636080166919004597, 0.2999999999999999889 ) ) ;
#995 = AXIS2_PLACEMENT_3D ( 'NONE', #29, #324, #1104 ) ;
#996 = ADVANCED_FACE ( 'NONE', ( #1197 ), #897, .F. ) ;
#997 = FACE_OUTER_BOUND ( 'NONE', #318, .T. ) ;
#998 = DIRECTION ( 'NONE',  ( 0.000000000000000000, 0.000000000000000000, 1.000000000000000000 ) ) ;
#999 = EDGE_LOOP ( 'NONE', ( #323, #35, #238, #314 ) ) ;
#1000 = CC_DESIGN_APPROVAL ( #286, ( #773 ) ) ;
#1001 = APPLICATION_CONTEXT ( 'configuration controlled 3d designs of mechanical parts and assemblies' ) ;
#1002 = FACE_OUTER_BOUND ( 'NONE', #105, .T. ) ;
#1003 = DIRECTION ( 'NONE',  ( 1.000000000000000000, 0.000000000000000000, 0.000000000000000000 ) ) ;
#1004 = CC_DESIGN_DATE_AND_TIME_ASSIGNMENT ( #181, #187, ( #514 ) ) ;
#1005 = ORIENTED_EDGE ( 'NONE', *, *, #1092, .T. ) ;
#1006 = CARTESIAN_POINT ( 'NONE',  ( -6.070000000000000284, 10.76034806292791224, 0.2999999999999999889 ) ) ;
#1007 = EDGE_CURVE ( 'NONE', #391, #214, #885, .T. ) ;
#1008 = CIRCLE ( 'NONE', #275, 0.1700000000000003730 ) ;
#1009 = DIRECTION ( 'NONE',  ( -1.000000000000000000, 0.000000000000000000, 0.000000000000000000 ) ) ;
#1010 = DIRECTION ( 'NONE',  ( -0.000000000000000000, 0.000000000000000000, 1.000000000000000000 ) ) ;
#1011 = ORIENTED_EDGE ( 'NONE', *, *, #185, .F. ) ;
#1012 = FACE_OUTER_BOUND ( 'NONE', #274, .T. ) ;
#1013 = EDGE_CURVE ( 'NONE', #462, #54, #695, .T. ) ;
#1014 = EDGE_CURVE ( 'NONE', #1138, #65, #720, .T. ) ;
#1015 = AXIS2_PLACEMENT_3D ( 'NONE', #794, #710, #96 ) ;
#1016 = CARTESIAN_POINT ( 'NONE',  ( -1.079326673973621364, 7.225000000000020073, 0.2999999999999999889 ) ) ;
#1017 = CARTESIAN_POINT ( 'NONE',  ( -6.182272311883346916, 0.000000000000000000, 0.2999999999999999889 ) ) ;
#1018 = DIRECTION ( 'NONE',  ( -1.000000000000000000, 0.000000000000000000, -0.000000000000000000 ) ) ;
#1019 = VECTOR ( 'NONE', #557, 99.99999999999998579 ) ;
#1020 = ORIENTED_EDGE ( 'NONE', *, *, #611, .F. ) ;
#1021 = DIRECTION ( 'NONE',  ( 0.000000000000000000, 0.000000000000000000, 1.000000000000000000 ) ) ;
#1022 = CARTESIAN_POINT ( 'NONE',  ( 5.717727688116654328, 11.03171190698623860, 0.5999999999999999778 ) ) ;
#1023 = CYLINDRICAL_SURFACE ( 'NONE', #942, 0.1000000000000007827 ) ;
#1024 = CARTESIAN_POINT ( 'NONE',  ( -5.730000000000000426, 8.630348062927911457, 0.2999999999999999889 ) ) ;
#1025 = AXIS2_PLACEMENT_3D ( 'NONE', #1223, #836, #1238 ) ;
#1026 = EDGE_LOOP ( 'NONE', ( #971, #736 ) ) ;
#1027 = ORIENTED_EDGE ( 'NONE', *, *, #776, .T. ) ;
#1028 = EDGE_CURVE ( 'NONE', #4, #1175, #681, .T. ) ;
#1029 = DIRECTION ( 'NONE',  ( -1.000000000000000000, 0.000000000000000000, 0.000000000000000000 ) ) ;
#1030 = CARTESIAN_POINT ( 'NONE',  ( -5.632272311883346205, 8.733560568322646489, 0.2999999999999999889 ) ) ;
#1031 = DIRECTION ( 'NONE',  ( 0.000000000000000000, -1.000000000000000000, -0.000000000000000000 ) ) ;
#1032 = EDGE_CURVE ( 'NONE', #218, #54, #302, .T. ) ;
#1033 = ORIENTED_EDGE ( 'NONE', *, *, #262, .F. ) ;
#1034 = VECTOR ( 'NONE', #686, 100.0000000000000000 ) ;
#1035 = ORIENTED_EDGE ( 'NONE', *, *, #1106, .F. ) ;
#1036 = DIRECTION ( 'NONE',  ( 0.9370559295497861152, -0.3491793019289459732, 0.000000000000000000 ) ) ;
#1037 = CARTESIAN_POINT ( 'NONE',  ( -5.900000000000000355, 8.630348062927911457, 0.5999999999999999778 ) ) ;
#1038 = CARTESIAN_POINT ( 'NONE',  ( 3.981432234456317776, 8.380348062927913233, 0.2999999999999999889 ) ) ;
#1039 =( GEOMETRIC_REPRESENTATION_CONTEXT ( 3 ) GLOBAL_UNCERTAINTY_ASSIGNED_CONTEXT ( ( #1273 ) ) GLOBAL_UNIT_ASSIGNED_CONTEXT ( ( #547, #1055, #257 ) ) REPRESENTATION_CONTEXT ( 'NONE', 'WORKASPACE' ) );
#1040 = ORIENTED_EDGE ( 'NONE', *, *, #993, .F. ) ;
#1041 = ORIENTED_EDGE ( 'NONE', *, *, #576, .F. ) ;
#1042 = DIRECTION ( 'NONE',  ( 0.000000000000000000, 0.000000000000000000, 1.000000000000000000 ) ) ;
#1043 = LINE ( 'NONE', #734, #164 ) ;
#1044 = CYLINDRICAL_SURFACE ( 'NONE', #80, 0.1700000000000003730 ) ;
#1045 = DIRECTION ( 'NONE',  ( 0.000000000000000000, 0.000000000000000000, 1.000000000000000000 ) ) ;
#1046 = VERTEX_POINT ( 'NONE', #418 ) ;
#1047 = CARTESIAN_POINT ( 'NONE',  ( 5.900000000000000355, 8.630348062927913233, 0.2999999999999999889 ) ) ;
#1048 = AXIS2_PLACEMENT_3D ( 'NONE', #1224, #1010, #1211 ) ;
#1049 = LINE ( 'NONE', #1063, #640 ) ;
#1050 = CARTESIAN_POINT ( 'NONE',  ( -5.900000000000000355, 8.630348062927911457, 0.2999999999999999889 ) ) ;
#1051 = ORIENTED_EDGE ( 'NONE', *, *, #311, .F. ) ;
#1052 = EDGE_CURVE ( 'NONE', #1054, #1175, #1099, .T. ) ;
#1053 = VECTOR ( 'NONE', #793, 100.0000000000000000 ) ;
#1054 = VERTEX_POINT ( 'NONE', #1016 ) ;
#1055 =( NAMED_UNIT ( * ) PLANE_ANGLE_UNIT ( ) SI_UNIT ( $, .RADIAN. ) );
#1056 = LINE ( 'NONE', #680, #582 ) ;
#1057 = CARTESIAN_POINT ( 'NONE',  ( -0.000000000000000000, 11.04262037481126058, 0.2999999999999999889 ) ) ;
#1058 = ORIENTED_EDGE ( 'NONE', *, *, #606, .T. ) ;
#1059 = VECTOR ( 'NONE', #14, 100.0000000000000000 ) ;
#1060 = EDGE_LOOP ( 'NONE', ( #1160, #1033, #1051, #20 ) ) ;
#1061 = EDGE_CURVE ( 'NONE', #1046, #1233, #744, .T. ) ;
#1062 = DIRECTION ( 'NONE',  ( 1.000000000000000000, 0.000000000000000000, 0.000000000000000000 ) ) ;
#1063 = CARTESIAN_POINT ( 'NONE',  ( 6.167727688116666052, 8.904196635286774235E-15, 0.2999999999999999889 ) ) ;
#1064 = DIRECTION ( 'NONE',  ( 0.000000000000000000, 0.000000000000000000, 1.000000000000000000 ) ) ;
#1065 = LOCAL_TIME ( 17, 25, 22.00000000000000000, #485 ) ;
#1066 = VERTEX_POINT ( 'NONE', #820 ) ;
#1067 = ORIENTED_EDGE ( 'NONE', *, *, #255, .F. ) ;
#1068 = CYLINDRICAL_SURFACE ( 'NONE', #869, 0.1000000000000000888 ) ;
#1069 = APPLICATION_CONTEXT ( 'configuration controlled 3d designs of mechanical parts and assemblies' ) ;
#1070 = CARTESIAN_POINT ( 'NONE',  ( -1.079326673973621364, 7.225000000000020073, 0.5999999999999999778 ) ) ;
#1071 = CARTESIAN_POINT ( 'NONE',  ( -1.983872316220359977, 5.303195863078978611, 0.5999999999999999778 ) ) ;
#1072 = ORIENTED_EDGE ( 'NONE', *, *, #918, .F. ) ;
#1073 = VERTEX_POINT ( 'NONE', #802 ) ;
#1074 = AXIS2_PLACEMENT_3D ( 'NONE', #692, #98, #192 ) ;
#1075 = CARTESIAN_POINT ( 'NONE',  ( -6.082272311883346383, 11.04262037481126058, 0.2999999999999999889 ) ) ;
#1076 = CARTESIAN_POINT ( 'NONE',  ( -0.3999999999999988565, 8.280348062927913588, 0.5999999999999999778 ) ) ;
#1077 = EDGE_CURVE ( 'NONE', #539, #287, #23, .T. ) ;
#1078 = VERTEX_POINT ( 'NONE', #1122 ) ;
#1079 = EDGE_LOOP ( 'NONE', ( #354, #1119, #1005, #585 ) ) ;
#1080 = AXIS2_PLACEMENT_3D ( 'NONE', #829, #608, #711 ) ;
#1081 = VECTOR ( 'NONE', #454, 100.0000000000000000 ) ;
#1082 = CALENDAR_DATE ( 2026, 29, 8 ) ;
#1083 = LINE ( 'NONE', #783, #837 ) ;
#1084 = CARTESIAN_POINT ( 'NONE',  ( -5.732272311883346738, 10.94262037481125915, 0.5999999999999999778 ) ) ;
#1085 = ORIENTED_EDGE ( 'NONE', *, *, #443, .F. ) ;
#1086 = LOCAL_TIME ( 17, 25, 22.00000000000000000, #401 ) ;
#1087 = CIRCLE ( 'NONE', #1025, 0.1000000000000000888 ) ;
#1088 = PERSON_AND_ORGANIZATION_ROLE ( 'creator' ) ;
#1089 = FACE_OUTER_BOUND ( 'NONE', #984, .T. ) ;
#1090 = DIRECTION ( 'NONE',  ( 0.000000000000000000, 0.000000000000000000, 1.000000000000000000 ) ) ;
#1091 = ORIENTED_EDGE ( 'NONE', *, *, #535, .T. ) ;
#1092 = EDGE_CURVE ( 'NONE', #1073, #1218, #111, .T. ) ;
#1093 = DATE_AND_TIME ( #1170, #1065 ) ;
#1094 = VECTOR ( 'NONE', #176, 100.0000000000000000 ) ;
#1095 = CARTESIAN_POINT ( 'NONE',  ( 0.9093266739737031479, 7.224999999999980105, 0.8500000000000000888 ) ) ;
#1096 = ORIENTED_EDGE ( 'NONE', *, *, #859, .F. ) ;
#1097 = AXIS2_PLACEMENT_3D ( 'NONE', #915, #622, #26 ) ;
#1098 = APPROVAL_DATE_TIME ( #1093, #286 ) ;
#1099 = CIRCLE ( 'NONE', #82, 0.1699999999999994849 ) ;
#1100 = DIRECTION ( 'NONE',  ( 0.000000000000000000, -0.000000000000000000, -1.000000000000000000 ) ) ;
#1101 = CARTESIAN_POINT ( 'NONE',  ( 0.9093266739737031479, 7.224999999999980105, 0.5999999999999999778 ) ) ;
#1102 = ORIENTED_EDGE ( 'NONE', *, *, #340, .F. ) ;
#1103 = DIRECTION ( 'NONE',  ( 0.000000000000000000, -0.000000000000000000, -1.000000000000000000 ) ) ;
#1104 = DIRECTION ( 'NONE',  ( 0.9748040140364170325, -0.2230630722878367278, 0.000000000000000000 ) ) ;
#1105 = CARTESIAN_POINT ( 'NONE',  ( 6.067727688116653972, 10.93171190698623896, 0.5999999999999999778 ) ) ;
#1106 = EDGE_CURVE ( 'NONE', #248, #438, #198, .T. ) ;
#1107 = FACE_BOUND ( 'NONE', #179, .T. ) ;
#1108 = CIRCLE ( 'NONE', #1048, 0.1000000000000000888 ) ;
#1109 = CARTESIAN_POINT ( 'NONE',  ( 5.617727688116653795, 10.93171190698623896, 0.2999999999999999889 ) ) ;
#1110 = DIRECTION ( 'NONE',  ( 0.000000000000000000, -0.000000000000000000, -1.000000000000000000 ) ) ;
#1111 = ORIENTED_EDGE ( 'NONE', *, *, #814, .F. ) ;
#1112 = DIRECTION ( 'NONE',  ( 0.000000000000000000, 0.000000000000000000, 1.000000000000000000 ) ) ;
#1113 = EDGE_CURVE ( 'NONE', #1195, #530, #119, .T. ) ;
#1114 = ORIENTED_EDGE ( 'NONE', *, *, #191, .F. ) ;
#1115 = AXIS2_PLACEMENT_3D ( 'NONE', #1038, #329, #616 ) ;
#1116 = CARTESIAN_POINT ( 'NONE',  ( 0.9093266739737031479, 7.224999999999980105, 0.2999999999999999889 ) ) ;
#1117 = DIRECTION ( 'NONE',  ( 0.000000000000000000, 0.000000000000000000, -1.000000000000000000 ) ) ;
#1118 = CARTESIAN_POINT ( 'NONE',  ( -5.730000000000000426, 8.630348062927911457, 0.5999999999999999778 ) ) ;
#1119 = ORIENTED_EDGE ( 'NONE', *, *, #553, .T. ) ;
#1120 = DIRECTION ( 'NONE',  ( 1.000000000000000000, 0.000000000000000000, 0.000000000000000000 ) ) ;
#1121 = ORIENTED_EDGE ( 'NONE', *, *, #476, .F. ) ;
#1122 = CARTESIAN_POINT ( 'NONE',  ( 6.070000000000000284, 10.76034806292791224, 0.5999999999999999778 ) ) ;
#1123 = CYLINDRICAL_SURFACE ( 'NONE', #68, 0.1700000000000000122 ) ;
#1124 = CARTESIAN_POINT ( 'NONE',  ( -5.900000000000000355, 10.76034806292791224, 0.2999999999999999889 ) ) ;
#1125 = CARTESIAN_POINT ( 'NONE',  ( -0.9093266739736218796, 7.225000000000020073, 0.2999999999999999889 ) ) ;
#1126 = ORIENTED_EDGE ( 'NONE', *, *, #876, .T. ) ;
#1127 = EDGE_LOOP ( 'NONE', ( #730, #289, #759, #482 ) ) ;
#1128 = EDGE_CURVE ( 'NONE', #1168, #18, #510, .T. ) ;
#1129 = CARTESIAN_POINT ( 'NONE',  ( -2.400820698071054249, 6.942518199679442503, 0.5999999999999999778 ) ) ;
#1130 = DIRECTION ( 'NONE',  ( 0.000000000000000000, 0.000000000000000000, -1.000000000000000000 ) ) ;
#1131 = ORIENTED_EDGE ( 'NONE', *, *, #476, .T. ) ;
#1132 = VECTOR ( 'NONE', #71, 100.0000000000000000 ) ;
#1133 = ORIENTED_EDGE ( 'NONE', *, *, #562, .T. ) ;
#1134 = DIRECTION ( 'NONE',  ( 0.000000000000000000, 0.000000000000000000, 1.000000000000000000 ) ) ;
#1135 = DIRECTION ( 'NONE',  ( 0.000000000000000000, -0.000000000000000000, -1.000000000000000000 ) ) ;
#1136 = DIRECTION ( 'NONE',  ( 0.000000000000000000, 0.000000000000000000, -1.000000000000000000 ) ) ;
#1137 = DIRECTION ( 'NONE',  ( -0.000000000000000000, -0.000000000000000000, -1.000000000000000000 ) ) ;
#1138 = VERTEX_POINT ( 'NONE', #912 ) ;
#1139 = VECTOR ( 'NONE', #258, 99.99999999999998579 ) ;
#1140 = ORIENTED_EDGE ( 'NONE', *, *, #386, .T. ) ;
#1141 = APPLICATION_PROTOCOL_DEFINITION ( 'international standard', 'config_control_design', 1994, #1001 ) ;
#1142 = CARTESIAN_POINT ( 'NONE',  ( 6.067727688116653084, 8.421986695411733947, 0.2999999999999999889 ) ) ;
#1143 = FACE_OUTER_BOUND ( 'NONE', #128, .T. ) ;
#1144 = EDGE_CURVE ( 'NONE', #899, #1151, #347, .T. ) ;
#1145 = ORIENTED_EDGE ( 'NONE', *, *, #174, .T. ) ;
#1146 = AXIS2_PLACEMENT_3D ( 'NONE', #1105, #112, #519 ) ;
#1147 = VERTEX_POINT ( 'NONE', #334 ) ;
#1148 = DIRECTION ( 'NONE',  ( 0.000000000000000000, 0.000000000000000000, 1.000000000000000000 ) ) ;
#1149 = LINE ( 'NONE', #1281, #908 ) ;
#1150 = DIRECTION ( 'NONE',  ( 1.000000000000000000, 0.000000000000000000, 0.000000000000000000 ) ) ;
#1151 = VERTEX_POINT ( 'NONE', #812 ) ;
#1152 = EDGE_CURVE ( 'NONE', #683, #391, #1206, .T. ) ;
#1153 = CIRCLE ( 'NONE', #842, 0.1700000000000000122 ) ;
#1154 = ORIENTED_EDGE ( 'NONE', *, *, #1128, .F. ) ;
#1155 = ORIENTED_EDGE ( 'NONE', *, *, #1169, .T. ) ;
#1156 = DIRECTION ( 'NONE',  ( -0.3491793019289459732, -0.9370559295497862262, 0.000000000000000000 ) ) ;
#1157 = LINE ( 'NONE', #1075, #1081 ) ;
#1158 = CARTESIAN_POINT ( 'NONE',  ( 3.981432234456317776, 8.280348062927913588, 0.2999999999999999889 ) ) ;
#1159 = VECTOR ( 'NONE', #536, 100.0000000000000000 ) ;
#1160 = ORIENTED_EDGE ( 'NONE', *, *, #320, .T. ) ;
#1161 = ORIENTED_EDGE ( 'NONE', *, *, #497, .F. ) ;
#1162 = EDGE_CURVE ( 'NONE', #391, #18, #627, .T. ) ;
#1163 = CARTESIAN_POINT ( 'NONE',  ( 5.730000000000000426, 10.76034806292791224, 0.2999999999999999889 ) ) ;
#1164 = EDGE_CURVE ( 'NONE', #152, #840, #733, .T. ) ;
#1165 = DIRECTION ( 'NONE',  ( -0.000000000000000000, 0.000000000000000000, 1.000000000000000000 ) ) ;
#1166 = DIRECTION ( 'NONE',  ( 0.9370559295497861152, -0.3491793019289459732, 0.000000000000000000 ) ) ;
#1167 = ORIENTED_EDGE ( 'NONE', *, *, #902, .F. ) ;
#1168 = VERTEX_POINT ( 'NONE', #716 ) ;
#1169 = EDGE_CURVE ( 'NONE', #732, #346, #684, .T. ) ;
#1170 = CALENDAR_DATE ( 2026, 29, 8 ) ;
#1171 = AXIS2_PLACEMENT_3D ( 'NONE', #15, #604, #326 ) ;
#1172 = CARTESIAN_POINT ( 'NONE',  ( 3.981432234456317776, 8.380348062927913233, 0.5999999999999999778 ) ) ;
#1173 = DIRECTION ( 'NONE',  ( 1.000000000000000000, 0.000000000000000000, 0.000000000000000000 ) ) ;
#1174 = VERTEX_POINT ( 'NONE', #618 ) ;
#1175 = VERTEX_POINT ( 'NONE', #139 ) ;
#1176 = ORIENTED_EDGE ( 'NONE', *, *, #131, .F. ) ;
#1177 = APPROVAL_STATUS ( 'not_yet_approved' ) ;
#1178 = CARTESIAN_POINT ( 'NONE',  ( 5.900000000000000355, 10.76034806292791224, 0.2999999999999999889 ) ) ;
#1179 = DIRECTION ( 'NONE',  ( 1.000000000000000000, 0.000000000000000000, 0.000000000000000000 ) ) ;
#1180 = EDGE_CURVE ( 'NONE', #449, #152, #132, .T. ) ;
#1181 = ORIENTED_EDGE ( 'NONE', *, *, #814, .T. ) ;
#1182 = CIRCLE ( 'NONE', #1115, 0.1000000000000000888 ) ;
#1183 = ORIENTED_EDGE ( 'NONE', *, *, #690, .F. ) ;
#1184 = ORIENTED_EDGE ( 'NONE', *, *, #262, .T. ) ;
#1185 = CIRCLE ( 'NONE', #607, 0.1000000000000000888 ) ;
#1186 = CALENDAR_DATE ( 2026, 29, 8 ) ;
#1187 = PLANE ( 'NONE',  #972 ) ;
#1188 = FACE_BOUND ( 'NONE', #138, .T. ) ;
#1189 = ADVANCED_FACE ( 'NONE', ( #124 ), #305, .F. ) ;
#1190 = ADVANCED_FACE ( 'NONE', ( #919 ), #726, .F. ) ;
#1191 = SECURITY_CLASSIFICATION_LEVEL ( 'unclassified' ) ;
#1192 = CARTESIAN_POINT ( 'NONE',  ( 5.900000000000000355, 8.630348062927913233, 0.5999999999999999778 ) ) ;
#1193 = CARTESIAN_POINT ( 'NONE',  ( -5.632272311883347093, 10.94262037481125915, 0.2999999999999999889 ) ) ;
#1194 = MANIFOLD_SOLID_BREP ( 'Cut-Extrude6', #301 ) ;
#1195 = VERTEX_POINT ( 'NONE', #207 ) ;
#1196 = DATE_AND_TIME ( #296, #706 ) ;
#1197 = FACE_OUTER_BOUND ( 'NONE', #42, .T. ) ;
#1198 = CARTESIAN_POINT ( 'NONE',  ( 0.7393266739737027748, 7.224999999999980105, 0.8500000000000000888 ) ) ;
#1199 = EDGE_LOOP ( 'NONE', ( #475, #1219 ) ) ;
#1200 = VECTOR ( 'NONE', #136, 100.0000000000000000 ) ;
#1201 = ORIENTED_EDGE ( 'NONE', *, *, #404, .F. ) ;
#1202 = EDGE_CURVE ( 'NONE', #444, #596, #117, .T. ) ;
#1203 = AXIS2_PLACEMENT_3D ( 'NONE', #412, #1265, #458 ) ;
#1204 = PERSON ( 'UNSPECIFIED', 'UNSPECIFIED', 'UNSPECIFIED', ('UNSPECIFIED'), ('UNSPECIFIED'), ('UNSPECIFIED') ) ;
#1205 = VECTOR ( 'NONE', #1252, 100.0000000000000000 ) ;
#1206 = LINE ( 'NONE', #1215, #932 ) ;
#1207 = DIRECTION ( 'NONE',  ( 1.000000000000000000, 0.000000000000000000, 0.000000000000000000 ) ) ;
#1208 = ORIENTED_EDGE ( 'NONE', *, *, #72, .F. ) ;
#1209 = PLANE ( 'NONE',  #1015 ) ;
#1210 = DIRECTION ( 'NONE',  ( 0.000000000000000000, -0.000000000000000000, -1.000000000000000000 ) ) ;
#1211 = DIRECTION ( 'NONE',  ( 1.000000000000000000, 0.000000000000000000, 0.000000000000000000 ) ) ;
#1212 = VERTEX_POINT ( 'NONE', #964 ) ;
#1213 = ORIENTED_EDGE ( 'NONE', *, *, #351, .F. ) ;
#1214 = ORIENTED_EDGE ( 'NONE', *, *, #867, .T. ) ;
#1215 = CARTESIAN_POINT ( 'NONE',  ( -6.117190242076239848, 8.327365445360076279, 0.2999999999999999889 ) ) ;
#1216 = FACE_OUTER_BOUND ( 'NONE', #632, .T. ) ;
#1217 = CARTESIAN_POINT ( 'NONE',  ( -6.182272311883346916, 10.94262037481125915, 0.5999999999999999778 ) ) ;
#1218 = VERTEX_POINT ( 'NONE', #740 ) ;
#1219 = ORIENTED_EDGE ( 'NONE', *, *, #653, .F. ) ;
#1220 = VECTOR ( 'NONE', #950, 100.0000000000000000 ) ;
#1221 = CIRCLE ( 'NONE', #662, 0.09999999999999939493 ) ;
#1222 = DIRECTION ( 'NONE',  ( 0.000000000000000000, 0.000000000000000000, 1.000000000000000000 ) ) ;
#1223 = CARTESIAN_POINT ( 'NONE',  ( -5.532272311883346561, 8.733560568322646489, 0.5999999999999999778 ) ) ;
#1224 = CARTESIAN_POINT ( 'NONE',  ( 6.067727688116653084, 8.421986695411733947, 0.2999999999999999889 ) ) ;
#1225 = PLANE ( 'NONE',  #372 ) ;
#1226 = ORIENTED_EDGE ( 'NONE', *, *, #645, .T. ) ;
#1227 = EDGE_CURVE ( 'NONE', #1174, #530, #373, .T. ) ;
#1228 = ORIENTED_EDGE ( 'NONE', *, *, #304, .F. ) ;
#1229 = LOCAL_TIME ( 17, 25, 22.00000000000000000, #691 ) ;
#1230 = DIRECTION ( 'NONE',  ( 0.000000000000000000, -0.000000000000000000, -1.000000000000000000 ) ) ;
#1231 = DIRECTION ( 'NONE',  ( -0.000000000000000000, 0.000000000000000000, 1.000000000000000000 ) ) ;
#1232 = CARTESIAN_POINT ( 'NONE',  ( -5.632272311883347093, 10.94262037481125915, 0.2999999999999999889 ) ) ;
#1233 = VERTEX_POINT ( 'NONE', #663 ) ;
#1234 = EDGE_CURVE ( 'NONE', #1212, #203, #1221, .T. ) ;
#1235 = AXIS2_PLACEMENT_3D ( 'NONE', #534, #1110, #1207 ) ;
#1236 = ORIENTED_EDGE ( 'NONE', *, *, #977, .F. ) ;
#1237 = DIRECTION ( 'NONE',  ( 0.000000000000000000, 0.000000000000000000, 1.000000000000000000 ) ) ;
#1238 = DIRECTION ( 'NONE',  ( 1.000000000000000000, 0.000000000000000000, 0.000000000000000000 ) ) ;
#1239 = CARTESIAN_POINT ( 'NONE',  ( 6.102765294177611821, 8.328325784880620475, 0.5999999999999999778 ) ) ;
#1240 = DIRECTION ( 'NONE',  ( 1.000000000000000000, 0.000000000000000000, 0.000000000000000000 ) ) ;
#1241 = AXIS2_PLACEMENT_3D ( 'NONE', #672, #973, #62 ) ;
#1242 = ORIENTED_EDGE ( 'NONE', *, *, #1243, .F. ) ;
#1243 = EDGE_CURVE ( 'NONE', #881, #811, #804, .T. ) ;
#1244 = LINE ( 'NONE', #335, #222 ) ;
#1245 = FACE_OUTER_BOUND ( 'NONE', #59, .T. ) ;
#1246 = LINE ( 'NONE', #1158, #135 ) ;
#1247 = VECTOR ( 'NONE', #1036, 100.0000000000000142 ) ;
#1248 = CIRCLE ( 'NONE', #118, 0.1000000000000000888 ) ;
#1249 = ORIENTED_EDGE ( 'NONE', *, *, #1077, .F. ) ;
#1250 = FACE_OUTER_BOUND ( 'NONE', #935, .T. ) ;
#1251 = DIRECTION ( 'NONE',  ( 1.000000000000000000, 0.000000000000000000, 0.000000000000000000 ) ) ;
#1252 = DIRECTION ( 'NONE',  ( 0.000000000000000000, 0.000000000000000000, 1.000000000000000000 ) ) ;
#1253 = CARTESIAN_POINT ( 'NONE',  ( 1.978872763268170409, 5.310493624339570395, 0.2999999999999999889 ) ) ;
#1254 = VERTEX_POINT ( 'NONE', #648 ) ;
#1255 = AXIS2_PLACEMENT_3D ( 'NONE', #913, #246, #1240 ) ;
#1256 = EDGE_LOOP ( 'NONE', ( #578, #623 ) ) ;
#1257 = DIRECTION ( 'NONE',  ( -0.000000000000000000, 0.000000000000000000, 1.000000000000000000 ) ) ;
#1258 = CARTESIAN_POINT ( 'NONE',  ( 5.717727688116654328, 10.93171190698623896, 0.2999999999999999889 ) ) ;
#1259 = DIRECTION ( 'NONE',  ( 1.000000000000000000, 0.000000000000000000, 0.000000000000000000 ) ) ;
#1260 = LINE ( 'NONE', #1071, #1094 ) ;
#1261 = ORIENTED_EDGE ( 'NONE', *, *, #255, .T. ) ;
#1262 = ADVANCED_FACE ( 'NONE', ( #863 ), #61, .F. ) ;
#1263 = VECTOR ( 'NONE', #603, 100.0000000000000142 ) ;
#1264 = ORIENTED_EDGE ( 'NONE', *, *, #1106, .T. ) ;
#1265 = DIRECTION ( 'NONE',  ( -0.000000000000000000, 0.000000000000000000, 1.000000000000000000 ) ) ;
#1266 = DIRECTION ( 'NONE',  ( 0.000000000000000000, 0.000000000000000000, 1.000000000000000000 ) ) ;
#1267 = DIRECTION ( 'NONE',  ( 1.000000000000000000, 0.000000000000000000, 0.000000000000000000 ) ) ;
#1268 = AXIS2_PLACEMENT_3D ( 'NONE', #1289, #1295, #704 ) ;
#1269 = ORIENTED_EDGE ( 'NONE', *, *, #1007, .F. ) ;
#1270 = VECTOR ( 'NONE', #1237, 100.0000000000000000 ) ;
#1271 = EDGE_CURVE ( 'NONE', #223, #422, #439, .T. ) ;
#1272 = EDGE_LOOP ( 'NONE', ( #543, #861, #709, #786 ) ) ;
#1273 = UNCERTAINTY_MEASURE_WITH_UNIT (LENGTH_MEASURE( 1.000000000000000082E-05 ), #547, 'distance_accuracy_value', 'NONE');
#1274 = DATE_TIME_ROLE ( 'classification_date' ) ;
#1275 = FACE_OUTER_BOUND ( 'NONE', #1272, .T. ) ;
#1276 = CARTESIAN_POINT ( 'NONE',  ( -0.000000000000000000, 11.03171190698623860, 0.5999999999999999778 ) ) ;
#1277 = DIRECTION ( 'NONE',  ( 0.3503760606095854269, -0.9366091053111261777, 0.000000000000000000 ) ) ;
#1278 = ORIENTED_EDGE ( 'NONE', *, *, #1028, .F. ) ;
#1279 = ORIENTED_EDGE ( 'NONE', *, *, #237, .T. ) ;
#1280 = EDGE_CURVE ( 'NONE', #49, #1195, #638, .T. ) ;
#1281 = CARTESIAN_POINT ( 'NONE',  ( -0.000000000000000000, 11.04262037481126058, 0.5999999999999999778 ) ) ;
#1282 = CARTESIAN_POINT ( 'NONE',  ( -5.554578619112132465, 8.636080166919004597, 0.5999999999999999778 ) ) ;
#1283 = ORIENTED_EDGE ( 'NONE', *, *, #174, .F. ) ;
#1284 = ORIENTED_EDGE ( 'NONE', *, *, #361, .T. ) ;
#1285 = PERSON_AND_ORGANIZATION ( #1204, #905 ) ;
#1286 = ADVANCED_FACE ( 'NONE', ( #1250 ), #855, .T. ) ;
#1287 = DIRECTION ( 'NONE',  ( 1.000000000000000000, 0.000000000000000000, 0.000000000000000000 ) ) ;
#1288 = ADVANCED_FACE ( 'NONE', ( #356 ), #671, .T. ) ;
#1289 = CARTESIAN_POINT ( 'NONE',  ( -0.9093266739736218796, 7.225000000000020073, 0.8500000000000000888 ) ) ;
#1290 = VECTOR ( 'NONE', #1090, 100.0000000000000000 ) ;
#1291 = VECTOR ( 'NONE', #581, 100.0000000000000000 ) ;
#1292 = APPROVAL_ROLE ( '' ) ;
#1293 = LINE ( 'NONE', #394, #1034 ) ;
#1294 = ADVANCED_FACE ( 'NONE', ( #364 ), #1068, .F. ) ;
#1295 = DIRECTION ( 'NONE',  ( -0.000000000000000000, -0.000000000000000000, -1.000000000000000000 ) ) ;
ENDSEC;
END-ISO-10303-21;
