ISO-10303-21;
HEADER;
FILE_DESCRIPTION (( 'STEP AP203' ),
    '1' );
FILE_NAME ('Perfboard layer.STEP',
    '2026-09-18T11:37:41',
    ( '' ),
    ( '' ),
    'SwSTEP 2.0',
    'SolidWorks 2026',
    '' );
FILE_SCHEMA (( 'CONFIG_CONTROL_DESIGN' ));
ENDSEC;

DATA;
#1 = LINE ( 'NONE', #410, #102 ) ;
#2 = VECTOR ( 'NONE', #633, 100.0000000000000000 ) ;
#3 = AXIS2_PLACEMENT_3D ( 'NONE', #503, #236, #138 ) ;
#4 = DIRECTION ( 'NONE',  ( 0.000000000000000000, 0.000000000000000000, 1.000000000000000000 ) ) ;
#5 = CALENDAR_DATE ( 2026, 18, 9 ) ;
#6 = CARTESIAN_POINT ( 'NONE',  ( -2.649999999999999467, 3.150000000000000799, 0.2500000000000000000 ) ) ;
#7 = ORIENTED_EDGE ( 'NONE', *, *, #312, .F. ) ;
#8 = CARTESIAN_POINT ( 'NONE',  ( -2.649999999999997247, -3.500000000000000444, 0.000000000000000000 ) ) ;
#9 = CARTESIAN_POINT ( 'NONE',  ( -2.819999999999999396, 3.150000000000000799, 0.000000000000000000 ) ) ;
#10 = ADVANCED_FACE ( 'NONE', ( #231 ), #184, .F. ) ;
#11 = CARTESIAN_POINT ( 'NONE',  ( -2.479999999999999538, -3.150000000000000799, 0.2500000000000000000 ) ) ;
#12 = VERTEX_POINT ( 'NONE', #136 ) ;
#13 = CIRCLE ( 'NONE', #579, 0.1700000000000000122 ) ;
#14 = DIRECTION ( 'NONE',  ( -0.000000000000000000, -0.000000000000000000, -1.000000000000000000 ) ) ;
#15 = VERTEX_POINT ( 'NONE', #440 ) ;
#16 = EDGE_CURVE ( 'NONE', #476, #526, #168, .T. ) ;
#17 = EDGE_LOOP ( 'NONE', ( #499, #432, #467, #284 ) ) ;
#18 = CARTESIAN_POINT ( 'NONE',  ( 2.649999999999997691, 3.500000000000000444, 0.000000000000000000 ) ) ;
#19 = ORIENTED_EDGE ( 'NONE', *, *, #568, .F. ) ;
#20 = LINE ( 'NONE', #497, #562 ) ;
#21 = DIRECTION ( 'NONE',  ( 0.000000000000000000, 0.000000000000000000, 1.000000000000000000 ) ) ;
#22 = AXIS2_PLACEMENT_3D ( 'NONE', #149, #512, #209 ) ;
#23 = AXIS2_PLACEMENT_3D ( 'NONE', #458, #105, #358 ) ;
#24 = DIRECTION ( 'NONE',  ( 1.000000000000000000, -0.000000000000000000, -0.000000000000000000 ) ) ;
#25 = CARTESIAN_POINT ( 'NONE',  ( 2.649999999999997691, -3.500000000000000444, 0.2500000000000000000 ) ) ;
#26 = DIRECTION ( 'NONE',  ( -0.000000000000000000, -0.000000000000000000, -1.000000000000000000 ) ) ;
#27 = PERSON ( 'UNSPECIFIED', 'UNSPECIFIED', 'UNSPECIFIED', ('UNSPECIFIED'), ('UNSPECIFIED'), ('UNSPECIFIED') ) ;
#28 = ORIENTED_EDGE ( 'NONE', *, *, #208, .T. ) ;
#29 = EDGE_CURVE ( 'NONE', #321, #328, #82, .T. ) ;
#30 = ORIENTED_EDGE ( 'NONE', *, *, #404, .F. ) ;
#31 = CARTESIAN_POINT ( 'NONE',  ( -2.649999999999999467, -3.150000000000000799, 0.000000000000000000 ) ) ;
#32 = EDGE_LOOP ( 'NONE', ( #170, #620 ) ) ;
#33 = ORIENTED_EDGE ( 'NONE', *, *, #300, .T. ) ;
#34 = ADVANCED_FACE ( 'NONE', ( #140 ), #553, .T. ) ;
#35 = VECTOR ( 'NONE', #313, 100.0000000000000000 ) ;
#36 =( LENGTH_UNIT ( ) NAMED_UNIT ( * ) SI_UNIT ( .CENTI., .METRE. ) );
#37 = CC_DESIGN_APPROVAL ( #537, ( #155 ) ) ;
#38 = FACE_OUTER_BOUND ( 'NONE', #656, .T. ) ;
#39 = VERTEX_POINT ( 'NONE', #544 ) ;
#40 = DIRECTION ( 'NONE',  ( 1.000000000000000000, 0.000000000000000000, 0.000000000000000000 ) ) ;
#41 = ADVANCED_FACE ( 'NONE', ( #391 ), #143, .F. ) ;
#42 =( NAMED_UNIT ( * ) PLANE_ANGLE_UNIT ( ) SI_UNIT ( $, .RADIAN. ) );
#43 = ORIENTED_EDGE ( 'NONE', *, *, #151, .T. ) ;
#44 = EDGE_CURVE ( 'NONE', #77, #274, #188, .T. ) ;
#45 = DESIGN_CONTEXT ( 'detailed design', #378, 'design' ) ;
#46 = DIRECTION ( 'NONE',  ( 0.000000000000000000, 0.000000000000000000, 1.000000000000000000 ) ) ;
#47 = SECURITY_CLASSIFICATION_LEVEL ( 'unclassified' ) ;
#48 = AXIS2_PLACEMENT_3D ( 'NONE', #338, #556, #96 ) ;
#49 = ORGANIZATION ( 'UNSPECIFIED', 'UNSPECIFIED', '' ) ;
#50 = COORDINATED_UNIVERSAL_TIME_OFFSET ( 5, 30, .AHEAD. ) ;
#51 = DIRECTION ( 'NONE',  ( 0.000000000000000000, 0.000000000000000000, 1.000000000000000000 ) ) ;
#52 = ADVANCED_FACE ( 'NONE', ( #103 ), #616, .T. ) ;
#53 = CYLINDRICAL_SURFACE ( 'NONE', #408, 0.1700000000000000122 ) ;
#54 = DATE_TIME_ROLE ( 'creation_date' ) ;
#55 = ORIENTED_EDGE ( 'NONE', *, *, #574, .T. ) ;
#56 = DIRECTION ( 'NONE',  ( 1.000000000000000000, 0.000000000000000000, 0.000000000000000000 ) ) ;
#57 = DIRECTION ( 'NONE',  ( -1.000000000000000000, 0.000000000000000000, 0.000000000000000000 ) ) ;
#58 = EDGE_CURVE ( 'NONE', #488, #593, #401, .T. ) ;
#59 = APPLICATION_PROTOCOL_DEFINITION ( 'international standard', 'config_control_design', 1994, #643 ) ;
#60 = CARTESIAN_POINT ( 'NONE',  ( 3.000000000000000000, -3.149999999999998135, 0.2500000000000000000 ) ) ;
#61 = AXIS2_PLACEMENT_3D ( 'NONE', #122, #586, #225 ) ;
#62 = VERTEX_POINT ( 'NONE', #462 ) ;
#63 = CYLINDRICAL_SURFACE ( 'NONE', #23, 0.3499999999999996447 ) ;
#64 = PERSON_AND_ORGANIZATION ( #27, #49 ) ;
#65 = ORIENTED_EDGE ( 'NONE', *, *, #232, .F. ) ;
#66 = EDGE_CURVE ( 'NONE', #382, #289, #1, .T. ) ;
#67 = DIRECTION ( 'NONE',  ( -0.000000000000000000, -0.000000000000000000, -1.000000000000000000 ) ) ;
#68 = ORIENTED_EDGE ( 'NONE', *, *, #404, .T. ) ;
#69 = DIRECTION ( 'NONE',  ( -0.000000000000000000, -1.000000000000000000, -0.000000000000000000 ) ) ;
#70 = DIRECTION ( 'NONE',  ( -0.000000000000000000, 0.000000000000000000, 1.000000000000000000 ) ) ;
#71 = ORIENTED_EDGE ( 'NONE', *, *, #585, .F. ) ;
#72 = CARTESIAN_POINT ( 'NONE',  ( -2.999999999999999556, -3.149999999999998135, 0.2500000000000000000 ) ) ;
#73 = AXIS2_PLACEMENT_3D ( 'NONE', #493, #26, #234 ) ;
#74 = EDGE_LOOP ( 'NONE', ( #165, #330, #185, #573 ) ) ;
#75 = CC_DESIGN_APPROVAL ( #638, ( #325 ) ) ;
#76 = LINE ( 'NONE', #356, #35 ) ;
#77 = VERTEX_POINT ( 'NONE', #399 ) ;
#78 = FACE_BOUND ( 'NONE', #435, .T. ) ;
#79 = EDGE_LOOP ( 'NONE', ( #381, #43 ) ) ;
#80 = FACE_BOUND ( 'NONE', #113, .T. ) ;
#81 = ORIENTED_EDGE ( 'NONE', *, *, #300, .F. ) ;
#82 = CIRCLE ( 'NONE', #269, 0.1700000000000000122 ) ;
#83 = AXIS2_PLACEMENT_3D ( 'NONE', #152, #502, #564 ) ;
#84 = ORIENTED_EDGE ( 'NONE', *, *, #111, .F. ) ;
#85 = FACE_BOUND ( 'NONE', #32, .T. ) ;
#86 = EDGE_CURVE ( 'NONE', #593, #289, #207, .T. ) ;
#87 = ORIENTED_EDGE ( 'NONE', *, *, #104, .F. ) ;
#88 = ORIENTED_EDGE ( 'NONE', *, *, #104, .T. ) ;
#89 = DIRECTION ( 'NONE',  ( -1.000000000000000000, 0.000000000000000000, -0.000000000000000000 ) ) ;
#90 = ORIENTED_EDGE ( 'NONE', *, *, #93, .F. ) ;
#91 = FACE_OUTER_BOUND ( 'NONE', #268, .T. ) ;
#92 = VERTEX_POINT ( 'NONE', #559 ) ;
#93 = EDGE_CURVE ( 'NONE', #368, #15, #655, .T. ) ;
#94 = CIRCLE ( 'NONE', #465, 0.1700000000000000122 ) ;
#95 = CARTESIAN_POINT ( 'NONE',  ( 2.649999999999997691, -3.500000000000000444, 0.000000000000000000 ) ) ;
#96 = DIRECTION ( 'NONE',  ( 1.000000000000000000, 0.000000000000000000, 0.000000000000000000 ) ) ;
#97 = EDGE_CURVE ( 'NONE', #99, #481, #397, .T. ) ;
#98 = PERSON_AND_ORGANIZATION ( #27, #49 ) ;
#99 = VERTEX_POINT ( 'NONE', #459 ) ;
#100 = DIRECTION ( 'NONE',  ( 1.000000000000000000, 0.000000000000000000, 0.000000000000000000 ) ) ;
#101 = PERSON_AND_ORGANIZATION_ROLE ( 'design_owner' ) ;
#102 = VECTOR ( 'NONE', #567, 100.0000000000000000 ) ;
#103 = FACE_OUTER_BOUND ( 'NONE', #411, .T. ) ;
#104 = EDGE_CURVE ( 'NONE', #280, #200, #147, .T. ) ;
#105 = DIRECTION ( 'NONE',  ( -0.000000000000000000, -0.000000000000000000, -1.000000000000000000 ) ) ;
#106 = CC_DESIGN_DATE_AND_TIME_ASSIGNMENT ( #614, #54, ( #325 ) ) ;
#107 = CARTESIAN_POINT ( 'NONE',  ( 2.650000000000000355, 3.150000000000000799, 0.000000000000000000 ) ) ;
#108 = APPROVAL_DATE_TIME ( #629, #537 ) ;
#109 = LINE ( 'NONE', #18, #177 ) ;
#110 = FACE_OUTER_BOUND ( 'NONE', #17, .T. ) ;
#111 = EDGE_CURVE ( 'NONE', #355, #441, #444, .T. ) ;
#112 = PERSON_AND_ORGANIZATION ( #27, #49 ) ;
#113 = EDGE_LOOP ( 'NONE', ( #600, #158 ) ) ;
#114 = CYLINDRICAL_SURFACE ( 'NONE', #61, 0.1700000000000000122 ) ;
#115 = CIRCLE ( 'NONE', #622, 0.3499999999999996447 ) ;
#116 = VECTOR ( 'NONE', #448, 100.0000000000000000 ) ;
#117 = DIRECTION ( 'NONE',  ( 1.000000000000000000, 0.000000000000000000, 0.000000000000000000 ) ) ;
#118 = DIRECTION ( 'NONE',  ( -1.000000000000000000, 0.000000000000000000, 0.000000000000000000 ) ) ;
#119 = ORIENTED_EDGE ( 'NONE', *, *, #482, .F. ) ;
#120 = CARTESIAN_POINT ( 'NONE',  ( 2.650000000000000355, -3.150000000000000799, 0.2500000000000000000 ) ) ;
#121 = ORIENTED_EDGE ( 'NONE', *, *, #123, .F. ) ;
#122 = CARTESIAN_POINT ( 'NONE',  ( -2.649999999999999467, -3.150000000000000799, 0.2500000000000000000 ) ) ;
#123 = EDGE_CURVE ( 'NONE', #441, #355, #154, .T. ) ;
#124 = CIRCLE ( 'NONE', #534, 0.1700000000000000122 ) ;
#125 = EDGE_LOOP ( 'NONE', ( #65, #33, #548, #226 ) ) ;
#126 = SECURITY_CLASSIFICATION ( '', '', #47 ) ;
#127 = DIRECTION ( 'NONE',  ( -0.000000000000000000, -0.000000000000000000, -1.000000000000000000 ) ) ;
#128 = LINE ( 'NONE', #543, #500 ) ;
#129 = ORIENTED_EDGE ( 'NONE', *, *, #164, .T. ) ;
#130 = ORIENTED_EDGE ( 'NONE', *, *, #66, .F. ) ;
#131 = DIRECTION ( 'NONE',  ( -0.000000000000000000, -0.000000000000000000, -1.000000000000000000 ) ) ;
#132 = CARTESIAN_POINT ( 'NONE',  ( 2.480000000000000426, -3.150000000000000799, 0.2500000000000000000 ) ) ;
#133 = AXIS2_PLACEMENT_3D ( 'NONE', #507, #667, #504 ) ;
#134 = AXIS2_PLACEMENT_3D ( 'NONE', #203, #206, #254 ) ;
#135 = DIRECTION ( 'NONE',  ( -0.000000000000000000, -0.000000000000000000, -1.000000000000000000 ) ) ;
#136 = CARTESIAN_POINT ( 'NONE',  ( 3.000000000000000444, 3.149999999999998135, 0.2500000000000000000 ) ) ;
#137 = ORIENTED_EDGE ( 'NONE', *, *, #343, .F. ) ;
#138 = DIRECTION ( 'NONE',  ( 0.000000000000000000, 0.000000000000000000, 1.000000000000000000 ) ) ;
#139 = CARTESIAN_POINT ( 'NONE',  ( 2.480000000000000426, -3.150000000000000799, 0.2500000000000000000 ) ) ;
#140 = FACE_OUTER_BOUND ( 'NONE', #571, .T. ) ;
#141 = ORIENTED_EDGE ( 'NONE', *, *, #164, .F. ) ;
#142 = CARTESIAN_POINT ( 'NONE',  ( 2.650000000000000355, 3.150000000000000799, 0.2500000000000000000 ) ) ;
#143 = PLANE ( 'NONE',  #406 ) ;
#144 = CC_DESIGN_DATE_AND_TIME_ASSIGNMENT ( #162, #413, ( #126 ) ) ;
#145 = CIRCLE ( 'NONE', #229, 0.1700000000000000122 ) ;
#146 = CIRCLE ( 'NONE', #591, 0.1700000000000000122 ) ;
#147 = LINE ( 'NONE', #341, #489 ) ;
#148 = APPROVAL_ROLE ( '' ) ;
#149 = CARTESIAN_POINT ( 'NONE',  ( -2.649999999999999467, 3.150000000000000799, 0.000000000000000000 ) ) ;
#150 = CALENDAR_DATE ( 2026, 18, 9 ) ;
#151 = EDGE_CURVE ( 'NONE', #334, #200, #290, .T. ) ;
#152 = CARTESIAN_POINT ( 'NONE',  ( -2.649999999999999467, -3.150000000000000799, 0.2500000000000000000 ) ) ;
#153 = COORDINATED_UNIVERSAL_TIME_OFFSET ( 5, 30, .AHEAD. ) ;
#154 = CIRCLE ( 'NONE', #48, 0.1700000000000000122 ) ;
#155 = PRODUCT_DEFINITION_FORMATION_WITH_SPECIFIED_SOURCE ( 'ANY', '', #426, .NOT_KNOWN. ) ;
#156 = DIRECTION ( 'NONE',  ( 0.000000000000000000, 1.000000000000000000, 0.000000000000000000 ) ) ;
#157 = CARTESIAN_POINT ( 'NONE',  ( -2.649999999999997247, -3.500000000000000444, 0.2500000000000000000 ) ) ;
#158 = ORIENTED_EDGE ( 'NONE', *, *, #635, .F. ) ;
#159 = CARTESIAN_POINT ( 'NONE',  ( -2.999999999999999112, 3.149999999999998135, 0.000000000000000000 ) ) ;
#160 = EDGE_CURVE ( 'NONE', #328, #321, #124, .T. ) ;
#161 = PLANE ( 'NONE',  #196 ) ;
#162 = DATE_AND_TIME ( #517, #320 ) ;
#163 = DIRECTION ( 'NONE',  ( 1.000000000000000000, 0.000000000000000000, 0.000000000000000000 ) ) ;
#164 = EDGE_CURVE ( 'NONE', #266, #12, #405, .T. ) ;
#165 = ORIENTED_EDGE ( 'NONE', *, *, #198, .T. ) ;
#166 = LINE ( 'NONE', #95, #219 ) ;
#167 = FACE_OUTER_BOUND ( 'NONE', #172, .T. ) ;
#168 = CIRCLE ( 'NONE', #545, 0.3499999999999996447 ) ;
#169 = AXIS2_PLACEMENT_3D ( 'NONE', #292, #632, #57 ) ;
#170 = ORIENTED_EDGE ( 'NONE', *, *, #29, .T. ) ;
#171 = CARTESIAN_POINT ( 'NONE',  ( -2.819999999999999396, -3.150000000000000799, 0.2500000000000000000 ) ) ;
#172 = EDGE_LOOP ( 'NONE', ( #375, #420, #665, #84 ) ) ;
#173 = DIRECTION ( 'NONE',  ( -1.000000000000000000, 0.000000000000000000, 0.000000000000000000 ) ) ;
#174 = EDGE_LOOP ( 'NONE', ( #640, #541 ) ) ;
#175 = DIRECTION ( 'NONE',  ( -1.000000000000000000, 0.000000000000000000, 0.000000000000000000 ) ) ;
#176 = CC_DESIGN_PERSON_AND_ORGANIZATION_ASSIGNMENT ( #570, #258, ( #325 ) ) ;
#177 = VECTOR ( 'NONE', #215, 100.0000000000000000 ) ;
#178 = CIRCLE ( 'NONE', #668, 0.1700000000000000122 ) ;
#179 = FACE_OUTER_BOUND ( 'NONE', #342, .T. ) ;
#180 = DIRECTION ( 'NONE',  ( -0.000000000000000000, -0.000000000000000000, -1.000000000000000000 ) ) ;
#181 = ORIENTED_EDGE ( 'NONE', *, *, #654, .T. ) ;
#182 = EDGE_CURVE ( 'NONE', #289, #476, #351, .T. ) ;
#183 = CARTESIAN_POINT ( 'NONE',  ( 3.000000000000000444, 3.149999999999998135, 0.2500000000000000000 ) ) ;
#184 = CYLINDRICAL_SURFACE ( 'NONE', #73, 0.1700000000000000122 ) ;
#185 = ORIENTED_EDGE ( 'NONE', *, *, #449, .F. ) ;
#186 = ORIENTED_EDGE ( 'NONE', *, *, #568, .T. ) ;
#187 = CARTESIAN_POINT ( 'NONE',  ( -2.999999999999999556, -3.149999999999998135, 0.000000000000000000 ) ) ;
#188 = CIRCLE ( 'NONE', #260, 0.1700000000000000122 ) ;
#189 = AXIS2_PLACEMENT_3D ( 'NONE', #515, #402, #580 ) ;
#190 = DIRECTION ( 'NONE',  ( 1.000000000000000000, 0.000000000000000000, 0.000000000000000000 ) ) ;
#191 = DIRECTION ( 'NONE',  ( -0.000000000000000000, -0.000000000000000000, -1.000000000000000000 ) ) ;
#192 = EDGE_CURVE ( 'NONE', #428, #277, #239, .T. ) ;
#193 = DIRECTION ( 'NONE',  ( -1.000000000000000000, 0.000000000000000000, 0.000000000000000000 ) ) ;
#194 = EDGE_LOOP ( 'NONE', ( #186, #566, #293, #129, #181, #438, #314, #637 ) ) ;
#195 = EDGE_LOOP ( 'NONE', ( #491, #469, #501, #68 ) ) ;
#196 = AXIS2_PLACEMENT_3D ( 'NONE', #210, #625, #662 ) ;
#197 = CARTESIAN_POINT ( 'NONE',  ( -2.649999999999999467, 3.150000000000000799, 0.2500000000000000000 ) ) ;
#198 = EDGE_CURVE ( 'NONE', #393, #578, #115, .T. ) ;
#199 = CALENDAR_DATE ( 2026, 18, 9 ) ;
#200 = VERTEX_POINT ( 'NONE', #315 ) ;
#201 = DIRECTION ( 'NONE',  ( 0.000000000000000000, -1.000000000000000000, 0.000000000000000000 ) ) ;
#202 = ADVANCED_FACE ( 'NONE', ( #369 ), #114, .F. ) ;
#203 = CARTESIAN_POINT ( 'NONE',  ( 0.000000000000000000, 0.000000000000000000, 0.000000000000000000 ) ) ;
#204 = DIRECTION ( 'NONE',  ( -0.000000000000000000, -0.000000000000000000, -1.000000000000000000 ) ) ;
#205 = CARTESIAN_POINT ( 'NONE',  ( 2.650000000000000355, -3.150000000000000799, 0.2500000000000000000 ) ) ;
#206 = DIRECTION ( 'NONE',  ( 0.000000000000000000, 0.000000000000000000, 1.000000000000000000 ) ) ;
#207 = CIRCLE ( 'NONE', #22, 0.3499999999999996447 ) ;
#208 = EDGE_CURVE ( 'NONE', #277, #355, #450, .T. ) ;
#209 = DIRECTION ( 'NONE',  ( -1.000000000000000000, 0.000000000000000000, 0.000000000000000000 ) ) ;
#210 = CARTESIAN_POINT ( 'NONE',  ( -2.999999999999999556, -3.149999999999998135, 0.2500000000000000000 ) ) ;
#211 = PERSON_AND_ORGANIZATION ( #27, #49 ) ;
#212 = CARTESIAN_POINT ( 'NONE',  ( -2.479999999999999538, 3.150000000000000799, 0.2500000000000000000 ) ) ;
#213 = ORIENTED_EDGE ( 'NONE', *, *, #232, .T. ) ;
#214 = LINE ( 'NONE', #157, #455 ) ;
#215 = DIRECTION ( 'NONE',  ( -1.000000000000000000, 0.000000000000000000, 0.000000000000000000 ) ) ;
#216 = ORIENTED_EDGE ( 'NONE', *, *, #151, .F. ) ;
#217 = DIRECTION ( 'NONE',  ( -0.000000000000000000, -0.000000000000000000, -1.000000000000000000 ) ) ;
#218 = VECTOR ( 'NONE', #418, 100.0000000000000000 ) ;
#219 = VECTOR ( 'NONE', #522, 100.0000000000000000 ) ;
#220 = ORIENTED_EDGE ( 'NONE', *, *, #574, .F. ) ;
#221 = EDGE_CURVE ( 'NONE', #62, #476, #531, .T. ) ;
#222 = DIRECTION ( 'NONE',  ( 1.000000000000000000, 0.000000000000000000, 0.000000000000000000 ) ) ;
#223 = EDGE_LOOP ( 'NONE', ( #623, #81 ) ) ;
#224 = EDGE_CURVE ( 'NONE', #488, #382, #463, .T. ) ;
#225 = DIRECTION ( 'NONE',  ( -1.000000000000000000, 0.000000000000000000, 0.000000000000000000 ) ) ;
#226 = ORIENTED_EDGE ( 'NONE', *, *, #160, .F. ) ;
#227 = CARTESIAN_POINT ( 'NONE',  ( 2.820000000000000284, 3.150000000000000799, 0.000000000000000000 ) ) ;
#228 = EDGE_CURVE ( 'NONE', #272, #593, #109, .T. ) ;
#229 = AXIS2_PLACEMENT_3D ( 'NONE', #424, #529, #483 ) ;
#230 = CARTESIAN_POINT ( 'NONE',  ( 2.820000000000000284, -3.150000000000000799, 0.000000000000000000 ) ) ;
#231 = FACE_OUTER_BOUND ( 'NONE', #649, .T. ) ;
#232 = EDGE_CURVE ( 'NONE', #274, #328, #270, .T. ) ;
#233 = DIRECTION ( 'NONE',  ( -1.000000000000000000, 0.000000000000000000, 0.000000000000000000 ) ) ;
#234 = DIRECTION ( 'NONE',  ( -1.000000000000000000, 0.000000000000000000, 0.000000000000000000 ) ) ;
#235 = ORIENTED_EDGE ( 'NONE', *, *, #58, .T. ) ;
#236 = DIRECTION ( 'NONE',  ( -1.000000000000000000, 0.000000000000000000, 0.000000000000000000 ) ) ;
#237 = DIRECTION ( 'NONE',  ( 0.000000000000000000, 0.000000000000000000, 1.000000000000000000 ) ) ;
#238 = ORIENTED_EDGE ( 'NONE', *, *, #343, .T. ) ;
#239 = CIRCLE ( 'NONE', #521, 0.1700000000000000122 ) ;
#240 = LOCAL_TIME ( 17, 7, 41.00000000000000000, #461 ) ;
#241 = EDGE_CURVE ( 'NONE', #99, #15, #636, .T. ) ;
#242 = CYLINDRICAL_SURFACE ( 'NONE', #612, 0.1700000000000000122 ) ;
#243 = ORIENTED_EDGE ( 'NONE', *, *, #111, .T. ) ;
#244 = CARTESIAN_POINT ( 'NONE',  ( 3.000000000000000000, -3.149999999999998135, 0.000000000000000000 ) ) ;
#245 =( NAMED_UNIT ( * ) SI_UNIT ( $, .STERADIAN. ) SOLID_ANGLE_UNIT ( ) );
#246 = EDGE_CURVE ( 'NONE', #481, #99, #145, .T. ) ;
#247 = VECTOR ( 'NONE', #217, 100.0000000000000000 ) ;
#248 = CIRCLE ( 'NONE', #523, 0.3499999999999996447 ) ;
#249 = UNCERTAINTY_MEASURE_WITH_UNIT (LENGTH_MEASURE( 1.000000000000000082E-05 ), #36, 'distance_accuracy_value', 'NONE');
#250 = DIRECTION ( 'NONE',  ( 0.000000000000000000, 0.000000000000000000, 1.000000000000000000 ) ) ;
#251 = EDGE_CURVE ( 'NONE', #605, #488, #577, .T. ) ;
#252 = DIRECTION ( 'NONE',  ( 1.000000000000000000, 0.000000000000000000, 0.000000000000000000 ) ) ;
#253 = CARTESIAN_POINT ( 'NONE',  ( 2.649999999999997691, -3.500000000000000444, 0.2500000000000000000 ) ) ;
#254 = DIRECTION ( 'NONE',  ( 1.000000000000000000, 0.000000000000000000, 0.000000000000000000 ) ) ;
#255 = ORIENTED_EDGE ( 'NONE', *, *, #44, .T. ) ;
#256 = DIRECTION ( 'NONE',  ( -0.000000000000000000, -0.000000000000000000, -1.000000000000000000 ) ) ;
#257 = DIRECTION ( 'NONE',  ( -1.000000000000000000, 0.000000000000000000, 0.000000000000000000 ) ) ;
#258 = PERSON_AND_ORGANIZATION_ROLE ( 'creator' ) ;
#259 = ORIENTED_EDGE ( 'NONE', *, *, #123, .T. ) ;
#260 = AXIS2_PLACEMENT_3D ( 'NONE', #197, #451, #56 ) ;
#261 = AXIS2_PLACEMENT_3D ( 'NONE', #417, #4, #407 ) ;
#262 = DIRECTION ( 'NONE',  ( 0.000000000000000000, 0.000000000000000000, 1.000000000000000000 ) ) ;
#263 = ORIENTED_EDGE ( 'NONE', *, *, #333, .F. ) ;
#264 = CYLINDRICAL_SURFACE ( 'NONE', #189, 0.1700000000000000122 ) ;
#265 = LINE ( 'NONE', #11, #247 ) ;
#266 = VERTEX_POINT ( 'NONE', #60 ) ;
#267 = CARTESIAN_POINT ( 'NONE',  ( -2.479999999999999538, -3.150000000000000799, 0.2500000000000000000 ) ) ;
#268 = EDGE_LOOP ( 'NONE', ( #137, #304, #88, #216 ) ) ;
#269 = AXIS2_PLACEMENT_3D ( 'NONE', #660, #387, #604 ) ;
#270 = LINE ( 'NONE', #273, #429 ) ;
#271 =( GEOMETRIC_REPRESENTATION_CONTEXT ( 3 ) GLOBAL_UNCERTAINTY_ASSIGNED_CONTEXT ( ( #249 ) ) GLOBAL_UNIT_ASSIGNED_CONTEXT ( ( #36, #42, #245 ) ) REPRESENTATION_CONTEXT ( 'NONE', 'WORKASPACE' ) );
#272 = VERTEX_POINT ( 'NONE', #639 ) ;
#273 = CARTESIAN_POINT ( 'NONE',  ( -2.479999999999999538, 3.150000000000000799, 0.2500000000000000000 ) ) ;
#274 = VERTEX_POINT ( 'NONE', #212 ) ;
#275 = PLANE ( 'NONE',  #479 ) ;
#276 = CARTESIAN_POINT ( 'NONE',  ( 2.649999999999997691, -3.500000000000000444, 0.2500000000000000000 ) ) ;
#277 = VERTEX_POINT ( 'NONE', #588 ) ;
#278 = CC_DESIGN_PERSON_AND_ORGANIZATION_ASSIGNMENT ( #64, #101, ( #426 ) ) ;
#279 = CARTESIAN_POINT ( 'NONE',  ( -2.649999999999999467, 3.150000000000000799, 0.2500000000000000000 ) ) ;
#280 = VERTEX_POINT ( 'NONE', #171 ) ;
#281 = VECTOR ( 'NONE', #367, 100.0000000000000000 ) ;
#282 = VECTOR ( 'NONE', #69, 100.0000000000000000 ) ;
#283 = CARTESIAN_POINT ( 'NONE',  ( -2.999999999999999112, 3.149999999999998135, 0.2500000000000000000 ) ) ;
#284 = ORIENTED_EDGE ( 'NONE', *, *, #66, .T. ) ;
#285 = ORIENTED_EDGE ( 'NONE', *, *, #312, .T. ) ;
#286 = DIRECTION ( 'NONE',  ( -1.000000000000000000, 0.000000000000000000, -0.000000000000000000 ) ) ;
#287 = CARTESIAN_POINT ( 'NONE',  ( 2.650000000000000355, -3.150000000000000799, 0.2500000000000000000 ) ) ;
#288 = CARTESIAN_POINT ( 'NONE',  ( 2.650000000000000355, 3.150000000000000799, 0.2500000000000000000 ) ) ;
#289 = VERTEX_POINT ( 'NONE', #159 ) ;
#290 = CIRCLE ( 'NONE', #133, 0.1700000000000000122 ) ;
#291 = AXIS2_PLACEMENT_3D ( 'NONE', #380, #597, #89 ) ;
#292 = CARTESIAN_POINT ( 'NONE',  ( -2.649999999999999467, -3.150000000000000799, 0.2500000000000000000 ) ) ;
#293 = ORIENTED_EDGE ( 'NONE', *, *, #449, .T. ) ;
#294 = CARTESIAN_POINT ( 'NONE',  ( 2.650000000000000355, -3.150000000000000799, 0.000000000000000000 ) ) ;
#295 = APPROVAL_DATE_TIME ( #560, #357 ) ;
#296 = CIRCLE ( 'NONE', #261, 0.3499999999999996447 ) ;
#297 = CARTESIAN_POINT ( 'NONE',  ( -2.649999999999999467, 3.150000000000000799, 0.2500000000000000000 ) ) ;
#298 = CARTESIAN_POINT ( 'NONE',  ( -2.649999999999999467, -3.150000000000000799, 0.2500000000000000000 ) ) ;
#299 = DIRECTION ( 'NONE',  ( 1.000000000000000000, 0.000000000000000000, 0.000000000000000000 ) ) ;
#300 = EDGE_CURVE ( 'NONE', #274, #77, #13, .T. ) ;
#301 = CARTESIAN_POINT ( 'NONE',  ( 3.000000000000000444, 3.149999999999998135, 0.000000000000000000 ) ) ;
#302 = PERSON_AND_ORGANIZATION_ROLE ( 'design_supplier' ) ;
#303 = LINE ( 'NONE', #475, #281 ) ;
#304 = ORIENTED_EDGE ( 'NONE', *, *, #635, .T. ) ;
#305 = EDGE_LOOP ( 'NONE', ( #259, #243 ) ) ;
#306 = FACE_OUTER_BOUND ( 'NONE', #436, .T. ) ;
#307 = VECTOR ( 'NONE', #135, 100.0000000000000000 ) ;
#308 = CARTESIAN_POINT ( 'NONE',  ( -2.999999999999999556, -3.149999999999998135, 0.000000000000000000 ) ) ;
#309 = PRODUCT_DEFINITION_SHAPE ( 'NONE', 'NONE',  #325 ) ;
#310 = VERTEX_POINT ( 'NONE', #267 ) ;
#311 = CARTESIAN_POINT ( 'NONE',  ( -2.649999999999997247, 3.500000000000000444, 0.000000000000000000 ) ) ;
#312 = EDGE_CURVE ( 'NONE', #578, #607, #303, .T. ) ;
#313 = DIRECTION ( 'NONE',  ( -0.000000000000000000, -0.000000000000000000, -1.000000000000000000 ) ) ;
#314 = ORIENTED_EDGE ( 'NONE', *, *, #224, .T. ) ;
#315 = CARTESIAN_POINT ( 'NONE',  ( -2.819999999999999396, -3.150000000000000799, 0.000000000000000000 ) ) ;
#316 = ORIENTED_EDGE ( 'NONE', *, *, #246, .T. ) ;
#317 = AXIS2_PLACEMENT_3D ( 'NONE', #297, #256, #561 ) ;
#318 = DIRECTION ( 'NONE',  ( -0.000000000000000000, -0.000000000000000000, -1.000000000000000000 ) ) ;
#319 = AXIS2_PLACEMENT_3D ( 'NONE', #205, #569, #669 ) ;
#320 = LOCAL_TIME ( 17, 7, 41.00000000000000000, #50 ) ;
#321 = VERTEX_POINT ( 'NONE', #9 ) ;
#322 = ADVANCED_FACE ( 'NONE', ( #167 ), #582, .F. ) ;
#323 = DIRECTION ( 'NONE',  ( -1.000000000000000000, 0.000000000000000000, 0.000000000000000000 ) ) ;
#324 = CARTESIAN_POINT ( 'NONE',  ( 2.650000000000000355, 3.150000000000000799, 0.2500000000000000000 ) ) ;
#325 = PRODUCT_DEFINITION ( 'UNKNOWN', '', #155, #45 ) ;
#326 = CARTESIAN_POINT ( 'NONE',  ( 2.480000000000000426, -3.150000000000000799, 0.000000000000000000 ) ) ;
#327 = ORIENTED_EDGE ( 'NONE', *, *, #516, .F. ) ;
#328 = VERTEX_POINT ( 'NONE', #572 ) ;
#329 = DIRECTION ( 'NONE',  ( 0.000000000000000000, 0.000000000000000000, 1.000000000000000000 ) ) ;
#330 = ORIENTED_EDGE ( 'NONE', *, *, #364, .F. ) ;
#331 = AXIS2_PLACEMENT_3D ( 'NONE', #294, #627, #299 ) ;
#332 = DIRECTION ( 'NONE',  ( -0.000000000000000000, -0.000000000000000000, -1.000000000000000000 ) ) ;
#333 = EDGE_CURVE ( 'NONE', #481, #368, #76, .T. ) ;
#334 = VERTEX_POINT ( 'NONE', #525 ) ;
#335 = ORIENTED_EDGE ( 'NONE', *, *, #93, .T. ) ;
#336 = CARTESIAN_POINT ( 'NONE',  ( -2.649999999999999467, -3.150000000000000799, 0.000000000000000000 ) ) ;
#337 = DIRECTION ( 'NONE',  ( 0.000000000000000000, 0.000000000000000000, 1.000000000000000000 ) ) ;
#338 = CARTESIAN_POINT ( 'NONE',  ( 2.650000000000000355, -3.150000000000000799, 0.000000000000000000 ) ) ;
#339 = AXIS2_PLACEMENT_3D ( 'NONE', #611, #51, #252 ) ;
#340 = CIRCLE ( 'NONE', #169, 0.3499999999999996447 ) ;
#341 = CARTESIAN_POINT ( 'NONE',  ( -2.819999999999999396, -3.150000000000000799, 0.2500000000000000000 ) ) ;
#342 = EDGE_LOOP ( 'NONE', ( #263, #316, #370, #90 ) ) ;
#343 = EDGE_CURVE ( 'NONE', #310, #334, #265, .T. ) ;
#344 = DIRECTION ( 'NONE',  ( 1.000000000000000000, 0.000000000000000000, 0.000000000000000000 ) ) ;
#345 = PERSON_AND_ORGANIZATION ( #27, #49 ) ;
#346 = AXIS2_PLACEMENT_3D ( 'NONE', #670, #250, #100 ) ;
#347 = DIRECTION ( 'NONE',  ( 0.000000000000000000, -0.000000000000000000, -1.000000000000000000 ) ) ;
#348 = LOCAL_TIME ( 17, 7, 41.00000000000000000, #403 ) ;
#349 = MECHANICAL_CONTEXT ( 'NONE', #643, 'mechanical' ) ;
#350 = APPROVAL_PERSON_ORGANIZATION ( #112, #357, #471 ) ;
#351 = LINE ( 'NONE', #308, #218 ) ;
#352 = EDGE_CURVE ( 'NONE', #12, #607, #430, .T. ) ;
#353 = FACE_OUTER_BOUND ( 'NONE', #195, .T. ) ;
#354 = APPROVAL_ROLE ( '' ) ;
#355 = VERTEX_POINT ( 'NONE', #230 ) ;
#356 = CARTESIAN_POINT ( 'NONE',  ( 2.820000000000000284, 3.150000000000000799, 0.2500000000000000000 ) ) ;
#357 = APPROVAL ( #505, 'UNSPECIFIED' ) ;
#358 = DIRECTION ( 'NONE',  ( -1.000000000000000000, 0.000000000000000000, 0.000000000000000000 ) ) ;
#359 = APPROVAL_STATUS ( 'not_yet_approved' ) ;
#360 = ORIENTED_EDGE ( 'NONE', *, *, #333, .T. ) ;
#361 = CARTESIAN_POINT ( 'NONE',  ( 2.820000000000000284, -3.150000000000000799, 0.2500000000000000000 ) ) ;
#362 = ORIENTED_EDGE ( 'NONE', *, *, #86, .T. ) ;
#363 = DIRECTION ( 'NONE',  ( -0.000000000000000000, -0.000000000000000000, -1.000000000000000000 ) ) ;
#364 = EDGE_CURVE ( 'NONE', #266, #578, #20, .T. ) ;
#365 = AXIS2_PLACEMENT_3D ( 'NONE', #412, #201, #347 ) ;
#366 = DIRECTION ( 'NONE',  ( -1.000000000000000000, 0.000000000000000000, 0.000000000000000000 ) ) ;
#367 = DIRECTION ( 'NONE',  ( 0.000000000000000000, 1.000000000000000000, 0.000000000000000000 ) ) ;
#368 = VERTEX_POINT ( 'NONE', #227 ) ;
#369 = FACE_OUTER_BOUND ( 'NONE', #661, .T. ) ;
#370 = ORIENTED_EDGE ( 'NONE', *, *, #241, .T. ) ;
#371 = AXIS2_PLACEMENT_3D ( 'NONE', #630, #427, #472 ) ;
#372 = CYLINDRICAL_SURFACE ( 'NONE', #373, 0.1700000000000000122 ) ;
#373 = AXIS2_PLACEMENT_3D ( 'NONE', #592, #127, #323 ) ;
#374 = PRODUCT_RELATED_PRODUCT_CATEGORY ( 'detail', '', ( #426 ) ) ;
#375 = ORIENTED_EDGE ( 'NONE', *, *, #208, .F. ) ;
#376 = CYLINDRICAL_SURFACE ( 'NONE', #624, 0.1700000000000000122 ) ;
#377 = PLANE ( 'NONE',  #291 ) ;
#378 = APPLICATION_CONTEXT ( 'configuration controlled 3d designs of mechanical parts and assemblies' ) ;
#379 = ORIENTED_EDGE ( 'NONE', *, *, #221, .T. ) ;
#380 = CARTESIAN_POINT ( 'NONE',  ( -2.649999999999999467, -3.150000000000000799, 0.2500000000000000000 ) ) ;
#381 = ORIENTED_EDGE ( 'NONE', *, *, #482, .T. ) ;
#382 = VERTEX_POINT ( 'NONE', #283 ) ;
#383 = FACE_BOUND ( 'NONE', #174, .T. ) ;
#384 = AXIS2_PLACEMENT_3D ( 'NONE', #288, #663, #193 ) ;
#385 = EDGE_LOOP ( 'NONE', ( #285, #647, #141, #653 ) ) ;
#386 = LINE ( 'NONE', #139, #398 ) ;
#387 = DIRECTION ( 'NONE',  ( 0.000000000000000000, 0.000000000000000000, 1.000000000000000000 ) ) ;
#388 = ORIENTED_EDGE ( 'NONE', *, *, #97, .F. ) ;
#389 = ORIENTED_EDGE ( 'NONE', *, *, #29, .F. ) ;
#390 = FACE_OUTER_BOUND ( 'NONE', #596, .T. ) ;
#391 = FACE_OUTER_BOUND ( 'NONE', #527, .T. ) ;
#392 = ADVANCED_FACE ( 'NONE', ( #85, #490, #38, #540, #78 ), #275, .T. ) ;
#393 = VERTEX_POINT ( 'NONE', #595 ) ;
#394 = DIRECTION ( 'NONE',  ( -0.000000000000000000, -0.000000000000000000, -1.000000000000000000 ) ) ;
#395 = ORIENTED_EDGE ( 'NONE', *, *, #16, .F. ) ;
#396 = EDGE_CURVE ( 'NONE', #277, #428, #178, .T. ) ;
#397 = CIRCLE ( 'NONE', #346, 0.1700000000000000122 ) ;
#398 = VECTOR ( 'NONE', #602, 100.0000000000000000 ) ;
#399 = CARTESIAN_POINT ( 'NONE',  ( -2.819999999999999396, 3.150000000000000799, 0.2500000000000000000 ) ) ;
#400 = COORDINATED_UNIVERSAL_TIME_OFFSET ( 5, 30, .AHEAD. ) ;
#401 = LINE ( 'NONE', #453, #666 ) ;
#402 = DIRECTION ( 'NONE',  ( -0.000000000000000000, -0.000000000000000000, -1.000000000000000000 ) ) ;
#403 = COORDINATED_UNIVERSAL_TIME_OFFSET ( 5, 30, .AHEAD. ) ;
#404 = EDGE_CURVE ( 'NONE', #605, #272, #128, .T. ) ;
#405 = LINE ( 'NONE', #621, #498 ) ;
#406 = AXIS2_PLACEMENT_3D ( 'NONE', #276, #487, #21 ) ;
#407 = DIRECTION ( 'NONE',  ( 1.000000000000000000, 0.000000000000000000, 0.000000000000000000 ) ) ;
#408 = AXIS2_PLACEMENT_3D ( 'NONE', #628, #363, #257 ) ;
#409 = CALENDAR_DATE ( 2026, 18, 9 ) ;
#410 = CARTESIAN_POINT ( 'NONE',  ( -2.999999999999999112, 3.149999999999998135, 0.2500000000000000000 ) ) ;
#411 = EDGE_LOOP ( 'NONE', ( #362, #130, #583, #235 ) ) ;
#412 = CARTESIAN_POINT ( 'NONE',  ( 2.649999999999997691, 3.500000000000000444, 0.2500000000000000000 ) ) ;
#413 = DATE_TIME_ROLE ( 'classification_date' ) ;
#414 = CARTESIAN_POINT ( 'NONE',  ( 2.649999999999997691, 3.500000000000000444, 0.2500000000000000000 ) ) ;
#415 = ORIENTED_EDGE ( 'NONE', *, *, #532, .T. ) ;
#416 = ORIENTED_EDGE ( 'NONE', *, *, #352, .T. ) ;
#417 = CARTESIAN_POINT ( 'NONE',  ( 2.650000000000000355, 3.150000000000000799, 0.000000000000000000 ) ) ;
#418 = DIRECTION ( 'NONE',  ( -0.000000000000000000, -1.000000000000000000, -0.000000000000000000 ) ) ;
#419 = ADVANCED_FACE ( 'NONE', ( #658, #383, #80, #549, #492 ), #377, .F. ) ;
#420 = ORIENTED_EDGE ( 'NONE', *, *, #396, .T. ) ;
#421 = VECTOR ( 'NONE', #67, 100.0000000000000000 ) ;
#422 = DIRECTION ( 'NONE',  ( 0.000000000000000000, 0.000000000000000000, 1.000000000000000000 ) ) ;
#423 = ORIENTED_EDGE ( 'NONE', *, *, #228, .F. ) ;
#424 = CARTESIAN_POINT ( 'NONE',  ( 2.650000000000000355, 3.150000000000000799, 0.2500000000000000000 ) ) ;
#425 = ORIENTED_EDGE ( 'NONE', *, *, #442, .F. ) ;
#426 = PRODUCT ( 'Perfboard layer', 'Perfboard layer', '', ( #349 ) ) ;
#427 = DIRECTION ( 'NONE',  ( -0.000000000000000000, 0.000000000000000000, 1.000000000000000000 ) ) ;
#428 = VERTEX_POINT ( 'NONE', #132 ) ;
#429 = VECTOR ( 'NONE', #14, 100.0000000000000000 ) ;
#430 = LINE ( 'NONE', #183, #478 ) ;
#431 = AXIS2_PLACEMENT_3D ( 'NONE', #107, #555, #40 ) ;
#432 = ORIENTED_EDGE ( 'NONE', *, *, #221, .F. ) ;
#433 = EDGE_LOOP ( 'NONE', ( #255, #213, #389, #587 ) ) ;
#434 = DIRECTION ( 'NONE',  ( -0.000000000000000000, -0.000000000000000000, -1.000000000000000000 ) ) ;
#435 = EDGE_LOOP ( 'NONE', ( #55, #335 ) ) ;
#436 = EDGE_LOOP ( 'NONE', ( #496, #631, #19, #379 ) ) ;
#437 = ADVANCED_FACE ( 'NONE', ( #641 ), #242, .F. ) ;
#438 = ORIENTED_EDGE ( 'NONE', *, *, #251, .T. ) ;
#439 = LINE ( 'NONE', #651, #307 ) ;
#440 = CARTESIAN_POINT ( 'NONE',  ( 2.480000000000000426, 3.150000000000000799, 0.000000000000000000 ) ) ;
#441 = VERTEX_POINT ( 'NONE', #326 ) ;
#442 = EDGE_CURVE ( 'NONE', #92, #39, #546, .T. ) ;
#443 = DIRECTION ( 'NONE',  ( 1.000000000000000000, 0.000000000000000000, 0.000000000000000000 ) ) ;
#444 = CIRCLE ( 'NONE', #331, 0.1700000000000000122 ) ;
#445 = DIRECTION ( 'NONE',  ( -1.000000000000000000, 0.000000000000000000, 0.000000000000000000 ) ) ;
#446 = LOCAL_TIME ( 17, 7, 41.00000000000000000, #153 ) ;
#447 = CC_DESIGN_APPROVAL ( #357, ( #126 ) ) ;
#448 = DIRECTION ( 'NONE',  ( -0.000000000000000000, -0.000000000000000000, -1.000000000000000000 ) ) ;
#449 = EDGE_CURVE ( 'NONE', #39, #266, #510, .T. ) ;
#450 = LINE ( 'NONE', #361, #2 ) ;
#451 = DIRECTION ( 'NONE',  ( 0.000000000000000000, 0.000000000000000000, 1.000000000000000000 ) ) ;
#452 = EDGE_LOOP ( 'NONE', ( #388, #530 ) ) ;
#453 = CARTESIAN_POINT ( 'NONE',  ( -2.649999999999997247, 3.500000000000000444, 0.2500000000000000000 ) ) ;
#454 = AXIS2_PLACEMENT_3D ( 'NONE', #518, #318, #118 ) ;
#455 = VECTOR ( 'NONE', #191, 100.0000000000000000 ) ;
#456 = CARTESIAN_POINT ( 'NONE',  ( -2.649999999999999467, 3.150000000000000799, 0.000000000000000000 ) ) ;
#457 = EDGE_CURVE ( 'NONE', #77, #321, #439, .T. ) ;
#458 = CARTESIAN_POINT ( 'NONE',  ( -2.649999999999999467, -3.150000000000000799, 0.2500000000000000000 ) ) ;
#459 = CARTESIAN_POINT ( 'NONE',  ( 2.480000000000000426, 3.150000000000000799, 0.2500000000000000000 ) ) ;
#460 = CARTESIAN_POINT ( 'NONE',  ( 2.649999999999997691, 3.500000000000000444, 0.2500000000000000000 ) ) ;
#461 = COORDINATED_UNIVERSAL_TIME_OFFSET ( 5, 30, .AHEAD. ) ;
#462 = CARTESIAN_POINT ( 'NONE',  ( -2.999999999999999556, -3.149999999999998135, 0.2500000000000000000 ) ) ;
#463 = CIRCLE ( 'NONE', #371, 0.3499999999999996447 ) ;
#464 = LINE ( 'NONE', #253, #116 ) ;
#465 = AXIS2_PLACEMENT_3D ( 'NONE', #31, #237, #443 ) ;
#466 = APPLICATION_PROTOCOL_DEFINITION ( 'international standard', 'config_control_design', 1994, #378 ) ;
#467 = ORIENTED_EDGE ( 'NONE', *, *, #642, .F. ) ;
#468 = DIRECTION ( 'NONE',  ( -0.000000000000000000, -0.000000000000000000, -1.000000000000000000 ) ) ;
#469 = ORIENTED_EDGE ( 'NONE', *, *, #58, .F. ) ;
#470 = DIRECTION ( 'NONE',  ( 0.000000000000000000, 0.000000000000000000, 1.000000000000000000 ) ) ;
#471 = APPROVAL_ROLE ( '' ) ;
#472 = DIRECTION ( 'NONE',  ( -1.000000000000000000, 0.000000000000000000, 0.000000000000000000 ) ) ;
#473 = ORIENTED_EDGE ( 'NONE', *, *, #532, .F. ) ;
#474 = DIRECTION ( 'NONE',  ( -1.000000000000000000, 0.000000000000000000, 0.000000000000000000 ) ) ;
#475 = CARTESIAN_POINT ( 'NONE',  ( 3.000000000000000444, -3.149999999999998135, 0.000000000000000000 ) ) ;
#476 = VERTEX_POINT ( 'NONE', #187 ) ;
#477 = CLOSED_SHELL ( 'NONE', ( #594, #437, #202, #10, #419, #392, #603, #41, #524, #673, #34, #558, #52, #542, #322, #508, #613, #664 ) ) ;
#478 = VECTOR ( 'NONE', #486, 100.0000000000000000 ) ;
#479 = AXIS2_PLACEMENT_3D ( 'NONE', #336, #645, #286 ) ;
#480 = CARTESIAN_POINT ( 'NONE',  ( 2.650000000000000355, -3.150000000000000799, 0.000000000000000000 ) ) ;
#481 = VERTEX_POINT ( 'NONE', #495 ) ;
#482 = EDGE_CURVE ( 'NONE', #200, #334, #94, .T. ) ;
#483 = DIRECTION ( 'NONE',  ( 1.000000000000000000, 0.000000000000000000, 0.000000000000000000 ) ) ;
#484 = ORIENTED_EDGE ( 'NONE', *, *, #654, .F. ) ;
#485 = EDGE_CURVE ( 'NONE', #428, #441, #386, .T. ) ;
#486 = DIRECTION ( 'NONE',  ( -0.000000000000000000, -0.000000000000000000, -1.000000000000000000 ) ) ;
#487 = DIRECTION ( 'NONE',  ( 0.000000000000000000, 1.000000000000000000, -0.000000000000000000 ) ) ;
#488 = VERTEX_POINT ( 'NONE', #552 ) ;
#489 = VECTOR ( 'NONE', #204, 100.0000000000000000 ) ;
#490 = FACE_BOUND ( 'NONE', #305, .T. ) ;
#491 = ORIENTED_EDGE ( 'NONE', *, *, #228, .T. ) ;
#492 = FACE_BOUND ( 'NONE', #452, .T. ) ;
#493 = CARTESIAN_POINT ( 'NONE',  ( 2.650000000000000355, -3.150000000000000799, 0.2500000000000000000 ) ) ;
#494 = ORIENTED_EDGE ( 'NONE', *, *, #192, .T. ) ;
#495 = CARTESIAN_POINT ( 'NONE',  ( 2.820000000000000284, 3.150000000000000799, 0.2500000000000000000 ) ) ;
#496 = ORIENTED_EDGE ( 'NONE', *, *, #16, .T. ) ;
#497 = CARTESIAN_POINT ( 'NONE',  ( 3.000000000000000000, -3.149999999999998135, 0.2500000000000000000 ) ) ;
#498 = VECTOR ( 'NONE', #156, 100.0000000000000000 ) ;
#499 = ORIENTED_EDGE ( 'NONE', *, *, #182, .T. ) ;
#500 = VECTOR ( 'NONE', #180, 100.0000000000000000 ) ;
#501 = ORIENTED_EDGE ( 'NONE', *, *, #251, .F. ) ;
#502 = DIRECTION ( 'NONE',  ( 0.000000000000000000, 0.000000000000000000, 1.000000000000000000 ) ) ;
#503 = CARTESIAN_POINT ( 'NONE',  ( 3.000000000000000444, -3.149999999999998135, 0.2500000000000000000 ) ) ;
#504 = DIRECTION ( 'NONE',  ( 1.000000000000000000, 0.000000000000000000, 0.000000000000000000 ) ) ;
#505 = APPROVAL_STATUS ( 'not_yet_approved' ) ;
#506 = ORIENTED_EDGE ( 'NONE', *, *, #198, .F. ) ;
#507 = CARTESIAN_POINT ( 'NONE',  ( -2.649999999999999467, -3.150000000000000799, 0.000000000000000000 ) ) ;
#508 = ADVANCED_FACE ( 'NONE', ( #91 ), #372, .F. ) ;
#509 = VECTOR ( 'NONE', #468, 100.0000000000000000 ) ;
#510 = CIRCLE ( 'NONE', #581, 0.3499999999999996447 ) ;
#511 = SHAPE_DEFINITION_REPRESENTATION ( #309, #584 ) ;
#512 = DIRECTION ( 'NONE',  ( -0.000000000000000000, 0.000000000000000000, 1.000000000000000000 ) ) ;
#513 = CC_DESIGN_PERSON_AND_ORGANIZATION_ASSIGNMENT ( #211, #557, ( #126 ) ) ;
#514 = PLANE ( 'NONE',  #365 ) ;
#515 = CARTESIAN_POINT ( 'NONE',  ( -2.649999999999999467, 3.150000000000000799, 0.2500000000000000000 ) ) ;
#516 = EDGE_CURVE ( 'NONE', #39, #393, #464, .T. ) ;
#517 = CALENDAR_DATE ( 2026, 18, 9 ) ;
#518 = CARTESIAN_POINT ( 'NONE',  ( 2.650000000000000355, -3.150000000000000799, 0.2500000000000000000 ) ) ;
#519 = MANIFOLD_SOLID_BREP ( 'Boss-Extrude1', #477 ) ;
#520 = ORIENTED_EDGE ( 'NONE', *, *, #485, .F. ) ;
#521 = AXIS2_PLACEMENT_3D ( 'NONE', #120, #422, #222 ) ;
#522 = DIRECTION ( 'NONE',  ( 1.000000000000000000, -0.000000000000000000, -0.000000000000000000 ) ) ;
#523 = AXIS2_PLACEMENT_3D ( 'NONE', #142, #337, #539 ) ;
#524 = ADVANCED_FACE ( 'NONE', ( #671 ), #618, .T. ) ;
#525 = CARTESIAN_POINT ( 'NONE',  ( -2.479999999999999538, -3.150000000000000799, 0.000000000000000000 ) ) ;
#526 = VERTEX_POINT ( 'NONE', #8 ) ;
#527 = EDGE_LOOP ( 'NONE', ( #590, #327, #425, #551 ) ) ;
#528 = CARTESIAN_POINT ( 'NONE',  ( -2.999999999999999556, -3.149999999999998135, 0.2500000000000000000 ) ) ;
#529 = DIRECTION ( 'NONE',  ( 0.000000000000000000, 0.000000000000000000, 1.000000000000000000 ) ) ;
#530 = ORIENTED_EDGE ( 'NONE', *, *, #246, .F. ) ;
#531 = LINE ( 'NONE', #72, #421 ) ;
#532 = EDGE_CURVE ( 'NONE', #607, #272, #296, .T. ) ;
#533 = ORIENTED_EDGE ( 'NONE', *, *, #97, .T. ) ;
#534 = AXIS2_PLACEMENT_3D ( 'NONE', #456, #46, #344 ) ;
#535 = APPROVAL_PERSON_ORGANIZATION ( #345, #537, #148 ) ;
#536 = CARTESIAN_POINT ( 'NONE',  ( 2.480000000000000426, 3.150000000000000799, 0.2500000000000000000 ) ) ;
#537 = APPROVAL ( #565, 'UNSPECIFIED' ) ;
#538 = ORIENTED_EDGE ( 'NONE', *, *, #608, .T. ) ;
#539 = DIRECTION ( 'NONE',  ( 1.000000000000000000, 0.000000000000000000, 0.000000000000000000 ) ) ;
#540 = FACE_BOUND ( 'NONE', #79, .T. ) ;
#541 = ORIENTED_EDGE ( 'NONE', *, *, #396, .F. ) ;
#542 = ADVANCED_FACE ( 'NONE', ( #110 ), #161, .F. ) ;
#543 = CARTESIAN_POINT ( 'NONE',  ( 2.649999999999997691, 3.500000000000000444, 0.2500000000000000000 ) ) ;
#544 = CARTESIAN_POINT ( 'NONE',  ( 2.649999999999997691, -3.500000000000000444, 0.2500000000000000000 ) ) ;
#545 = AXIS2_PLACEMENT_3D ( 'NONE', #652, #550, #445 ) ;
#546 = LINE ( 'NONE', #25, #644 ) ;
#547 = CIRCLE ( 'NONE', #431, 0.1700000000000000122 ) ;
#548 = ORIENTED_EDGE ( 'NONE', *, *, #457, .T. ) ;
#549 = FACE_BOUND ( 'NONE', #223, .T. ) ;
#550 = DIRECTION ( 'NONE',  ( -0.000000000000000000, 0.000000000000000000, 1.000000000000000000 ) ) ;
#551 = ORIENTED_EDGE ( 'NONE', *, *, #554, .T. ) ;
#552 = CARTESIAN_POINT ( 'NONE',  ( -2.649999999999997247, 3.500000000000000444, 0.2500000000000000000 ) ) ;
#553 = CYLINDRICAL_SURFACE ( 'NONE', #384, 0.3499999999999996447 ) ;
#554 = EDGE_CURVE ( 'NONE', #92, #526, #214, .T. ) ;
#555 = DIRECTION ( 'NONE',  ( 0.000000000000000000, 0.000000000000000000, 1.000000000000000000 ) ) ;
#556 = DIRECTION ( 'NONE',  ( 0.000000000000000000, 0.000000000000000000, 1.000000000000000000 ) ) ;
#557 = PERSON_AND_ORGANIZATION_ROLE ( 'classification_officer' ) ;
#558 = ADVANCED_FACE ( 'NONE', ( #353 ), #514, .F. ) ;
#559 = CARTESIAN_POINT ( 'NONE',  ( -2.649999999999997247, -3.500000000000000444, 0.2500000000000000000 ) ) ;
#560 = DATE_AND_TIME ( #150, #563 ) ;
#561 = DIRECTION ( 'NONE',  ( -1.000000000000000000, 0.000000000000000000, 0.000000000000000000 ) ) ;
#562 = VECTOR ( 'NONE', #332, 100.0000000000000000 ) ;
#563 = LOCAL_TIME ( 17, 7, 41.00000000000000000, #400 ) ;
#564 = DIRECTION ( 'NONE',  ( 1.000000000000000000, 0.000000000000000000, 0.000000000000000000 ) ) ;
#565 = APPROVAL_STATUS ( 'not_yet_approved' ) ;
#566 = ORIENTED_EDGE ( 'NONE', *, *, #442, .T. ) ;
#567 = DIRECTION ( 'NONE',  ( -0.000000000000000000, -0.000000000000000000, -1.000000000000000000 ) ) ;
#568 = EDGE_CURVE ( 'NONE', #62, #92, #340, .T. ) ;
#569 = DIRECTION ( 'NONE',  ( -0.000000000000000000, -0.000000000000000000, -1.000000000000000000 ) ) ;
#570 = PERSON_AND_ORGANIZATION ( #27, #49 ) ;
#571 = EDGE_LOOP ( 'NONE', ( #415, #30, #484, #416 ) ) ;
#572 = CARTESIAN_POINT ( 'NONE',  ( -2.479999999999999538, 3.150000000000000799, 0.000000000000000000 ) ) ;
#573 = ORIENTED_EDGE ( 'NONE', *, *, #516, .T. ) ;
#574 = EDGE_CURVE ( 'NONE', #15, #368, #547, .T. ) ;
#575 = FACE_OUTER_BOUND ( 'NONE', #125, .T. ) ;
#576 = APPROVAL_DATE_TIME ( #619, #638 ) ;
#577 = LINE ( 'NONE', #414, #610 ) ;
#578 = VERTEX_POINT ( 'NONE', #244 ) ;
#579 = AXIS2_PLACEMENT_3D ( 'NONE', #6, #262, #163 ) ;
#580 = DIRECTION ( 'NONE',  ( -1.000000000000000000, 0.000000000000000000, 0.000000000000000000 ) ) ;
#581 = AXIS2_PLACEMENT_3D ( 'NONE', #598, #648, #233 ) ;
#582 = CYLINDRICAL_SURFACE ( 'NONE', #454, 0.1700000000000000122 ) ;
#583 = ORIENTED_EDGE ( 'NONE', *, *, #224, .F. ) ;
#584 = ADVANCED_BREP_SHAPE_REPRESENTATION ( 'Perfboard layer', ( #519, #134 ), #271 ) ;
#585 = EDGE_CURVE ( 'NONE', #526, #393, #166, .T. ) ;
#586 = DIRECTION ( 'NONE',  ( -0.000000000000000000, -0.000000000000000000, -1.000000000000000000 ) ) ;
#587 = ORIENTED_EDGE ( 'NONE', *, *, #457, .F. ) ;
#588 = CARTESIAN_POINT ( 'NONE',  ( 2.820000000000000284, -3.150000000000000799, 0.2500000000000000000 ) ) ;
#589 = CC_DESIGN_PERSON_AND_ORGANIZATION_ASSIGNMENT ( #626, #302, ( #155 ) ) ;
#590 = ORIENTED_EDGE ( 'NONE', *, *, #585, .T. ) ;
#591 = AXIS2_PLACEMENT_3D ( 'NONE', #298, #470, #117 ) ;
#592 = CARTESIAN_POINT ( 'NONE',  ( -2.649999999999999467, -3.150000000000000799, 0.2500000000000000000 ) ) ;
#593 = VERTEX_POINT ( 'NONE', #311 ) ;
#594 = ADVANCED_FACE ( 'NONE', ( #390 ), #53, .F. ) ;
#595 = CARTESIAN_POINT ( 'NONE',  ( 2.649999999999997691, -3.500000000000000444, 0.000000000000000000 ) ) ;
#596 = EDGE_LOOP ( 'NONE', ( #533, #360, #220, #650 ) ) ;
#597 = DIRECTION ( 'NONE',  ( 0.000000000000000000, 0.000000000000000000, -1.000000000000000000 ) ) ;
#598 = CARTESIAN_POINT ( 'NONE',  ( 2.650000000000000355, -3.150000000000000799, 0.2500000000000000000 ) ) ;
#599 = CIRCLE ( 'NONE', #83, 0.1700000000000000122 ) ;
#600 = ORIENTED_EDGE ( 'NONE', *, *, #608, .F. ) ;
#601 = FACE_OUTER_BOUND ( 'NONE', #385, .T. ) ;
#602 = DIRECTION ( 'NONE',  ( -0.000000000000000000, -0.000000000000000000, -1.000000000000000000 ) ) ;
#603 = ADVANCED_FACE ( 'NONE', ( #306 ), #63, .T. ) ;
#604 = DIRECTION ( 'NONE',  ( 1.000000000000000000, 0.000000000000000000, 0.000000000000000000 ) ) ;
#605 = VERTEX_POINT ( 'NONE', #460 ) ;
#606 = LINE ( 'NONE', #528, #282 ) ;
#607 = VERTEX_POINT ( 'NONE', #301 ) ;
#608 = EDGE_CURVE ( 'NONE', #280, #310, #599, .T. ) ;
#609 = PLANE ( 'NONE',  #3 ) ;
#610 = VECTOR ( 'NONE', #173, 100.0000000000000000 ) ;
#611 = CARTESIAN_POINT ( 'NONE',  ( 2.650000000000000355, 3.150000000000000799, 0.000000000000000000 ) ) ;
#612 = AXIS2_PLACEMENT_3D ( 'NONE', #279, #434, #175 ) ;
#613 = ADVANCED_FACE ( 'NONE', ( #575 ), #264, .F. ) ;
#614 = DATE_AND_TIME ( #409, #446 ) ;
#615 = ORIENTED_EDGE ( 'NONE', *, *, #182, .F. ) ;
#616 = CYLINDRICAL_SURFACE ( 'NONE', #317, 0.3499999999999996447 ) ;
#617 = PERSON_AND_ORGANIZATION ( #27, #49 ) ;
#618 = CYLINDRICAL_SURFACE ( 'NONE', #319, 0.3499999999999996447 ) ;
#619 = DATE_AND_TIME ( #199, #348 ) ;
#620 = ORIENTED_EDGE ( 'NONE', *, *, #160, .T. ) ;
#621 = CARTESIAN_POINT ( 'NONE',  ( 3.000000000000000444, -3.149999999999998135, 0.2500000000000000000 ) ) ;
#622 = AXIS2_PLACEMENT_3D ( 'NONE', #480, #70, #366 ) ;
#623 = ORIENTED_EDGE ( 'NONE', *, *, #44, .F. ) ;
#624 = AXIS2_PLACEMENT_3D ( 'NONE', #324, #131, #474 ) ;
#625 = DIRECTION ( 'NONE',  ( 1.000000000000000000, 0.000000000000000000, 0.000000000000000000 ) ) ;
#626 = PERSON_AND_ORGANIZATION ( #27, #49 ) ;
#627 = DIRECTION ( 'NONE',  ( 0.000000000000000000, 0.000000000000000000, 1.000000000000000000 ) ) ;
#628 = CARTESIAN_POINT ( 'NONE',  ( 2.650000000000000355, 3.150000000000000799, 0.2500000000000000000 ) ) ;
#629 = DATE_AND_TIME ( #5, #240 ) ;
#630 = CARTESIAN_POINT ( 'NONE',  ( -2.649999999999999467, 3.150000000000000799, 0.2500000000000000000 ) ) ;
#631 = ORIENTED_EDGE ( 'NONE', *, *, #554, .F. ) ;
#632 = DIRECTION ( 'NONE',  ( -0.000000000000000000, 0.000000000000000000, 1.000000000000000000 ) ) ;
#633 = DIRECTION ( 'NONE',  ( -0.000000000000000000, -0.000000000000000000, -1.000000000000000000 ) ) ;
#634 = ORIENTED_EDGE ( 'NONE', *, *, #86, .F. ) ;
#635 = EDGE_CURVE ( 'NONE', #310, #280, #146, .T. ) ;
#636 = LINE ( 'NONE', #536, #509 ) ;
#637 = ORIENTED_EDGE ( 'NONE', *, *, #642, .T. ) ;
#638 = APPROVAL ( #359, 'UNSPECIFIED' ) ;
#639 = CARTESIAN_POINT ( 'NONE',  ( 2.649999999999997691, 3.500000000000000444, 0.000000000000000000 ) ) ;
#640 = ORIENTED_EDGE ( 'NONE', *, *, #192, .F. ) ;
#641 = FACE_OUTER_BOUND ( 'NONE', #433, .T. ) ;
#642 = EDGE_CURVE ( 'NONE', #382, #62, #606, .T. ) ;
#643 = APPLICATION_CONTEXT ( 'configuration controlled 3d designs of mechanical parts and assemblies' ) ;
#644 = VECTOR ( 'NONE', #24, 100.0000000000000000 ) ;
#645 = DIRECTION ( 'NONE',  ( 0.000000000000000000, 0.000000000000000000, -1.000000000000000000 ) ) ;
#646 = CC_DESIGN_PERSON_AND_ORGANIZATION_ASSIGNMENT ( #617, #672, ( #155 ) ) ;
#647 = ORIENTED_EDGE ( 'NONE', *, *, #352, .F. ) ;
#648 = DIRECTION ( 'NONE',  ( -0.000000000000000000, 0.000000000000000000, 1.000000000000000000 ) ) ;
#649 = EDGE_LOOP ( 'NONE', ( #494, #28, #121, #520 ) ) ;
#650 = ORIENTED_EDGE ( 'NONE', *, *, #241, .F. ) ;
#651 = CARTESIAN_POINT ( 'NONE',  ( -2.819999999999999396, 3.150000000000000799, 0.2500000000000000000 ) ) ;
#652 = CARTESIAN_POINT ( 'NONE',  ( -2.649999999999999467, -3.150000000000000799, 0.000000000000000000 ) ) ;
#653 = ORIENTED_EDGE ( 'NONE', *, *, #364, .T. ) ;
#654 = EDGE_CURVE ( 'NONE', #12, #605, #248, .T. ) ;
#655 = CIRCLE ( 'NONE', #339, 0.1700000000000000122 ) ;
#656 = EDGE_LOOP ( 'NONE', ( #395, #615, #634, #423, #473, #7, #506, #71 ) ) ;
#657 = APPROVAL_PERSON_ORGANIZATION ( #98, #638, #354 ) ;
#658 = FACE_OUTER_BOUND ( 'NONE', #194, .T. ) ;
#659 = CC_DESIGN_SECURITY_CLASSIFICATION ( #126, ( #155 ) ) ;
#660 = CARTESIAN_POINT ( 'NONE',  ( -2.649999999999999467, 3.150000000000000799, 0.000000000000000000 ) ) ;
#661 = EDGE_LOOP ( 'NONE', ( #538, #238, #119, #87 ) ) ;
#662 = DIRECTION ( 'NONE',  ( 0.000000000000000000, 0.000000000000000000, -1.000000000000000000 ) ) ;
#663 = DIRECTION ( 'NONE',  ( -0.000000000000000000, -0.000000000000000000, -1.000000000000000000 ) ) ;
#664 = ADVANCED_FACE ( 'NONE', ( #179 ), #376, .F. ) ;
#665 = ORIENTED_EDGE ( 'NONE', *, *, #485, .T. ) ;
#666 = VECTOR ( 'NONE', #394, 100.0000000000000000 ) ;
#667 = DIRECTION ( 'NONE',  ( 0.000000000000000000, 0.000000000000000000, 1.000000000000000000 ) ) ;
#668 = AXIS2_PLACEMENT_3D ( 'NONE', #287, #329, #190 ) ;
#669 = DIRECTION ( 'NONE',  ( -1.000000000000000000, 0.000000000000000000, 0.000000000000000000 ) ) ;
#670 = CARTESIAN_POINT ( 'NONE',  ( 2.650000000000000355, 3.150000000000000799, 0.2500000000000000000 ) ) ;
#671 = FACE_OUTER_BOUND ( 'NONE', #74, .T. ) ;
#672 = PERSON_AND_ORGANIZATION_ROLE ( 'creator' ) ;
#673 = ADVANCED_FACE ( 'NONE', ( #601 ), #609, .F. ) ;
ENDSEC;
END-ISO-10303-21;
